<svg viewBox="0 0 100 100" fill="none" xmlns="http://www.w3.org/2000/svg">
<path fill-rule="evenodd" clip-rule="evenodd" d="M61.7742 18.3669C45.9301 11.3072 27.3298 15.5097 16.0599 28.6954C4.79005 41.8811 3.53536 60.909 12.9762 75.4604C22.4171 90.0118 40.3046 96.6203 56.9385 91.7022C73.5719 86.7842 84.9895 71.5117 85 54.1667C85 54.1662 85 54.1657 85 54.1652L85 50.2916C85 48.9109 86.1193 47.7916 87.5 47.7916C88.8807 47.7916 90 48.9109 90 50.2916V54.1681C89.9888 73.7281 77.1135 90.951 58.3561 96.497C39.5988 102.043 19.4278 94.5908 8.78172 78.1818C-1.86439 61.7728 -0.44952 40.3158 12.259 25.4468C24.9676 10.5778 45.9425 5.83882 63.8092 13.7997C65.0703 14.3617 65.6372 15.8396 65.0752 17.1008C64.5133 18.362 63.0353 18.9288 61.7742 18.3669Z" fill="#003F2E"/>
<path fill-rule="evenodd" clip-rule="evenodd" d="M93.4344 14.8989C94.4107 15.8752 94.4107 17.4581 93.4344 18.4345L47.6011 64.2678C47.1323 64.7366 46.4964 65 45.8333 65C45.1703 65 44.5344 64.7366 44.0656 64.2678L31.5656 51.7678C30.5893 50.7915 30.5893 49.2086 31.5656 48.2323C32.5419 47.2559 34.1248 47.2559 35.1011 48.2323L45.8333 58.9645L89.8989 14.8989C90.8752 13.9226 92.4581 13.9226 93.4344 14.8989Z" fill="#003F2E"/>
</svg>
