<svg width="24" height="24" viewBox="0 0 24 24" fill="none" xmlns="http://www.w3.org/2000/svg">
<path fill-rule="evenodd" clip-rule="evenodd" d="M7 21C7 19.8954 7.89543 19 9 19C10.1046 19 11 19.8954 11 21C11 22.1046 10.1046 23 9 23C7.89543 23 7 22.1046 7 21Z" fill="#003F2E"/>
<path fill-rule="evenodd" clip-rule="evenodd" d="M18 21C18 19.8954 18.8954 19 20 19C21.1046 19 22 19.8954 22 21C22 22.1046 21.1046 23 20 23C18.8954 23 18 22.1046 18 21Z" fill="#003F2E"/>
<path fill-rule="evenodd" clip-rule="evenodd" d="M0 1.21426C0 0.543643 0.548222 0 1.22449 0H5.14285C5.72648 0 6.22899 0.408459 6.34353 0.975953L7.12687 4.85704H22.7755C23.1404 4.85704 23.4863 5.01845 23.719 5.29728C23.9516 5.5761 24.0467 5.94329 23.9783 6.29876L22.4092 14.458C22.2637 15.1847 21.8649 15.8376 21.2829 16.3022C20.7043 16.7641 19.9811 17.0107 19.2386 16.9996H9.7377C8.99524 17.0107 8.27206 16.7641 7.69343 16.3022C7.11186 15.8379 6.71334 15.1858 6.56748 14.4597C6.56747 14.4596 6.5675 14.4598 6.56748 14.4597C6.56738 14.4592 6.56723 14.4585 6.56713 14.458L4.93218 6.35758C4.92468 6.32678 4.91836 6.29552 4.91327 6.26386L4.13916 2.42852H1.22449C0.548222 2.42852 0 1.88488 0 1.21426ZM7.61703 7.28556L8.96919 13.9849C9.00278 14.1526 9.09479 14.3032 9.2291 14.4104C9.36342 14.5177 9.53148 14.5746 9.70388 14.5713L9.72734 14.5711H19.249L19.2724 14.5713C19.4448 14.5746 19.6129 14.5177 19.7472 14.4104C19.8806 14.304 19.9722 14.1547 20.0064 13.9884L21.2954 7.28556H7.61703Z" fill="#003F2E"/>
</svg>
