<svg width="24" height="24" viewBox="0 0 24 24" fill="none" xmlns="http://www.w3.org/2000/svg">
<mask id="path-1-inside-1_1351_4595" fill="white">
<path fill-rule="evenodd" clip-rule="evenodd" d="M22.3945 13.8725C23.223 12.4376 22.7313 10.6028 21.2965 9.77438L9.56371 3.00048C8.12883 2.17205 6.29406 2.66368 5.46563 4.09856L5.11327 4.70887C5.82727 5.54344 5.97613 6.76969 5.39571 7.77502C4.81529 8.78034 3.67889 9.26455 2.59913 9.06349L2.24588 9.67534C1.41745 11.1102 1.90908 12.945 3.34395 13.7734L15.0767 20.5473C16.5116 21.3757 18.3463 20.8841 19.1748 19.4492L19.5279 18.8376C18.814 18.0031 18.6651 16.7769 19.2455 15.7716C19.8259 14.7663 20.9623 14.2821 22.042 14.4831L22.3945 13.8725Z"/>
</mask>
<path d="M21.2965 9.77438L20.2965 11.5064L21.2965 9.77438ZM9.56371 3.00048L10.5637 1.26843L9.56371 3.00048ZM5.11327 4.70887L3.59355 6.00903L2.67386 4.93405L3.38122 3.70887L5.11327 4.70887ZM2.59913 9.06349L0.867075 8.06349L1.57443 6.83831L2.96524 7.09729L2.59913 9.06349ZM2.24588 9.67534L0.513827 8.67534L2.24588 9.67534ZM19.5279 18.8376L21.0477 17.5376L21.9673 18.6125L21.2599 19.8376L19.5279 18.8376ZM22.042 14.4831L23.774 15.4831L23.0667 16.7082L21.676 16.4493L22.042 14.4831ZM22.2965 8.04233C24.6879 9.42304 25.5073 12.481 24.1266 14.8725L20.6625 12.8725C20.9386 12.3942 20.7747 11.7826 20.2965 11.5064L22.2965 8.04233ZM10.5637 1.26843L22.2965 8.04233L20.2965 11.5064L8.56371 4.73253L10.5637 1.26843ZM3.73358 3.09856C5.1143 0.70709 8.17225 -0.11228 10.5637 1.26843L8.56371 4.73253C8.08542 4.45639 7.47383 4.62027 7.19768 5.09856L3.73358 3.09856ZM3.38122 3.70887L3.73358 3.09856L7.19768 5.09856L6.84532 5.70887L3.38122 3.70887ZM3.66366 6.77502C3.80703 6.52669 3.77369 6.2196 3.59355 6.00903L6.633 3.4087C7.88086 4.86728 8.14524 7.0127 7.12776 8.77502L3.66366 6.77502ZM2.96524 7.09729C3.23767 7.14802 3.52029 7.02334 3.66366 6.77502L7.12776 8.77502C6.11028 10.5373 4.12011 11.3811 2.23301 11.0297L2.96524 7.09729ZM0.513827 8.67534L0.867075 8.06349L4.33118 10.0635L3.97793 10.6753L0.513827 8.67534ZM2.34395 15.5055C-0.0475085 14.1248 -0.866886 11.0668 0.513827 8.67534L3.97793 10.6753C3.70179 11.1536 3.86566 11.7652 4.34395 12.0414L2.34395 15.5055ZM14.0767 22.2794L2.34395 15.5055L4.34395 12.0414L16.0767 18.8153L14.0767 22.2794ZM20.9068 20.4492C19.5261 22.8407 16.4682 23.6601 14.0767 22.2794L16.0767 18.8153C16.555 19.0914 17.1666 18.9275 17.4427 18.4492L20.9068 20.4492ZM21.2599 19.8376L20.9068 20.4492L17.4427 18.4492L17.7958 17.8376L21.2599 19.8376ZM20.9776 16.7716C20.8342 17.0199 20.8676 17.327 21.0477 17.5376L18.0081 20.1377C16.7604 18.6791 16.4961 16.5338 17.5135 14.7716L20.9776 16.7716ZM21.676 16.4493C21.4036 16.3986 21.121 16.5233 20.9776 16.7716L17.5135 14.7716C18.5309 13.0093 20.521 12.1656 22.408 12.5169L21.676 16.4493ZM24.1266 14.8725L23.774 15.4831L20.3099 13.4831L20.6625 12.8725L24.1266 14.8725Z" fill="#003F2E" mask="url(#path-1-inside-1_1351_4595)"/>
<path fill-rule="evenodd" clip-rule="evenodd" d="M11.9617 17.723L17.293 8.48903L15.5609 7.48903L10.2297 16.723L11.9617 17.723Z" fill="#003F2E"/>
</svg>
