<svg viewBox="0 0 19 19" fill="none" xmlns="http://www.w3.org/2000/svg">
<path fill-rule="evenodd" clip-rule="evenodd" d="M9.88892 0.5C9.88892 0.223858 9.66506 0 9.38892 0C9.11277 0 8.88892 0.223858 8.88892 0.5V4.05556C8.88892 4.3317 9.11277 4.55556 9.38892 4.55556C9.66506 4.55556 9.88892 4.3317 9.88892 4.05556V0.5ZM9.88892 14.7222C9.88892 14.4461 9.66506 14.2222 9.38892 14.2222C9.11277 14.2222 8.88892 14.4461 8.88892 14.7222V18.2778C8.88892 18.5539 9.11277 18.7778 9.38892 18.7778C9.66506 18.7778 9.88892 18.5539 9.88892 18.2778V14.7222ZM2.75094 2.75091C2.9462 2.55565 3.26278 2.55565 3.45805 2.75091L5.9736 5.26646C6.16886 5.46173 6.16886 5.77831 5.9736 5.97357C5.77834 6.16883 5.46176 6.16883 5.26649 5.97357L2.75094 3.45801C2.55568 3.26275 2.55568 2.94617 2.75094 2.75091ZM13.5114 12.8042C13.3161 12.609 12.9995 12.609 12.8043 12.8042C12.609 12.9995 12.609 13.3161 12.8043 13.5113L15.3198 16.0269C15.5151 16.2221 15.8317 16.2221 16.0269 16.0269C16.2222 15.8316 16.2222 15.515 16.0269 15.3198L13.5114 12.8042ZM0 9.38889C0 9.11274 0.223858 8.88889 0.5 8.88889H4.05556C4.3317 8.88889 4.55556 9.11274 4.55556 9.38889C4.55556 9.66503 4.3317 9.88889 4.05556 9.88889H0.5C0.223858 9.88889 0 9.66503 0 9.38889ZM14.7222 8.88889C14.4461 8.88889 14.2222 9.11274 14.2222 9.38889C14.2222 9.66503 14.4461 9.88889 14.7222 9.88889H18.2778C18.5539 9.88889 18.7778 9.66503 18.7778 9.38889C18.7778 9.11274 18.5539 8.88889 18.2778 8.88889H14.7222ZM5.9736 12.8042C6.16886 12.9995 6.16886 13.3161 5.9736 13.5113L3.45805 16.0269C3.26278 16.2221 2.9462 16.2221 2.75094 16.0269C2.55568 15.8316 2.55568 15.515 2.75094 15.3198L5.26649 12.8042C5.46176 12.609 5.77834 12.609 5.9736 12.8042ZM16.0269 3.45801C16.2222 3.26275 16.2222 2.94617 16.0269 2.75091C15.8317 2.55565 15.5151 2.55565 15.3198 2.75091L12.8043 5.26646C12.609 5.46173 12.609 5.77831 12.8043 5.97357C12.9995 6.16883 13.3161 6.16883 13.5114 5.97357L16.0269 3.45801Z" fill="black"/>
</svg>
