<svg width="24" height="24" viewBox="0 0 24 24" fill="none" xmlns="http://www.w3.org/2000/svg">
<path fill-rule="evenodd" clip-rule="evenodd" d="M7.5 2.89471H16.5C17.5062 2.89471 18.3721 3.4565 18.7591 4.26312H5.24091C5.62788 3.4565 6.49382 2.89471 7.5 2.89471ZM5.025 6.15783H18.975V10.5788H5.025V6.15783ZM5.025 12.4735V14.7893H7.5C8.05919 14.7893 8.5125 15.2135 8.5125 15.7367C8.5125 16.2599 8.05919 16.684 7.5 16.684H5.24091C5.62788 17.4907 6.49382 18.0524 7.5 18.0524H16.5C17.5062 18.0524 18.3721 17.4907 18.7591 16.684L16.5 16.684C15.9408 16.684 15.4875 16.2599 15.4875 15.7367C15.4875 15.2135 15.9408 14.7893 16.5 14.7893H18.975V12.4735H5.025ZM3 5.21048C3 2.88509 5.01472 1 7.5 1H16.5C18.9853 1 21 2.88509 21 5.21048V15.7367C21 17.2731 20.1205 18.6173 18.8069 19.3525L19.7311 21.7284C19.9224 22.22 19.6514 22.7637 19.126 22.9426C18.6005 23.1216 18.0195 22.8681 17.8282 22.3764L16.8776 19.9325C16.7531 19.9422 16.6272 19.9471 16.5 19.9471H7.5C7.38265 19.9471 7.26635 19.9429 7.15126 19.9347L6.20144 22.3764C6.01019 22.8681 5.42917 23.1216 4.9037 22.9426C4.37824 22.7637 4.10731 22.22 4.29856 21.7284L5.21748 19.3661C3.89038 18.6338 3 17.2825 3 15.7367V5.21048Z" fill="#003F2E"/>
</svg>
