<svg width="372" height="235" viewBox="0 0 372 235" fill="none" xmlns="http://www.w3.org/2000/svg">
<rect width="371.193" height="235" rx="10.6818" fill="#F8F4D2"/>
<path d="M0 10.6818C0 4.78241 4.78241 0 10.6818 0H360.511C366.411 0 371.193 4.78241 371.193 10.6818V44.0625H0V10.6818Z" fill="#D26339"/>
<path d="M219.99 28.6816V17.0287H224.588C225.471 17.0287 226.224 17.1975 226.846 17.5351C227.469 17.869 227.943 18.3336 228.269 18.9292C228.599 19.5209 228.764 20.2037 228.764 20.9775C228.764 21.7514 228.597 22.4341 228.263 23.0259C227.929 23.6176 227.446 24.0785 226.812 24.4085C226.183 24.7385 225.42 24.9036 224.525 24.9036H221.595V22.9292H224.127C224.601 22.9292 224.992 22.8476 225.299 22.6845C225.61 22.5176 225.841 22.2881 225.993 21.996C226.148 21.7001 226.226 21.3606 226.226 20.9775C226.226 20.5906 226.148 20.253 225.993 19.9647C225.841 19.6726 225.61 19.447 225.299 19.2876C224.988 19.1245 224.593 19.043 224.115 19.043H222.454V28.6816H219.99ZM230.364 28.6816V17.0287H232.828V21.8367H237.829V17.0287H240.287V28.6816H237.829V23.868H232.828V28.6816H230.364ZM253.027 22.8552C253.027 24.1259 252.786 25.207 252.304 26.0984C251.826 26.9898 251.174 27.6707 250.347 28.1411C249.524 28.6077 248.598 28.841 247.57 28.841C246.535 28.841 245.606 28.6058 244.782 28.1354C243.959 27.665 243.309 26.9842 242.831 26.0927C242.353 25.2013 242.114 24.1221 242.114 22.8552C242.114 21.5845 242.353 20.5034 242.831 19.612C243.309 18.7205 243.959 18.0415 244.782 17.575C245.606 17.1046 246.535 16.8694 247.57 16.8694C248.598 16.8694 249.524 17.1046 250.347 17.575C251.174 18.0415 251.826 18.7205 252.304 19.612C252.786 20.5034 253.027 21.5845 253.027 22.8552ZM250.529 22.8552C250.529 22.0321 250.406 21.3379 250.159 20.7727C249.917 20.2075 249.573 19.7789 249.129 19.4868C248.686 19.1947 248.166 19.0487 247.57 19.0487C246.975 19.0487 246.455 19.1947 246.011 19.4868C245.568 19.7789 245.222 20.2075 244.976 20.7727C244.733 21.3379 244.612 22.0321 244.612 22.8552C244.612 23.6783 244.733 24.3725 244.976 24.9377C245.222 25.5029 245.568 25.9315 246.011 26.2236C246.455 26.5157 246.975 26.6617 247.57 26.6617C248.166 26.6617 248.686 26.5157 249.129 26.2236C249.573 25.9315 249.917 25.5029 250.159 24.9377C250.406 24.3725 250.529 23.6783 250.529 22.8552ZM253.876 19.06V17.0287H263.447V19.06H259.879V28.6816H257.444V19.06H253.876ZM275.199 22.8552C275.199 24.1259 274.958 25.207 274.476 26.0984C273.999 26.9898 273.346 27.6707 272.519 28.1411C271.696 28.6077 270.77 28.841 269.742 28.841C268.707 28.841 267.778 28.6058 266.954 28.1354C266.131 27.665 265.481 26.9842 265.003 26.0927C264.525 25.2013 264.286 24.1221 264.286 22.8552C264.286 21.5845 264.525 20.5034 265.003 19.612C265.481 18.7205 266.131 18.0415 266.954 17.575C267.778 17.1046 268.707 16.8694 269.742 16.8694C270.77 16.8694 271.696 17.1046 272.519 17.575C273.346 18.0415 273.999 18.7205 274.476 19.612C274.958 20.5034 275.199 21.5845 275.199 22.8552ZM272.701 22.8552C272.701 22.0321 272.578 21.3379 272.331 20.7727C272.089 20.2075 271.745 19.7789 271.302 19.4868C270.858 19.1947 270.338 19.0487 269.742 19.0487C269.147 19.0487 268.627 19.1947 268.183 19.4868C267.74 19.7789 267.394 20.2075 267.148 20.7727C266.905 21.3379 266.784 22.0321 266.784 22.8552C266.784 23.6783 266.905 24.3725 267.148 24.9377C267.394 25.5029 267.74 25.9315 268.183 26.2236C268.627 26.5157 269.147 26.6617 269.742 26.6617C270.338 26.6617 270.858 26.5157 271.302 26.2236C271.745 25.9315 272.089 25.5029 272.331 24.9377C272.578 24.3725 272.701 23.6783 272.701 22.8552ZM287.306 21.1084H284.814C284.768 20.786 284.675 20.4996 284.535 20.2492C284.394 19.9951 284.214 19.7789 283.994 19.6006C283.774 19.4223 283.52 19.2857 283.232 19.1909C282.947 19.0961 282.638 19.0487 282.304 19.0487C281.701 19.0487 281.176 19.1985 280.728 19.4982C280.281 19.794 279.934 20.2265 279.687 20.7955C279.44 21.3606 279.317 22.0472 279.317 22.8552C279.317 23.6859 279.44 24.3839 279.687 24.9491C279.937 25.5143 280.286 25.941 280.734 26.2293C281.182 26.5176 281.699 26.6617 282.287 26.6617C282.617 26.6617 282.923 26.6181 283.203 26.5309C283.488 26.4436 283.74 26.3165 283.96 26.1496C284.18 25.9789 284.362 25.7722 284.506 25.5294C284.654 25.2867 284.757 25.0098 284.814 24.6987L287.306 24.7101C287.241 25.2449 287.08 25.7608 286.822 26.2577C286.568 26.7509 286.225 27.1928 285.792 27.5835C285.364 27.9704 284.852 28.2777 284.256 28.5053C283.664 28.7291 282.995 28.841 282.247 28.841C281.208 28.841 280.279 28.6058 279.459 28.1354C278.644 27.665 277.999 26.9842 277.525 26.0927C277.054 25.2013 276.819 24.1221 276.819 22.8552C276.819 21.5845 277.058 20.5034 277.536 19.612C278.014 18.7205 278.663 18.0415 279.482 17.575C280.301 17.1046 281.223 16.8694 282.247 16.8694C282.923 16.8694 283.549 16.9643 284.125 17.1539C284.705 17.3436 285.219 17.6205 285.667 17.9846C286.115 18.345 286.479 18.7869 286.76 19.3104C287.044 19.8339 287.226 20.4332 287.306 21.1084ZM290.862 28.6816H288.222L292.245 17.0287H295.42L299.437 28.6816H296.796L293.878 19.6916H293.787L290.862 28.6816ZM290.697 24.1013H296.933V26.0245H290.697V24.1013ZM300.839 28.6816V17.0287H305.437C306.317 17.0287 307.068 17.1862 307.69 17.501C308.316 17.8121 308.792 18.254 309.118 18.8268C309.448 19.3957 309.613 20.0653 309.613 20.8353C309.613 21.6091 309.446 22.2748 309.112 22.8324C308.778 23.3863 308.295 23.8111 307.661 24.107C307.032 24.4028 306.269 24.5508 305.374 24.5508H302.296V22.5707H304.976C305.446 22.5707 305.837 22.5062 306.148 22.3772C306.459 22.2483 306.69 22.0548 306.842 21.7969C306.998 21.5389 307.075 21.2184 307.075 20.8353C307.075 20.4484 306.998 20.1222 306.842 19.8566C306.69 19.5911 306.457 19.3901 306.142 19.2535C305.831 19.1131 305.438 19.043 304.964 19.043H303.303V28.6816H300.839ZM307.132 23.3787L310.028 28.6816H307.309L304.475 23.3787H307.132ZM315.485 28.6816H311.354V17.0287H315.519C316.691 17.0287 317.7 17.262 318.546 17.7286C319.392 18.1914 320.043 18.8571 320.498 19.7258C320.957 20.5944 321.186 21.6338 321.186 22.8438C321.186 24.0577 320.957 25.1008 320.498 25.9733C320.043 26.8457 319.388 27.5152 318.535 27.9818C317.685 28.4484 316.668 28.6816 315.485 28.6816ZM313.818 26.5707H315.383C316.111 26.5707 316.723 26.4417 317.22 26.1838C317.721 25.922 318.097 25.5181 318.347 24.9718C318.601 24.4218 318.728 23.7125 318.728 22.8438C318.728 21.9827 318.601 21.2791 318.347 20.7329C318.097 20.1866 317.723 19.7846 317.226 19.5266C316.729 19.2687 316.117 19.1397 315.388 19.1397H313.818V26.5707ZM336.466 17.0287V28.6816H334.338L329.269 21.3474H329.183V28.6816H326.72V17.0287H328.882L333.912 24.3573H334.014V17.0287H336.466ZM338.502 28.6816V17.0287H343.099C343.979 17.0287 344.73 17.1862 345.353 17.501C345.978 17.8121 346.455 18.254 346.781 18.8268C347.111 19.3957 347.276 20.0653 347.276 20.8353C347.276 21.6091 347.109 22.2748 346.775 22.8324C346.441 23.3863 345.958 23.8111 345.324 24.107C344.694 24.4028 343.932 24.5508 343.037 24.5508H339.959V22.5707H342.639C343.109 22.5707 343.5 22.5062 343.811 22.3772C344.122 22.2483 344.353 22.0548 344.505 21.7969C344.66 21.5389 344.738 21.2184 344.738 20.8353C344.738 20.4484 344.66 20.1222 344.505 19.8566C344.353 19.5911 344.12 19.3901 343.805 19.2535C343.494 19.1131 343.101 19.043 342.627 19.043H340.966V28.6816H338.502ZM344.795 23.3787L347.691 28.6816H344.971L342.138 23.3787H344.795Z" fill="black"/>
<path d="M0 224.318C0 230.218 4.78241 235 10.6818 235H360.511C366.411 235 371.193 230.218 371.193 224.318V180.256H0V224.318Z" fill="#D26339"/>
<rect x="129.517" y="200.283" width="221.648" height="16.0227" rx="8.01136" fill="black" fill-opacity="0.1"/>
<rect x="17.3582" y="60.0859" width="149.545" height="16.0227" rx="8.01136" fill="black" fill-opacity="0.1"/>
<rect x="17.3582" y="118.836" width="245.682" height="16.0227" rx="8.01136" fill="black" fill-opacity="0.1"/>
<rect x="17.3582" y="148.211" width="245.682" height="16.0227" rx="8.01136" fill="black" fill-opacity="0.1"/>
<rect x="17.3582" y="89.4609" width="112.159" height="16.0227" rx="8.01136" fill="black" fill-opacity="0.1"/>
<rect x="17.3582" y="200.283" width="46.733" height="16.0227" rx="8.01136" fill="black" fill-opacity="0.1"/>
<rect x="263.04" y="60.0859" width="88.125" height="16.0227" rx="8.01136" fill="black" fill-opacity="0.1"/>
<rect x="20.0286" y="14.6875" width="88.125" height="16.0227" rx="8.01136" fill="black" fill-opacity="0.1"/>
</svg>
