<svg width="278" height="176" viewBox="0 0 278 176" fill="none" xmlns="http://www.w3.org/2000/svg">
<path d="M0 8C0 3.58173 3.58172 0 8 0H270C274.418 0 278 3.58172 278 8V168C278 172.418 274.418 176 270 176H8.00001C3.58173 176 0 172.418 0 168V8Z" fill="#F8F4D2"/>
<path d="M0 168C0 172.418 3.58172 176 8 176H270C274.418 176 278 172.418 278 168V135H0V168Z" fill="#CDBE5A"/>
<path fill-rule="evenodd" clip-rule="evenodd" d="M215.939 89.9393C216.525 89.3536 217.475 89.3536 218.061 89.9393L227.607 99.4853C228.192 100.071 228.192 101.021 227.607 101.607C227.021 102.192 226.071 102.192 225.485 101.607L218.5 94.6213V128C218.5 128.828 217.828 129.5 217 129.5C216.172 129.5 215.5 128.828 215.5 128V94.6213L208.515 101.607C207.929 102.192 206.979 102.192 206.393 101.607C205.808 101.021 205.808 100.071 206.393 99.4853L215.939 89.9393Z" fill="black"/>
<path d="M13 29C13 25.6863 15.6863 23 19 23H110C113.314 23 116 25.6863 116 29C116 32.3137 113.314 35 110 35H19C15.6863 35 13 32.3137 13 29Z" fill="black" fill-opacity="0.1"/>
<path d="M13 77C13 71.4772 17.4772 67 23 67H174C179.523 67 184 71.4772 184 77V91C184 96.5228 179.523 101 174 101H23C17.4772 101 13 96.5228 13 91V77Z" fill="black" fill-opacity="0.1"/>
<path d="M13 117C13 113.686 15.6863 111 19 111H78C81.3137 111 84 113.686 84 117C84 120.314 81.3137 123 78 123H19C15.6863 123 13 120.314 13 117Z" fill="black" fill-opacity="0.1"/>
<path d="M13 51C13 47.6863 15.6863 45 19 45H148C151.314 45 154 47.6863 154 51C154 54.3137 151.314 57 148 57H19C15.6863 57 13 54.3137 13 51Z" fill="black" fill-opacity="0.1"/>
<path d="M24 156C24 152.686 26.6863 150 30 150H248C251.314 150 254 152.686 254 156C254 159.314 251.314 162 248 162H30C26.6863 162 24 159.314 24 156Z" fill="black" fill-opacity="0.1"/>
<path d="M197 17C197 13.6863 199.686 11 203 11H257C260.314 11 263 13.6863 263 17C263 20.3137 260.314 23 257 23H203C199.686 23 197 20.3137 197 17Z" fill="black" fill-opacity="0.1"/>
<path d="M205.307 55.2727V64H204.285L199.529 57.1477H199.444V64H198.387V55.2727H199.41L204.182 62.1421H204.268V55.2727H205.307Z" fill="black"/>
<path d="M211.411 61.3239V57.4546H212.416V64H211.411V62.8921H211.343C211.189 63.2244 210.95 63.5071 210.627 63.7401C210.303 63.9702 209.894 64.0852 209.399 64.0852C208.99 64.0852 208.627 63.9957 208.308 63.8168C207.99 63.635 207.74 63.3622 207.558 62.9986C207.377 62.6321 207.286 62.1705 207.286 61.6136V57.4546H208.291V61.5455C208.291 62.0227 208.425 62.4034 208.692 62.6875C208.962 62.9716 209.306 63.1136 209.723 63.1136C209.973 63.1136 210.227 63.0497 210.486 62.9219C210.747 62.794 210.966 62.598 211.142 62.3338C211.321 62.0696 211.411 61.733 211.411 61.3239Z" fill="black"/>
<path d="M214.258 64V57.4546H215.23V58.4773H215.315C215.452 58.1278 215.672 57.8565 215.976 57.6634C216.28 57.4673 216.645 57.3693 217.071 57.3693C217.503 57.3693 217.862 57.4673 218.149 57.6634C218.439 57.8565 218.665 58.1278 218.827 58.4773H218.895C219.062 58.1392 219.314 57.8707 219.649 57.6719C219.984 57.4702 220.386 57.3693 220.855 57.3693C221.44 57.3693 221.919 57.5526 222.291 57.919C222.663 58.2827 222.849 58.8494 222.849 59.6193V64H221.844V59.6193C221.844 59.1364 221.711 58.7912 221.447 58.5838C221.183 58.3764 220.872 58.2727 220.514 58.2727C220.054 58.2727 219.697 58.4119 219.444 58.6903C219.192 58.9659 219.065 59.3153 219.065 59.7386V64H218.042V59.5171C218.042 59.1449 217.922 58.8452 217.68 58.6179C217.439 58.3878 217.128 58.2727 216.747 58.2727C216.486 58.2727 216.241 58.3423 216.014 58.4815C215.79 58.6207 215.608 58.8139 215.469 59.0611C215.332 59.3054 215.264 59.5881 215.264 59.9091V64H214.258Z" fill="black"/>
<path d="M224.824 64V55.2727H225.83V58.4943H225.915C225.989 58.3807 226.091 58.2358 226.222 58.0597C226.356 57.8807 226.546 57.7216 226.793 57.5824C227.043 57.4403 227.381 57.3693 227.807 57.3693C228.358 57.3693 228.844 57.5071 229.265 57.7827C229.685 58.0582 230.013 58.4489 230.249 58.9546C230.485 59.4602 230.603 60.0568 230.603 60.7443C230.603 61.4375 230.485 62.0384 230.249 62.5469C230.013 63.0526 229.687 63.4446 229.269 63.723C228.851 63.9986 228.37 64.1364 227.824 64.1364C227.404 64.1364 227.067 64.0668 226.814 63.9276C226.562 63.7855 226.367 63.625 226.231 63.446C226.094 63.2642 225.989 63.1136 225.915 62.9943H225.796V64H224.824ZM225.813 60.7273C225.813 61.2216 225.885 61.6577 226.03 62.0355C226.175 62.4105 226.387 62.7046 226.665 62.9176C226.944 63.1278 227.285 63.233 227.688 63.233C228.108 63.233 228.459 63.1222 228.741 62.9006C229.025 62.6761 229.238 62.375 229.38 61.9972C229.525 61.6165 229.597 61.1932 229.597 60.7273C229.597 60.2671 229.526 59.8523 229.384 59.483C229.245 59.1108 229.033 58.8168 228.749 58.6009C228.468 58.3821 228.114 58.2727 227.688 58.2727C227.279 58.2727 226.935 58.3764 226.657 58.5838C226.378 58.7884 226.168 59.0753 226.026 59.4446C225.884 59.8111 225.813 60.2386 225.813 60.7273Z" fill="black"/>
<path d="M234.885 64.1364C234.255 64.1364 233.711 63.9972 233.253 63.7188C232.799 63.4375 232.448 63.0455 232.201 62.5426C231.957 62.0369 231.834 61.4489 231.834 60.7784C231.834 60.108 231.957 59.5171 232.201 59.0057C232.448 58.4915 232.792 58.0909 233.232 57.804C233.675 57.5142 234.192 57.3693 234.783 57.3693C235.124 57.3693 235.461 57.4261 235.793 57.5398C236.126 57.6534 236.428 57.8381 236.701 58.0938C236.974 58.3466 237.191 58.6818 237.353 59.0994C237.515 59.5171 237.596 60.0313 237.596 60.6421V61.0682H232.55V60.1989H236.573C236.573 59.8296 236.499 59.5 236.351 59.2102C236.207 58.9205 235.999 58.6918 235.729 58.5242C235.462 58.3565 235.147 58.2727 234.783 58.2727C234.383 58.2727 234.036 58.3722 233.743 58.571C233.454 58.7671 233.231 59.0227 233.074 59.3381C232.918 59.6534 232.84 59.9915 232.84 60.3523V60.9318C232.84 61.4261 232.925 61.8452 233.096 62.1889C233.269 62.5298 233.509 62.7898 233.816 62.9688C234.123 63.1449 234.479 63.233 234.885 63.233C235.15 63.233 235.388 63.196 235.601 63.1222C235.817 63.0455 236.003 62.9318 236.16 62.7813C236.316 62.6278 236.437 62.4375 236.522 62.2102L237.493 62.483C237.391 62.8125 237.219 63.1023 236.978 63.3523C236.736 63.5994 236.438 63.7926 236.083 63.9318C235.728 64.0682 235.329 64.1364 234.885 64.1364Z" fill="black"/>
<path d="M239.126 64V57.4546H240.097V58.4432H240.165C240.285 58.1193 240.501 57.8565 240.813 57.6548C241.126 57.4531 241.478 57.3523 241.87 57.3523C241.944 57.3523 242.036 57.3537 242.147 57.3565C242.258 57.3594 242.341 57.3636 242.398 57.3693V58.3921C242.364 58.3835 242.286 58.3707 242.164 58.3537C242.045 58.3338 241.918 58.3239 241.785 58.3239C241.466 58.3239 241.182 58.3906 240.932 58.5242C240.685 58.6548 240.489 58.8367 240.344 59.0696C240.202 59.2997 240.131 59.5625 240.131 59.858V64H239.126Z" fill="black"/>
<path d="M201.309 80.1918C200.576 80.1889 199.945 80.0085 199.417 79.6506C198.891 79.2926 198.487 78.7742 198.202 78.0952C197.921 77.4162 197.782 76.5994 197.785 75.6449C197.785 74.6932 197.925 73.8821 198.207 73.2117C198.491 72.5412 198.896 72.0313 199.421 71.6818C199.95 71.3295 200.579 71.1534 201.309 71.1534C202.039 71.1534 202.667 71.3295 203.193 71.6818C203.721 72.0341 204.127 72.5455 204.411 73.2159C204.695 73.8835 204.836 74.6932 204.833 75.6449C204.833 76.6023 204.691 77.4205 204.407 78.0994C204.126 78.7784 203.722 79.2969 203.197 79.6548C202.671 80.0128 202.042 80.1918 201.309 80.1918ZM201.309 78.6619C201.809 78.6619 202.208 78.4105 202.506 77.9077C202.805 77.4048 202.952 76.6506 202.95 75.6449C202.95 74.983 202.881 74.4318 202.745 73.9915C202.612 73.5511 202.421 73.2202 202.174 72.9986C201.93 72.777 201.641 72.6662 201.309 72.6662C200.812 72.6662 200.414 72.9148 200.116 73.4119C199.818 73.9091 199.667 74.6534 199.664 75.6449C199.664 76.3153 199.731 76.875 199.864 77.3239C200.001 77.7699 200.193 78.1051 200.44 78.3295C200.687 78.5511 200.977 78.6619 201.309 78.6619Z" fill="black"/>
<path d="M209.571 80.1918C208.838 80.1889 208.207 80.0085 207.679 79.6506C207.153 79.2926 206.748 78.7742 206.464 78.0952C206.183 77.4162 206.044 76.5994 206.047 75.6449C206.047 74.6932 206.187 73.8821 206.468 73.2117C206.753 72.5412 207.157 72.0313 207.683 71.6818C208.211 71.3295 208.841 71.1534 209.571 71.1534C210.301 71.1534 210.929 71.3295 211.454 71.6818C211.983 72.0341 212.389 72.5455 212.673 73.2159C212.957 73.8835 213.098 74.6932 213.095 75.6449C213.095 76.6023 212.953 77.4205 212.669 78.0994C212.387 78.7784 211.984 79.2969 211.458 79.6548C210.933 80.0128 210.304 80.1918 209.571 80.1918ZM209.571 78.6619C210.071 78.6619 210.47 78.4105 210.768 77.9077C211.066 77.4048 211.214 76.6506 211.211 75.6449C211.211 74.983 211.143 74.4318 211.007 73.9915C210.873 73.5511 210.683 73.2202 210.436 72.9986C210.191 72.777 209.903 72.6662 209.571 72.6662C209.074 72.6662 208.676 72.9148 208.378 73.4119C208.079 73.9091 207.929 74.6534 207.926 75.6449C207.926 76.3153 207.993 76.875 208.126 77.3239C208.262 77.7699 208.454 78.1051 208.701 78.3295C208.949 78.5511 209.238 78.6619 209.571 78.6619Z" fill="black"/>
<path d="M217.666 80.1193C217.01 80.1193 216.426 80.0128 215.915 79.7997C215.406 79.5838 215.007 79.2898 214.717 78.9176C214.428 78.5455 214.283 78.1236 214.283 77.652C214.283 77.2884 214.365 76.9545 214.53 76.6506C214.697 76.3438 214.925 76.0895 215.212 75.8878C215.499 75.6832 215.82 75.5526 216.175 75.4957V75.4361C215.709 75.3423 215.331 75.1165 215.041 74.7585C214.751 74.3977 214.607 73.9787 214.607 73.5014C214.607 73.0497 214.739 72.6477 215.003 72.2955C215.267 71.9403 215.629 71.6619 216.09 71.4602C216.553 71.2557 217.078 71.1534 217.666 71.1534C218.254 71.1534 218.778 71.2557 219.239 71.4602C219.702 71.6648 220.065 71.9446 220.33 72.2997C220.594 72.652 220.727 73.0526 220.73 73.5014C220.727 73.9815 220.58 74.4006 220.287 74.7585C219.994 75.1165 219.619 75.3423 219.162 75.4361V75.4957C219.511 75.5526 219.828 75.6832 220.112 75.8878C220.399 76.0895 220.626 76.3438 220.794 76.6506C220.965 76.9545 221.051 77.2884 221.054 77.652C221.051 78.1236 220.905 78.5455 220.615 78.9176C220.325 79.2898 219.925 79.5838 219.413 79.7997C218.905 80.0128 218.322 80.1193 217.666 80.1193ZM217.666 78.7642C217.959 78.7642 218.215 78.7117 218.433 78.6065C218.652 78.4986 218.822 78.3509 218.945 78.1634C219.07 77.973 219.132 77.7543 219.132 77.5071C219.132 77.2543 219.068 77.0313 218.94 76.8381C218.813 76.642 218.639 76.4886 218.42 76.3778C218.202 76.2642 217.95 76.2074 217.666 76.2074C217.385 76.2074 217.134 76.2642 216.912 76.3778C216.69 76.4886 216.516 76.642 216.388 76.8381C216.263 77.0313 216.2 77.2543 216.2 77.5071C216.2 77.7543 216.261 77.973 216.384 78.1634C216.506 78.3509 216.678 78.4986 216.899 78.6065C217.121 78.7117 217.376 78.7642 217.666 78.7642ZM217.666 74.8651C217.911 74.8651 218.128 74.8153 218.318 74.7159C218.509 74.6165 218.658 74.4787 218.766 74.3026C218.874 74.1264 218.928 73.9233 218.928 73.6932C218.928 73.4659 218.874 73.267 218.766 73.0966C218.658 72.9233 218.51 72.7884 218.322 72.6918C218.135 72.5923 217.916 72.5426 217.666 72.5426C217.419 72.5426 217.2 72.5923 217.01 72.6918C216.82 72.7884 216.67 72.9233 216.563 73.0966C216.457 73.267 216.405 73.4659 216.405 73.6932C216.405 73.9233 216.459 74.1264 216.567 74.3026C216.675 74.4787 216.824 74.6165 217.014 74.7159C217.205 74.8153 217.422 74.8651 217.666 74.8651Z" fill="black"/>
<path d="M225.502 71.1534C225.951 71.1534 226.382 71.2287 226.797 71.3793C227.215 71.5298 227.587 71.7699 227.914 72.0994C228.243 72.429 228.503 72.8665 228.694 73.4119C228.887 73.9545 228.985 74.6207 228.988 75.4105C228.988 76.152 228.904 76.8139 228.736 77.3963C228.571 77.9759 228.334 78.4688 228.025 78.875C227.715 79.2813 227.341 79.5909 226.904 79.804C226.466 80.0142 225.978 80.1193 225.438 80.1193C224.856 80.1193 224.341 80.0071 223.895 79.7827C223.449 79.5554 223.09 79.2472 222.817 78.858C222.547 78.4659 222.384 78.0256 222.327 77.5369H224.147C224.218 77.8551 224.367 78.1023 224.594 78.2784C224.821 78.4517 225.103 78.5384 225.438 78.5384C226.006 78.5384 226.438 78.2912 226.733 77.7969C227.029 77.2997 227.178 76.6193 227.181 75.7557H227.121C226.99 76.0114 226.814 76.2315 226.593 76.4162C226.371 76.598 226.117 76.7386 225.83 76.8381C225.546 76.9375 225.243 76.9872 224.922 76.9872C224.408 76.9872 223.949 76.8665 223.546 76.625C223.142 76.3835 222.824 76.0511 222.591 75.6278C222.358 75.2045 222.242 74.7216 222.242 74.179C222.239 73.5938 222.374 73.0724 222.647 72.6151C222.919 72.1577 223.3 71.7997 223.789 71.5412C224.28 71.2798 224.851 71.1506 225.502 71.1534ZM225.515 72.6023C225.228 72.6023 224.972 72.6705 224.748 72.8068C224.526 72.9432 224.35 73.1264 224.219 73.3565C224.091 73.5867 224.029 73.8438 224.032 74.1278C224.032 74.4148 224.094 74.6733 224.219 74.9034C224.347 75.1307 224.52 75.3125 224.739 75.4489C224.961 75.5824 225.213 75.6492 225.498 75.6492C225.711 75.6492 225.908 75.6094 226.09 75.5298C226.272 75.4503 226.429 75.3409 226.563 75.2017C226.699 75.0597 226.806 74.8963 226.882 74.7117C226.959 74.527 226.998 74.331 226.998 74.1236C226.995 73.848 226.929 73.5952 226.802 73.3651C226.674 73.1349 226.498 72.9503 226.273 72.8111C226.049 72.6719 225.796 72.6023 225.515 72.6023Z" fill="black"/>
<path d="M233.688 80.1918C232.955 80.1889 232.324 80.0085 231.796 79.6506C231.27 79.2926 230.865 78.7742 230.581 78.0952C230.3 77.4162 230.161 76.5994 230.164 75.6449C230.164 74.6932 230.304 73.8821 230.586 73.2117C230.87 72.5412 231.275 72.0313 231.8 71.6818C232.329 71.3295 232.958 71.1534 233.688 71.1534C234.418 71.1534 235.046 71.3295 235.571 71.6818C236.1 72.0341 236.506 72.5455 236.79 73.2159C237.074 73.8835 237.215 74.6932 237.212 75.6449C237.212 76.6023 237.07 77.4205 236.786 78.0994C236.505 78.7784 236.101 79.2969 235.576 79.6548C235.05 80.0128 234.421 80.1918 233.688 80.1918ZM233.688 78.6619C234.188 78.6619 234.587 78.4105 234.885 77.9077C235.184 77.4048 235.331 76.6506 235.329 75.6449C235.329 74.983 235.26 74.4318 235.124 73.9915C234.99 73.5511 234.8 73.2202 234.553 72.9986C234.309 72.777 234.02 72.6662 233.688 72.6662C233.191 72.6662 232.793 72.9148 232.495 73.4119C232.196 73.9091 232.046 74.6534 232.043 75.6449C232.043 76.3153 232.11 76.875 232.243 77.3239C232.38 77.7699 232.571 78.1051 232.819 78.3295C233.066 78.5511 233.355 78.6619 233.688 78.6619Z" fill="black"/>
</svg>
