<svg width="278" height="176" viewBox="0 0 278 176" fill="none" xmlns="http://www.w3.org/2000/svg">
<path d="M0 8C0 3.58173 3.58172 0 8 0H270C274.418 0 278 3.58172 278 8V168C278 172.418 274.418 176 270 176H8.00001C3.58173 176 0 172.418 0 168V8Z" fill="#F8F4D2"/>
<path d="M0 8C0 3.58172 3.58172 0 8 0H270C274.418 0 278 3.58172 278 8V33H0V8Z" fill="#A1C3D9"/>
<path d="M0 168C0 172.418 3.58172 176 8 176H270C274.418 176 278 172.418 278 168V135H0V168Z" fill="#A1C3D9"/>
<path fill-rule="evenodd" clip-rule="evenodd" d="M223.607 100.485L214.061 90.9393C213.475 90.3536 212.525 90.3536 211.939 90.9393L202.393 100.485C201.808 101.071 201.808 102.021 202.393 102.607C202.979 103.192 203.929 103.192 204.515 102.607L211.5 95.6213L211.5 129L214.5 129L214.5 95.6213L221.485 102.607C222.071 103.192 223.021 103.192 223.607 102.607C224.192 102.021 224.192 101.071 223.607 100.485Z" fill="black"/>
<path d="M13 74C13 68.4772 17.4772 64 23 64H156C161.523 64 166 68.4772 166 74V88C166 93.5228 161.523 98 156 98H23C17.4772 98 13 93.5228 13 88V74Z" fill="black" fill-opacity="0.1"/>
<path d="M13 117C13 113.686 15.6863 111 19 111H78C81.3137 111 84 113.686 84 117C84 120.314 81.3137 123 78 123H19C15.6863 123 13 120.314 13 117Z" fill="black" fill-opacity="0.1"/>
<path d="M13 51C13 47.6863 15.6863 45 19 45H148C151.314 45 154 47.6863 154 51C154 54.3137 151.314 57 148 57H19C15.6863 57 13 54.3137 13 51Z" fill="black" fill-opacity="0.1"/>
<path d="M13 17C13 13.6863 15.6863 11 19 11H148C151.314 11 154 13.6863 154 17C154 20.3137 151.314 23 148 23H19C15.6863 23 13 20.3137 13 17Z" fill="black" fill-opacity="0.1"/>
<path d="M24 156C24 152.686 26.6863 150 30 150H248C251.314 150 254 152.686 254 156C254 159.314 251.314 162 248 162H30C26.6863 162 24 159.314 24 156Z" fill="black" fill-opacity="0.1"/>
<path d="M197 17C197 13.6863 199.686 11 203 11H257C260.314 11 263 13.6863 263 17C263 20.3137 260.314 23 257 23H203C199.686 23 197 20.3137 197 17Z" fill="black" fill-opacity="0.1"/>
<path d="M188.142 83.4659V82.0128L191.785 76.2727H193.038V78.2841H192.297L190 81.919V81.9872H195.177V83.4659H188.142ZM192.331 85V83.0227L192.365 82.3793V76.2727H194.095V85H192.331ZM199.756 85.1193C199.307 85.1165 198.874 85.0412 198.456 84.8935C198.042 84.7457 197.669 84.5057 197.34 84.1733C197.01 83.8409 196.749 83.4006 196.556 82.8523C196.365 82.304 196.27 81.6307 196.27 80.8324C196.273 80.0994 196.357 79.4446 196.522 78.8679C196.689 78.2884 196.928 77.7969 197.238 77.3935C197.55 76.9901 197.924 76.6832 198.358 76.473C198.793 76.2599 199.28 76.1534 199.82 76.1534C200.402 76.1534 200.917 76.267 201.363 76.4943C201.809 76.7187 202.167 77.0241 202.436 77.4105C202.709 77.7969 202.874 78.2301 202.931 78.7102H201.111C201.04 78.4062 200.891 78.1676 200.664 77.9943C200.436 77.821 200.155 77.7344 199.82 77.7344C199.252 77.7344 198.82 77.9815 198.525 78.4759C198.232 78.9702 198.083 79.642 198.077 80.4915H198.137C198.267 80.233 198.444 80.0128 198.665 79.831C198.89 79.6463 199.144 79.5057 199.428 79.4091C199.715 79.3097 200.017 79.2599 200.336 79.2599C200.853 79.2599 201.313 79.3821 201.716 79.6264C202.12 79.8679 202.438 80.2003 202.671 80.6236C202.904 81.0469 203.02 81.5312 203.02 82.0767C203.02 82.6676 202.882 83.1932 202.607 83.6534C202.334 84.1136 201.952 84.4744 201.461 84.7358C200.972 84.9943 200.404 85.1222 199.756 85.1193ZM199.748 83.6705C200.032 83.6705 200.286 83.6023 200.51 83.4659C200.735 83.3295 200.911 83.1449 201.039 82.9119C201.167 82.679 201.23 82.4176 201.23 82.1278C201.23 81.8381 201.167 81.5781 201.039 81.348C200.914 81.1179 200.74 80.9347 200.519 80.7983C200.297 80.6619 200.044 80.5938 199.76 80.5938C199.547 80.5938 199.35 80.6335 199.168 80.7131C198.989 80.7926 198.831 80.9034 198.695 81.0455C198.561 81.1875 198.456 81.3523 198.38 81.5398C198.303 81.7244 198.265 81.9219 198.265 82.1321C198.265 82.4134 198.328 82.6705 198.456 82.9034C198.587 83.1364 198.763 83.3224 198.985 83.4616C199.209 83.6009 199.463 83.6705 199.748 83.6705ZM204.674 85L208.292 77.8409V77.7812H204.077V76.2727H210.201V77.8026L206.578 85H204.674ZM210.63 83.4659V82.0128L214.273 76.2727H215.526V78.2841H214.785L212.488 81.919V81.9872H217.665V83.4659H210.63ZM214.819 85V83.0227L214.853 82.3793V76.2727H216.583V85H214.819ZM222.082 85.1193C221.48 85.1193 220.943 85.0085 220.472 84.7869C220.003 84.5653 219.631 84.2599 219.355 83.8707C219.08 83.4815 218.936 83.0355 218.925 82.5327H220.714C220.734 82.8707 220.876 83.1449 221.141 83.3551C221.405 83.5653 221.719 83.6705 222.082 83.6705C222.372 83.6705 222.628 83.6065 222.849 83.4787C223.074 83.348 223.249 83.1676 223.374 82.9375C223.501 82.7045 223.565 82.4375 223.565 82.1364C223.565 81.8295 223.5 81.5597 223.369 81.3267C223.241 81.0937 223.064 80.9119 222.837 80.7812C222.609 80.6506 222.349 80.5838 222.057 80.581C221.801 80.581 221.553 80.6335 221.311 80.7386C221.072 80.8437 220.886 80.9872 220.753 81.169L219.112 80.875L219.526 76.2727H224.861V77.7812H221.047L220.821 79.9673H220.872C221.026 79.7514 221.257 79.5724 221.567 79.4304C221.876 79.2884 222.223 79.2173 222.607 79.2173C223.132 79.2173 223.601 79.3409 224.013 79.5881C224.425 79.8352 224.75 80.1747 224.989 80.6065C225.227 81.0355 225.345 81.5298 225.342 82.0895C225.345 82.6776 225.209 83.2003 224.933 83.6577C224.661 84.1122 224.278 84.4702 223.787 84.7315C223.298 84.9901 222.73 85.1193 222.082 85.1193ZM226.497 83.4659V82.0128L230.141 76.2727H231.393V78.2841H230.652L228.355 81.919V81.9872H233.533V83.4659H226.497ZM230.686 85V83.0227L230.72 82.3793V76.2727H232.45V85H230.686ZM234.63 83.4659V82.0128L238.273 76.2727H239.526V78.2841H238.785L236.488 81.919V81.9872H241.665V83.4659H234.63ZM238.819 85V83.0227L238.853 82.3793V76.2727H240.583V85H238.819ZM246.082 85.1193C245.48 85.1193 244.943 85.0085 244.472 84.7869C244.003 84.5653 243.631 84.2599 243.355 83.8707C243.08 83.4815 242.936 83.0355 242.925 82.5327H244.714C244.734 82.8707 244.876 83.1449 245.141 83.3551C245.405 83.5653 245.719 83.6705 246.082 83.6705C246.372 83.6705 246.628 83.6065 246.849 83.4787C247.074 83.348 247.249 83.1676 247.374 82.9375C247.501 82.7045 247.565 82.4375 247.565 82.1364C247.565 81.8295 247.5 81.5597 247.369 81.3267C247.241 81.0937 247.064 80.9119 246.837 80.7812C246.609 80.6506 246.349 80.5838 246.057 80.581C245.801 80.581 245.553 80.6335 245.311 80.7386C245.072 80.8437 244.886 80.9872 244.753 81.169L243.112 80.875L243.526 76.2727H248.861V77.7812H245.047L244.821 79.9673H244.872C245.026 79.7514 245.257 79.5724 245.567 79.4304C245.876 79.2884 246.223 79.2173 246.607 79.2173C247.132 79.2173 247.601 79.3409 248.013 79.5881C248.425 79.8352 248.75 80.1747 248.989 80.6065C249.227 81.0355 249.345 81.5298 249.342 82.0895C249.345 82.6776 249.209 83.2003 248.933 83.6577C248.661 84.1122 248.278 84.4702 247.787 84.7315C247.298 84.9901 246.73 85.1193 246.082 85.1193Z" fill="black"/>
<path d="M253.672 85.1193C253.03 85.1193 252.483 84.9446 252.031 84.5952C251.58 84.2429 251.234 83.733 250.996 83.0653C250.757 82.3949 250.638 81.5852 250.638 80.6364C250.638 79.6932 250.757 78.8878 250.996 78.2202C251.237 77.5497 251.584 77.0384 252.036 76.6861C252.49 76.331 253.036 76.1534 253.672 76.1534C254.308 76.1534 254.852 76.331 255.304 76.6861C255.759 77.0384 256.105 77.5497 256.344 78.2202C256.585 78.8878 256.706 79.6932 256.706 80.6364C256.706 81.5852 256.587 82.3949 256.348 83.0653C256.109 83.733 255.764 84.2429 255.312 84.5952C254.861 84.9446 254.314 85.1193 253.672 85.1193ZM253.672 84.1818C254.308 84.1818 254.803 83.875 255.155 83.2614C255.507 82.6477 255.683 81.7727 255.683 80.6364C255.683 79.8807 255.602 79.2372 255.44 78.706C255.281 78.1747 255.051 77.7699 254.75 77.4915C254.452 77.2131 254.092 77.0739 253.672 77.0739C253.041 77.0739 252.548 77.3849 252.193 78.0071C251.838 78.6264 251.661 79.5028 251.661 80.6364C251.661 81.392 251.74 82.0341 251.899 82.5625C252.058 83.0909 252.287 83.4929 252.585 83.7685C252.886 84.044 253.249 84.1818 253.672 84.1818ZM261.393 76.2727V85H260.337V77.3807H260.286L258.155 78.7955V77.7216L260.337 76.2727H261.393Z" fill="black" fill-opacity="0.5"/>
</svg>
