<svg width="403" height="273" viewBox="0 0 403 273" fill="none" xmlns="http://www.w3.org/2000/svg">
<rect x="8" y="12" width="374.864" height="237.324" rx="10.7875" fill="#F8F4D2"/>
<path d="M8 22.7874C8 16.8297 12.8297 12 18.7875 12H372.076C378.034 12 382.864 16.8297 382.864 22.7875V56.4982H8V22.7874Z" fill="#D26339"/>
<path d="M8 238.537C8 244.494 12.8297 249.324 18.7875 249.324H372.076C378.034 249.324 382.864 244.494 382.864 238.537V194.038H8V238.537Z" fill="#D26339"/>
<rect x="25.5295" y="72.6794" width="151.024" height="16.1812" rx="8.09059" fill="black" fill-opacity="0.1"/>
<rect x="25.5295" y="26.8328" width="151.024" height="16.1812" rx="8.09059" fill="black" fill-opacity="0.1"/>
<rect x="25.5295" y="132.01" width="248.111" height="16.1812" rx="8.09059" fill="black" fill-opacity="0.1"/>
<rect x="25.5295" y="161.676" width="248.111" height="16.1812" rx="8.09059" fill="black" fill-opacity="0.1"/>
<rect x="25.5295" y="102.345" width="113.268" height="16.1812" rx="8.09059" fill="black" fill-opacity="0.1"/>
<rect x="25.5295" y="214.265" width="47.1951" height="16.1812" rx="8.09059" fill="black" fill-opacity="0.1"/>
<rect x="138.798" y="214.265" width="223.84" height="16.1812" rx="8.09059" fill="black" fill-opacity="0.1"/>
<rect x="273.641" y="72.6794" width="88.9965" height="16.1812" rx="8.09059" fill="black" fill-opacity="0.1"/>
<rect x="273.641" y="26.8328" width="88.9965" height="16.1812" rx="8.09059" fill="black" fill-opacity="0.1"/>
<path d="M380.167 246.627L8 12" stroke="white" stroke-width="26.9686"/>
<path d="M372.076 240.559L22.1584 20.7649" stroke="black" stroke-width="2.69686" stroke-dasharray="8.09 8.09"/>
<g clip-path="url(#clip0_876_5214)">
<path d="M378.917 248.021L364.667 247.725C364.444 247.72 364.321 247.99 364.477 248.152L366.454 250.219C366.5 250.267 366.564 250.297 366.629 250.296L378.857 250.55L378.761 254.587C377.984 254.784 377.244 255.177 376.623 255.771C374.707 257.604 374.64 260.647 376.474 262.563C378.307 264.479 381.35 264.546 383.266 262.713C385.181 260.879 385.248 257.836 383.415 255.921C382.81 255.288 382.075 254.858 381.293 254.631L381.388 250.603L385.419 250.687C385.618 251.506 386.031 252.256 386.614 252.864C388.447 254.78 391.49 254.847 393.406 253.013C395.322 251.18 395.388 248.137 393.555 246.221C391.722 244.306 388.679 244.239 386.763 246.072C386.142 246.666 385.717 247.388 385.486 248.156L381.448 248.074L381.733 235.847C381.735 235.78 381.709 235.717 381.663 235.669L379.684 233.6C379.528 233.438 379.253 233.543 379.248 233.771L378.917 248.021ZM381.773 257.496C382.737 258.503 382.702 260.107 381.695 261.071C380.688 262.034 379.083 261.999 378.12 260.992C377.156 259.985 377.192 258.381 378.199 257.418C379.205 256.454 380.81 256.489 381.773 257.496ZM391.911 247.795C392.875 248.802 392.84 250.406 391.833 251.369C390.826 252.333 389.221 252.298 388.258 251.291C387.294 250.284 387.33 248.68 388.337 247.716C389.343 246.752 390.948 246.788 391.911 247.795Z" fill="black"/>
</g>
<defs>
<clipPath id="clip0_876_5214">
<rect width="32.3624" height="32.3624" fill="white" transform="translate(379.618 272.157) rotate(-133.74)"/>
</clipPath>
</defs>
</svg>
