<svg width="278" height="176" viewBox="0 0 278 176" fill="none" xmlns="http://www.w3.org/2000/svg">
<path d="M0 8C0 3.58173 3.58172 0 8 0H270C274.418 0 278 3.58172 278 8V168C278 172.418 274.418 176 270 176H8.00001C3.58173 176 0 172.418 0 168V8Z" fill="#D26339"/>
<path d="M159 57C159 51.4772 163.477 47 169 47H245C250.523 47 255 51.4772 255 57V59C255 64.5228 250.523 69 245 69H169C163.477 69 159 64.5228 159 59V57Z" fill="black" fill-opacity="0.1"/>
<path d="M0 8C0 3.58172 3.58172 0 8 0H270C274.418 0 278 3.58172 278 8V33H0V8Z" fill="#D26339"/>
<path d="M0 168C0 172.418 3.58172 176 8 176H270C274.418 176 278 172.418 278 168V135H0V168Z" fill="#D26339"/>
<path d="M179.469 53.2727H180.73L183.696 60.517H183.799L186.764 53.2727H188.026V62H187.037V55.3693H186.952L184.225 62H183.27L180.543 55.3693H180.458V62H179.469V53.2727Z" fill="black"/>
<path d="M197.508 57.6363C197.508 58.5568 197.342 59.3522 197.01 60.0227C196.677 60.6932 196.221 61.2102 195.642 61.5738C195.062 61.9375 194.4 62.1193 193.656 62.1193C192.912 62.1193 192.25 61.9375 191.67 61.5738C191.091 61.2102 190.635 60.6932 190.302 60.0227C189.97 59.3522 189.804 58.5568 189.804 57.6363C189.804 56.7159 189.97 55.9204 190.302 55.25C190.635 54.5795 191.091 54.0625 191.67 53.6988C192.25 53.3352 192.912 53.1534 193.656 53.1534C194.4 53.1534 195.062 53.3352 195.642 53.6988C196.221 54.0625 196.677 54.5795 197.01 55.25C197.342 55.9204 197.508 56.7159 197.508 57.6363ZM196.486 57.6363C196.486 56.8807 196.359 56.2429 196.106 55.723C195.856 55.2031 195.517 54.8096 195.088 54.5426C194.662 54.2755 194.185 54.142 193.656 54.142C193.128 54.142 192.649 54.2755 192.22 54.5426C191.794 54.8096 191.454 55.2031 191.202 55.723C190.952 56.2429 190.827 56.8807 190.827 57.6363C190.827 58.392 190.952 59.0298 191.202 59.5497C191.454 60.0696 191.794 60.463 192.22 60.7301C192.649 60.9971 193.128 61.1307 193.656 61.1307C194.185 61.1307 194.662 60.9971 195.088 60.7301C195.517 60.463 195.856 60.0696 196.106 59.5497C196.359 59.0298 196.486 58.392 196.486 57.6363Z" fill="black"/>
<path d="M200.342 53.2727V62H199.285V53.2727H200.342Z" fill="black"/>
<path d="M205.376 53.2727V62H204.319V54.3807H204.268L202.137 55.7954V54.7216L204.319 53.2727H205.376Z" fill="black"/>
<path d="M207.886 62V61.2329L210.767 58.0795C211.105 57.7102 211.383 57.3892 211.602 57.1164C211.821 56.8409 211.982 56.5824 212.088 56.3409C212.196 56.0966 212.25 55.8409 212.25 55.5738C212.25 55.267 212.176 55.0014 212.028 54.777C211.883 54.5525 211.684 54.3792 211.431 54.2571C211.179 54.1349 210.894 54.0738 210.579 54.0738C210.244 54.0738 209.951 54.1434 209.701 54.2826C209.454 54.419 209.262 54.6108 209.126 54.8579C208.992 55.1051 208.926 55.3949 208.926 55.7272H207.92C207.92 55.2159 208.038 54.767 208.274 54.3807C208.509 53.9943 208.83 53.6932 209.237 53.4772C209.646 53.2613 210.105 53.1534 210.613 53.1534C211.125 53.1534 211.578 53.2613 211.973 53.4772C212.367 53.6932 212.677 53.9843 212.902 54.3508C213.126 54.7173 213.238 55.125 213.238 55.5738C213.238 55.8949 213.18 56.2088 213.063 56.5156C212.95 56.8196 212.751 57.1591 212.467 57.5341C212.186 57.9062 211.795 58.3608 211.295 58.8977L209.335 60.9943V61.0625H213.392V62H207.886Z" fill="black"/>
<path d="M218.1 62.1193C217.538 62.1193 217.036 62.0227 216.596 61.8295C216.159 61.6363 215.811 61.3679 215.552 61.0241C215.296 60.6775 215.157 60.2755 215.134 59.8182H216.208C216.231 60.0994 216.328 60.3423 216.498 60.5468C216.669 60.7486 216.892 60.9048 217.167 61.0156C217.443 61.1264 217.748 61.1818 218.083 61.1818C218.458 61.1818 218.791 61.1164 219.081 60.9858C219.37 60.8551 219.598 60.6733 219.762 60.4403C219.927 60.2074 220.009 59.9375 220.009 59.6307C220.009 59.3096 219.93 59.027 219.771 58.7826C219.612 58.5355 219.379 58.3423 219.072 58.2031C218.765 58.0639 218.39 57.9943 217.947 57.9943H217.248V57.0568H217.947C218.294 57.0568 218.598 56.9943 218.859 56.8693C219.123 56.7443 219.329 56.5682 219.477 56.3409C219.627 56.1136 219.703 55.8466 219.703 55.5397C219.703 55.2443 219.637 54.9872 219.507 54.7684C219.376 54.5497 219.191 54.3792 218.953 54.2571C218.717 54.1349 218.438 54.0738 218.117 54.0738C217.816 54.0738 217.532 54.1292 217.265 54.24C217.001 54.348 216.785 54.5057 216.617 54.713C216.45 54.9176 216.359 55.1647 216.345 55.4545H215.322C215.339 54.9971 215.477 54.5966 215.735 54.2528C215.994 53.9062 216.332 53.6363 216.75 53.4432C217.17 53.25 217.632 53.1534 218.134 53.1534C218.674 53.1534 219.137 53.2628 219.524 53.4815C219.91 53.6974 220.207 53.9829 220.414 54.338C220.622 54.6932 220.725 55.0767 220.725 55.4886C220.725 55.9801 220.596 56.3991 220.338 56.7457C220.082 57.0923 219.734 57.3324 219.294 57.4659V57.5341C219.845 57.625 220.275 57.8593 220.585 58.2372C220.894 58.6122 221.049 59.0767 221.049 59.6307C221.049 60.1051 220.92 60.5312 220.661 60.9091C220.406 61.2841 220.056 61.5795 219.613 61.7954C219.17 62.0113 218.666 62.1193 218.1 62.1193Z" fill="black"/>
<path d="M222.588 60.2102V59.3409L226.423 53.2727H227.054V54.6193H226.627L223.73 59.2045V59.2727H228.894V60.2102H222.588ZM226.696 62V53.2727H227.701V62H226.696Z" fill="black"/>
<path fill-rule="evenodd" clip-rule="evenodd" d="M214.607 32.5147L205.061 42.0607C204.475 42.6464 203.525 42.6464 202.939 42.0607L193.393 32.5147C192.808 31.9289 192.808 30.9792 193.393 30.3934C193.979 29.8076 194.929 29.8076 195.515 30.3934L202.5 37.3787L202.5 4L205.5 4L205.5 37.3787L212.485 30.3934C213.071 29.8076 214.021 29.8076 214.607 30.3934C215.192 30.9792 215.192 31.9289 214.607 32.5147Z" fill="black"/>
<path d="M16 26C16 20.4771 20.4772 16 26 16H128C133.523 16 138 20.4772 138 26V150C138 155.523 133.523 160 128 160H26C20.4772 160 16 155.523 16 150V26Z" fill="black" fill-opacity="0.1"/>
<path d="M159 89C159 85.6863 161.686 83 165 83H249C252.314 83 255 85.6863 255 89C255 92.3137 252.314 95 249 95H165C161.686 95 159 92.3137 159 89Z" fill="black" fill-opacity="0.1"/>
<path d="M159 111C159 107.686 161.686 105 165 105H249C252.314 105 255 107.686 255 111C255 114.314 252.314 117 249 117H165C161.686 117 159 114.314 159 111Z" fill="black" fill-opacity="0.1"/>
<path d="M173 27C173 23.6863 175.686 21 179 21H233C236.314 21 239 23.6863 239 27C239 30.3137 236.314 33 233 33H179C175.686 33 173 30.3137 173 27Z" fill="black" fill-opacity="0.1"/>
<rect x="173" y="133" width="1" height="27" fill="black"/>
<rect x="175" y="133" width="2" height="27" fill="black"/>
<rect x="178" y="133" width="3" height="27" fill="black"/>
<rect x="182" y="133" width="1" height="27" fill="black"/>
<rect x="184" y="133" width="1" height="27" fill="black"/>
<rect x="186" y="133" width="2" height="27" fill="black"/>
<rect x="195" y="133" width="1" height="27" fill="black"/>
<rect x="197" y="133" width="1" height="27" fill="black"/>
<rect x="199" y="133" width="2" height="27" fill="black"/>
<rect x="189" y="133" width="3" height="27" fill="black"/>
<rect x="193" y="133" width="1" height="27" fill="black"/>
<rect x="212" y="133" width="1" height="27" fill="black"/>
<rect x="214" y="133" width="2" height="27" fill="black"/>
<rect x="217" y="133" width="3" height="27" fill="black"/>
<rect x="221" y="133" width="1" height="27" fill="black"/>
<rect x="223" y="133" width="1" height="27" fill="black"/>
<rect x="225" y="133" width="2" height="27" fill="black"/>
<rect x="234" y="133" width="1" height="27" fill="black"/>
<rect x="236" y="133" width="1" height="27" fill="black"/>
<rect x="238" y="133" width="2" height="27" fill="black"/>
<rect x="228" y="133" width="3" height="27" fill="black"/>
<rect x="232" y="133" width="1" height="27" fill="black"/>
<rect x="208" y="133" width="1" height="27" fill="black"/>
<rect x="210" y="133" width="1" height="27" fill="black"/>
<rect x="202" y="133" width="3" height="27" fill="black"/>
<rect x="206" y="133" width="1" height="27" fill="black"/>
</svg>
