<svg width="403" height="272" viewBox="0 0 403 272" fill="none" xmlns="http://www.w3.org/2000/svg">
<rect x="8.00024" y="12" width="374.638" height="237.181" rx="10.7809" fill="#F8F4D2"/>
<path d="M8.00024 22.7809C8.00024 16.8268 12.827 12 18.7812 12H371.857C377.811 12 382.638 16.8268 382.638 22.7809V56.4714H8.00024V22.7809Z" fill="#D26339"/>
<path d="M8.00049 238.4C8.00049 244.354 12.8273 249.181 18.7814 249.181H371.858C377.812 249.181 382.638 244.354 382.638 238.4V193.929H8.00049V238.4Z" fill="#D26339"/>
<rect x="25.5195" y="72.6428" width="150.933" height="16.1714" rx="8.08571" fill="black" fill-opacity="0.1"/>
<rect x="25.5195" y="26.8237" width="150.933" height="16.1714" rx="8.08571" fill="black" fill-opacity="0.1"/>
<rect x="25.5195" y="131.938" width="247.962" height="16.1714" rx="8.08571" fill="black" fill-opacity="0.1"/>
<rect x="25.5195" y="161.586" width="247.962" height="16.1714" rx="8.08571" fill="black" fill-opacity="0.1"/>
<rect x="25.5195" y="102.291" width="113.2" height="16.1714" rx="8.08571" fill="black" fill-opacity="0.1"/>
<rect x="25.5195" y="214.143" width="47.1667" height="16.1714" rx="8.08571" fill="black" fill-opacity="0.1"/>
<rect x="138.719" y="214.143" width="223.705" height="16.1714" rx="8.08571" fill="black" fill-opacity="0.1"/>
<rect x="273.481" y="72.6428" width="88.9428" height="16.1714" rx="8.08571" fill="black" fill-opacity="0.1"/>
<rect x="273.481" y="26.8237" width="88.9428" height="16.1714" rx="8.08571" fill="black" fill-opacity="0.1"/>
<path d="M379.943 246.486L8.00024 12" stroke="white" stroke-width="26.9524"/>
<path d="M371.857 240.421L22.1501 20.7595" stroke="black" stroke-width="2.69524" stroke-dasharray="8.09 8.09"/>
<g clip-path="url(#clip0_896_2866)">
<path d="M378.694 247.878L364.453 247.583C364.229 247.578 364.107 247.848 364.262 248.01L366.239 250.075C366.285 250.123 366.349 250.153 366.413 250.153L378.634 250.406L378.539 254.44C377.761 254.638 377.022 255.03 376.402 255.624C374.487 257.456 374.42 260.498 376.252 262.412C378.084 264.327 381.126 264.394 383.04 262.562C384.955 260.729 385.022 257.688 383.189 255.774C382.585 255.142 381.85 254.712 381.069 254.485L381.164 250.459L385.192 250.543C385.391 251.361 385.803 252.112 386.386 252.719C388.219 254.633 391.26 254.7 393.174 252.868C395.089 251.036 395.156 247.995 393.324 246.08C391.491 244.166 388.45 244.099 386.536 245.931C385.915 246.525 385.49 247.246 385.259 248.014L381.224 247.932L381.509 235.712C381.51 235.645 381.485 235.582 381.439 235.534L379.46 233.466C379.305 233.304 379.03 233.41 379.025 233.638L378.694 247.878ZM381.549 257.348C382.512 258.355 382.476 259.958 381.47 260.921C380.464 261.884 378.861 261.849 377.897 260.842C376.934 259.836 376.97 258.233 377.976 257.27C378.982 256.307 380.586 256.342 381.549 257.348ZM391.681 247.653C392.644 248.659 392.608 250.262 391.602 251.225C390.596 252.188 388.992 252.153 388.029 251.146C387.066 250.14 387.102 248.537 388.108 247.574C389.114 246.611 390.718 246.646 391.681 247.653Z" fill="black"/>
</g>
<path fill-rule="evenodd" clip-rule="evenodd" d="M250.331 148.978L243.648 144.762C243.636 144.597 243.622 144.423 243.608 144.24C243.558 142.949 243.484 141.459 243.384 139.771C243.335 138.033 243.26 136.22 243.161 134.333C243.061 132.396 242.962 130.584 242.863 128.895C242.764 127.157 242.664 125.667 242.565 124.426C242.515 123.135 242.49 122.29 242.49 121.893V112.731C242.888 112.184 243.235 111.837 243.533 111.688C243.881 111.489 244.353 111.39 244.949 111.39C245.743 111.39 246.488 111.613 247.183 112.06C247.928 112.507 248.35 113.153 248.45 113.997C248.648 115.388 248.748 116.803 248.748 118.243C248.797 119.633 248.797 121.049 248.748 122.489C248.748 123.879 248.723 125.295 248.673 126.735C248.673 128.125 248.723 129.516 248.822 130.906C249.021 134.283 249.319 137.784 249.716 141.409C250.035 143.995 250.24 146.518 250.331 148.978ZM238.866 141.745L230.055 136.186L232.583 136.344C233.08 136.394 233.75 136.443 234.594 136.493C235.488 136.493 236.333 136.568 237.127 136.717C237.971 136.866 238.691 137.164 239.287 137.61C239.883 138.008 240.181 138.628 240.181 139.473C240.181 139.92 240.107 140.292 239.958 140.59C239.858 140.838 239.709 141.062 239.511 141.26C239.362 141.409 239.163 141.558 238.915 141.707C238.899 141.72 238.882 141.732 238.866 141.745ZM210.392 123.78C213.032 121.748 214.47 120.474 214.706 119.956C215.351 119.311 215.947 118.541 216.493 117.647C217.089 116.704 217.586 115.735 217.983 114.742C218.43 113.699 218.778 112.656 219.026 111.613C219.274 110.57 219.398 109.552 219.398 108.559C219.398 107.665 219.1 106.92 218.505 106.325C217.958 105.729 217.263 105.257 216.419 104.909C215.624 104.512 214.755 104.239 213.812 104.09C212.918 103.941 212.148 103.866 211.502 103.866C209.367 103.866 207.331 104.189 205.394 104.835C203.458 105.431 201.62 106.3 199.882 107.442H199.584L194.221 112.135C194.022 112.085 193.898 111.837 193.848 111.39C193.799 110.943 193.674 110.471 193.476 109.975C193.277 109.428 192.93 108.957 192.433 108.559C191.936 108.162 191.167 107.963 190.124 107.963C189.726 107.963 189.404 108.013 189.155 108.112C188.907 108.162 188.708 108.261 188.559 108.41C188.495 108.474 188.431 108.552 188.367 108.644C188.235 107.902 187.803 107.328 187.07 106.92C186.176 106.424 185.307 106.176 184.462 106.176C183.817 106.176 183.345 106.25 183.047 106.399C183.01 106.418 182.97 106.436 182.928 106.454L198.348 116.182C199.13 115.508 199.865 114.904 200.552 114.369C202.39 112.979 203.954 111.911 205.245 111.166C206.586 110.422 207.728 109.925 208.672 109.677C209.615 109.428 210.46 109.304 211.204 109.304H212.396C212.893 109.304 213.141 109.552 213.141 110.049C213.141 110.695 212.943 111.514 212.545 112.507C212.148 113.451 211.651 114.419 211.056 115.412C210.46 116.406 209.814 117.324 209.119 118.169C208.424 119.013 207.778 119.609 207.182 119.956C206.709 120.28 206.253 120.592 205.814 120.892L210.392 123.78ZM301.04 147.667C301.288 149.405 301.661 151.267 302.157 153.253C302.654 153.899 303.051 154.346 303.349 154.594C303.697 154.843 304.243 154.967 304.988 154.967C306.527 154.967 307.967 154.47 309.308 153.477C310.699 152.434 311.965 151.217 313.107 149.827C314.249 148.387 315.292 146.897 316.236 145.357C317.229 143.768 318.073 142.427 318.768 141.335C319.215 140.739 319.861 139.969 320.705 139.026C321.549 138.033 322.394 137.015 323.238 135.972C324.082 134.929 324.802 133.936 325.398 132.992C326.044 131.999 326.366 131.204 326.366 130.608C326.366 130.211 326.168 129.789 325.771 129.342C325.373 128.895 325.05 128.622 324.802 128.523C324.604 128.423 324.256 128.374 323.759 128.374C323.312 128.324 323.014 128.374 322.865 128.523C322.766 128.523 322.518 128.721 322.12 129.119C321.773 129.516 321.5 129.814 321.301 130.012C318.967 132.893 317.055 135.276 315.565 137.164C314.076 139.051 312.884 140.565 311.99 141.707C311.096 142.85 310.45 143.669 310.053 144.166C309.705 144.662 309.482 144.985 309.383 145.134C309.184 145.382 308.886 145.705 308.489 146.102C308.091 146.5 307.868 146.698 307.818 146.698H307.52C307.52 144.91 307.396 143.148 307.148 141.409C306.9 139.622 306.776 137.834 306.776 136.046V135.301V134.333C306.825 134.035 306.85 133.762 306.85 133.513V133.141L318.47 122.787C319.017 122.39 319.414 121.819 319.662 121.074C319.911 120.329 320.035 119.658 320.035 119.062C320.035 118.466 319.811 117.895 319.364 117.349C318.917 116.803 318.421 116.53 317.875 116.53C317.825 116.53 317.328 116.927 316.385 117.722C315.441 118.466 314.349 119.336 313.107 120.329C311.866 121.322 310.649 122.315 309.457 123.308C308.265 124.252 307.396 124.922 306.85 125.32L306.776 125.394H306.701C306.651 125.394 306.552 124.972 306.403 124.128C306.304 123.234 306.204 122.241 306.105 121.148C306.006 120.006 305.906 118.913 305.807 117.871C305.708 116.828 305.658 116.108 305.658 115.71C305.658 115.462 305.683 115.139 305.733 114.742C305.782 114.345 305.956 114.096 306.254 113.997L314.448 110.496L314.746 110.198L324.504 105.505C325.05 105.257 325.398 104.884 325.547 104.388C325.696 103.891 325.771 103.395 325.771 102.898C325.771 102.352 325.646 101.954 325.398 101.706C325.199 101.408 324.802 101.21 324.206 101.11C323.908 100.961 323.536 100.912 323.089 100.961C322.692 101.011 321.897 101.259 320.705 101.706C319.513 102.153 317.75 102.873 315.416 103.866C313.082 104.86 309.83 106.25 305.658 108.038C305.559 108.038 305.36 108.087 305.062 108.187C304.764 108.236 304.541 108.286 304.392 108.336H304.094C303.796 108.336 303.523 108.187 303.274 107.889C303.076 107.591 302.803 107.442 302.455 107.442C300.816 107.442 299.674 107.765 299.029 108.41C298.383 109.056 298.06 110.173 298.06 111.762C298.06 112.607 298.259 113.351 298.656 113.997C299.053 114.643 299.277 115.388 299.326 116.232C299.376 116.679 299.426 117.498 299.475 118.69C299.575 119.882 299.674 121.148 299.773 122.489C299.873 123.83 299.972 125.096 300.071 126.288C300.171 127.48 300.22 128.324 300.22 128.821V129.938C300.22 130.385 300.121 130.782 299.922 131.13C299.773 131.428 299.6 131.726 299.401 132.024C299.252 132.272 299.078 132.545 298.88 132.843C298.731 133.141 298.656 133.489 298.656 133.886C298.656 134.383 298.731 134.755 298.88 135.003C299.029 135.202 299.178 135.376 299.326 135.525C299.525 135.674 299.699 135.798 299.848 135.897C300.047 135.996 300.171 136.145 300.22 136.344C300.469 137.337 300.568 138.256 300.518 139.1C300.469 139.895 300.469 140.863 300.518 142.005C300.618 143.992 300.791 145.879 301.04 147.667ZM257.91 144.24C257.364 143.992 256.842 143.595 256.346 143.048C255.899 142.502 255.675 141.956 255.675 141.409C255.675 140.714 255.874 140.118 256.271 139.622C256.718 139.125 256.942 138.529 256.942 137.834C256.942 136.692 256.793 135.55 256.495 134.407C256.246 133.265 256.197 132.098 256.346 130.906L254.185 109.9V109.751C254.185 109.155 254.434 108.534 254.93 107.889C255.427 107.243 255.998 106.97 256.644 107.069C256.793 107.069 256.991 107.119 257.239 107.218C257.537 107.268 257.86 107.367 258.208 107.516C258.555 107.616 258.853 107.74 259.102 107.889C259.4 108.038 259.623 108.187 259.772 108.336C259.871 108.435 260.045 108.733 260.294 109.23C260.542 109.726 260.691 110.049 260.741 110.198C261.138 111.638 261.312 113.252 261.262 115.04C261.262 116.778 261.312 118.417 261.411 119.956C261.461 120.503 261.51 121.372 261.56 122.563C261.659 123.706 261.759 124.873 261.858 126.064C262.007 127.207 262.156 128.225 262.305 129.119C262.454 129.963 262.603 130.385 262.752 130.385L262.901 130.31C265.433 127.778 267.643 125.171 269.53 122.489C271.467 119.758 273.056 116.728 274.298 113.401C274.298 113.302 274.347 113.103 274.447 112.805L274.745 111.911C274.844 111.564 274.919 111.241 274.968 110.943C275.067 110.595 275.142 110.347 275.192 110.198L275.266 109.751C275.316 109.453 275.39 109.155 275.49 108.857C275.589 108.51 275.688 108.187 275.788 107.889C275.937 107.591 276.086 107.442 276.235 107.442H279.661C280.009 107.442 280.282 107.566 280.48 107.814C280.729 108.063 280.927 108.361 281.076 108.708C281.225 109.056 281.325 109.403 281.374 109.751C281.424 110.049 281.449 110.297 281.449 110.496C281.449 110.546 281.399 110.67 281.3 110.868C281.25 111.017 281.201 111.117 281.151 111.166V111.762C280.754 113.153 280.331 114.419 279.885 115.561C279.438 116.704 278.941 117.821 278.395 118.913C277.898 120.006 277.327 121.098 276.681 122.191C276.036 123.283 275.341 124.451 274.596 125.692C274.347 126.089 273.95 126.536 273.404 127.033C272.858 127.48 272.51 127.976 272.361 128.523L265.508 136.642L264.54 138.579H264.837C266.973 138.033 269.009 137.635 270.946 137.387C272.932 137.139 274.894 136.965 276.83 136.866C278.767 136.766 280.729 136.717 282.715 136.717C284.702 136.717 286.812 136.692 289.047 136.642H289.568L290.462 136.493C290.76 136.443 291.033 136.419 291.282 136.419C291.579 136.369 291.778 136.344 291.877 136.344H292.548C293.094 136.344 293.69 136.443 294.336 136.642C295.031 136.841 295.478 137.288 295.676 137.983C295.875 138.529 295.776 139.125 295.378 139.771C295.031 140.367 294.609 140.789 294.112 141.037C293.963 141.087 293.69 141.136 293.293 141.186C292.945 141.236 292.573 141.31 292.175 141.409C291.778 141.459 291.406 141.534 291.058 141.633C290.71 141.683 290.462 141.707 290.313 141.707H289.345C288.302 141.757 286.986 141.782 285.397 141.782C283.857 141.782 282.368 141.807 280.927 141.856C279.239 141.906 277.451 141.956 275.564 142.005L264.54 144.24V144.687C264.54 145.78 264.689 146.847 264.986 147.89C265.334 148.933 265.508 150.001 265.508 151.093C265.508 152.086 265.26 152.98 264.763 153.775C264.266 154.52 263.447 154.892 262.305 154.892C261.709 154.892 261.063 154.569 260.368 153.924C259.673 153.278 259.251 152.657 259.102 152.062L257.91 144.24Z" fill="black"/>
<path fill-rule="evenodd" clip-rule="evenodd" d="M192.396 144.178L199.099 148.407C199.151 149.59 199.177 150.759 199.177 151.913C199.177 152.906 198.979 153.651 198.581 154.147C198.184 154.644 197.414 154.892 196.272 154.892C195.329 154.892 194.608 154.57 194.112 153.924C193.615 153.278 193.243 152.509 192.994 151.615C192.796 150.721 192.672 149.827 192.622 148.933C192.572 147.99 192.548 147.245 192.548 146.698C192.548 146.301 192.498 145.482 192.399 144.24C192.398 144.22 192.397 144.199 192.396 144.178ZM179.825 136.247L188.079 141.455C187.971 141.539 187.846 141.623 187.706 141.708C187.507 141.857 187.308 142.055 187.11 142.303H184.577C183.584 142.204 182.541 142.08 181.448 141.931C180.406 141.782 179.164 141.608 177.724 141.41C176.333 141.211 174.695 141.012 172.808 140.814C170.921 140.615 168.661 140.441 166.029 140.292C163.397 140.143 160.318 140.019 156.792 139.92C153.316 139.82 149.269 139.771 144.65 139.771C144.601 139.771 144.526 139.845 144.427 139.994C144.377 140.143 144.352 140.267 144.352 140.367C144.352 142.254 144.501 144.116 144.799 145.954C145.147 147.741 145.321 149.529 145.321 151.317C145.321 151.664 145.271 152.062 145.172 152.509C145.122 152.906 144.998 153.303 144.799 153.701C144.601 154.048 144.352 154.346 144.054 154.594C143.756 154.843 143.384 154.967 142.937 154.967C142.639 154.967 142.291 154.917 141.894 154.818C141.497 154.669 141.1 154.47 140.702 154.222C140.355 153.974 140.032 153.7 139.734 153.403C139.436 153.105 139.262 152.757 139.213 152.36L138.021 137.611C137.723 136.965 137.474 136.444 137.276 136.046C137.127 135.649 137.052 135.177 137.052 134.631C137.052 134.184 137.102 133.787 137.201 133.439C137.35 133.042 137.425 132.62 137.425 132.173C137.425 131.08 137.375 130.062 137.276 129.119C137.226 128.175 137.152 127.132 137.052 125.99C137.003 125.841 136.829 125.717 136.531 125.618C136.233 125.518 135.91 125.394 135.562 125.245C135.215 125.047 134.892 124.773 134.594 124.426C134.346 124.078 134.222 123.582 134.222 122.936C134.222 122.34 134.346 121.843 134.594 121.446C134.892 120.999 135.19 120.602 135.488 120.254C135.786 119.857 136.059 119.46 136.307 119.063C136.605 118.616 136.754 118.094 136.754 117.498C136.754 117.25 136.729 116.803 136.68 116.157C136.63 115.462 136.581 114.742 136.531 113.997C136.531 113.252 136.506 112.557 136.456 111.911V110.941C136.024 111.348 135.502 111.622 134.892 111.762L120.739 115.338V116.008C120.739 117.548 120.863 119.063 121.111 120.552C121.409 122.042 121.509 123.532 121.409 125.022L123.942 148.039V149.678C123.942 150.274 123.917 150.895 123.868 151.54C123.868 152.136 123.768 152.682 123.57 153.179C123.421 153.676 123.147 154.098 122.75 154.445C122.353 154.743 121.757 154.892 120.962 154.892C120.366 154.892 119.721 154.644 119.026 154.147C118.38 153.651 118.032 153.055 117.983 152.36L115.152 122.787V122.191C115.102 121.794 115.028 121.297 114.929 120.701C114.879 120.056 114.805 119.46 114.705 118.914C114.656 118.318 114.606 117.821 114.556 117.424L114.482 116.828H113.886L105.394 119.36C105.146 119.758 104.724 119.956 104.128 119.956H102.861C102.166 119.956 101.446 119.658 100.701 119.063C100.006 118.417 99.6582 117.722 99.6582 116.977C99.6582 116.431 99.832 115.909 100.18 115.413C100.577 114.866 101.049 114.494 101.595 114.295L113.588 110.496C113.737 109.95 114.01 109.404 114.407 108.857C114.854 108.261 115.425 107.963 116.121 107.963C116.816 107.963 117.387 108.137 117.834 108.485C118.33 108.833 118.877 109.106 119.473 109.304C119.92 109.255 120.664 109.106 121.707 108.857C122.75 108.609 123.843 108.361 124.985 108.112C126.177 107.814 127.294 107.541 128.337 107.293C129.38 107.045 130.1 106.871 130.497 106.772C131.093 106.672 131.54 106.548 131.838 106.399C131.959 106.339 132.108 106.291 132.285 106.255L147.513 115.862C146.161 117.01 144.66 118.375 143.012 119.956V121.148C143.012 122.39 143.036 123.557 143.086 124.649C143.136 125.742 143.21 126.934 143.309 128.225H143.533C143.583 128.225 143.707 128.175 143.905 128.076C144.104 127.977 144.601 127.679 145.395 127.182C146.19 126.636 147.406 125.816 149.045 124.724C150.506 123.705 152.5 122.332 155.028 120.603L159.579 123.474C159.309 123.683 159.026 123.901 158.729 124.128C155.799 126.363 151.429 129.69 145.619 134.11L179.825 136.247ZM73.5121 149.753C72.5685 150.299 71.6995 151.118 70.9049 152.211C70.9049 152.956 71.2029 153.601 71.7988 154.147C72.3947 154.644 73.0403 154.892 73.7356 154.892C75.7716 154.743 77.8325 154.247 79.9183 153.403C82.0536 152.509 84.1145 151.441 86.1009 150.199C88.0874 148.908 89.9248 147.518 91.6132 146.028C93.3513 144.538 94.8411 143.098 96.0826 141.708C96.4799 141.31 96.7779 140.739 96.9765 139.994C97.2248 139.249 97.349 138.604 97.349 138.058C97.2993 136.617 96.5544 135.475 95.1143 134.631C93.6741 133.787 91.8615 133.116 89.6765 132.62C87.4914 132.123 85.0829 131.751 82.4509 131.502C79.8686 131.254 77.3856 131.006 75.0019 130.757C72.6679 130.509 70.6318 130.211 68.8937 129.864C67.1556 129.516 66.0382 128.995 65.5416 128.299V128.225C65.492 127.43 65.7403 126.71 66.2865 126.065C66.8825 125.369 67.677 124.724 68.6702 124.128C69.7131 123.532 70.9049 122.961 72.2458 122.415C73.6362 121.819 75.1012 121.198 76.6407 120.552C76.74 120.503 77.0628 120.403 77.6091 120.254C78.1553 120.105 78.7761 119.932 79.4713 119.733C80.1666 119.534 80.8618 119.36 81.557 119.212C82.2523 119.013 82.7985 118.864 83.1958 118.765C83.8414 118.616 84.487 118.491 85.1326 118.392C85.7782 118.243 86.3492 118.069 86.8459 117.871C87.3921 117.622 87.8142 117.3 88.1122 116.902C88.4598 116.455 88.6336 115.81 88.6336 114.966C88.6336 114.37 88.4101 113.799 87.9632 113.252C87.5163 112.706 86.9452 112.433 86.2499 112.433C84.8594 112.632 83.4441 113.029 82.004 113.625C80.6135 114.171 79.223 114.494 77.8325 114.593C76.591 114.941 75.2005 115.338 73.6611 115.785C72.1713 116.232 70.6815 116.753 69.1917 117.349C67.7019 117.945 66.3114 118.64 65.0202 119.435C63.729 120.23 62.6862 121.123 61.8916 122.117C61.6433 122.415 61.3702 122.812 61.0722 123.308C60.7743 123.805 60.4763 124.351 60.1783 124.947C59.93 125.543 59.7066 126.139 59.5079 126.735C59.3093 127.331 59.21 127.877 59.21 128.374C59.21 129.665 59.5576 130.733 60.2528 131.577C60.9481 132.421 62.3386 133.166 64.4243 133.812C66.5597 134.457 69.5641 135.078 73.4376 135.674C77.3608 136.22 82.5254 136.866 88.9316 137.611C89.0309 137.66 89.3537 137.76 89.9 137.909C90.4462 138.058 90.8435 138.182 91.0918 138.281L91.2408 138.43C91.2408 138.48 91.2904 138.504 91.3898 138.504C91.4394 138.504 91.4642 138.529 91.4642 138.579C91.4642 139.076 91.0918 139.672 90.3469 140.367C89.6517 141.062 88.8074 141.782 87.8142 142.527C86.8707 143.222 85.9023 143.868 84.9091 144.464C83.9159 145.06 83.1462 145.507 82.5999 145.805C81.6067 146.549 80.5887 147.096 79.5458 147.443C78.5526 147.741 77.5346 148.064 76.4917 148.412C75.4985 148.759 74.5053 149.206 73.5121 149.753Z" fill="black"/>
<defs>
<clipPath id="clip0_896_2866">
<rect width="32.3428" height="32.3428" fill="white" transform="translate(379.395 272) rotate(-133.74)"/>
</clipPath>
</defs>
</svg>
