<svg width="403" height="273" viewBox="0 0 403 273" fill="none" xmlns="http://www.w3.org/2000/svg">
<rect x="8" y="12" width="374.864" height="237.324" rx="10.7875" fill="#F8F4D2"/>
<path d="M8 22.7874C8 16.8297 12.8297 12 18.7875 12H372.076C378.034 12 382.864 16.8297 382.864 22.7875V56.4982H8V22.7874Z" fill="#D26339"/>
<path d="M8 238.537C8 244.494 12.8297 249.324 18.7875 249.324H372.076C378.034 249.324 382.864 244.494 382.864 238.537V194.038H8V238.537Z" fill="#D26339"/>
<rect x="25.5295" y="72.6794" width="151.024" height="16.1812" rx="8.09059" fill="black" fill-opacity="0.1"/>
<rect x="25.5295" y="26.8328" width="151.024" height="16.1812" rx="8.09059" fill="black" fill-opacity="0.1"/>
<rect x="25.5295" y="132.01" width="248.111" height="16.1812" rx="8.09059" fill="black" fill-opacity="0.1"/>
<rect x="25.5295" y="161.676" width="248.111" height="16.1812" rx="8.09059" fill="black" fill-opacity="0.1"/>
<rect x="25.5295" y="102.345" width="113.268" height="16.1812" rx="8.09059" fill="black" fill-opacity="0.1"/>
<rect x="25.5295" y="214.265" width="47.1951" height="16.1812" rx="8.09059" fill="black" fill-opacity="0.1"/>
<rect x="138.798" y="214.265" width="223.84" height="16.1812" rx="8.09059" fill="black" fill-opacity="0.1"/>
<rect x="273.641" y="72.6794" width="88.9965" height="16.1812" rx="8.09059" fill="black" fill-opacity="0.1"/>
<rect x="273.641" y="26.8328" width="88.9965" height="16.1812" rx="8.09059" fill="black" fill-opacity="0.1"/>
<path d="M380.167 246.627L8 12" stroke="white" stroke-width="26.9686"/>
<path d="M372.076 240.559L22.1584 20.7649" stroke="black" stroke-width="2.69686" stroke-dasharray="8.09 8.09"/>
<g clip-path="url(#clip0_876_5213)">
<path d="M378.917 248.021L364.667 247.725C364.444 247.72 364.321 247.99 364.477 248.152L366.454 250.219C366.5 250.267 366.564 250.297 366.629 250.296L378.857 250.55L378.761 254.587C377.984 254.784 377.244 255.177 376.623 255.771C374.707 257.604 374.64 260.647 376.474 262.563C378.307 264.479 381.35 264.546 383.266 262.713C385.181 260.879 385.248 257.836 383.415 255.921C382.81 255.288 382.075 254.858 381.293 254.631L381.388 250.603L385.419 250.687C385.618 251.506 386.031 252.256 386.614 252.864C388.447 254.78 391.49 254.847 393.406 253.013C395.322 251.18 395.388 248.137 393.555 246.221C391.722 244.306 388.679 244.239 386.763 246.072C386.142 246.666 385.717 247.388 385.486 248.156L381.448 248.074L381.733 235.847C381.735 235.78 381.709 235.717 381.663 235.669L379.684 233.6C379.528 233.438 379.253 233.543 379.248 233.771L378.917 248.021ZM381.773 257.496C382.737 258.503 382.702 260.107 381.695 261.071C380.688 262.034 379.083 261.999 378.12 260.992C377.156 259.985 377.192 258.381 378.199 257.418C379.205 256.454 380.81 256.489 381.773 257.496ZM391.911 247.795C392.875 248.802 392.84 250.406 391.833 251.369C390.826 252.333 389.221 252.298 388.258 251.291C387.294 250.284 387.33 248.68 388.337 247.716C389.343 246.752 390.948 246.788 391.911 247.795Z" fill="black"/>
</g>
<path fill-rule="evenodd" clip-rule="evenodd" d="M173.609 132.48C173.506 134.449 173.471 136.033 173.504 137.234C173.544 138.651 173.664 139.623 173.865 140.149C174.065 140.675 174.266 141.04 174.466 141.242C174.948 141.445 175.409 141.506 175.85 141.425C176.331 141.303 176.893 140.918 177.535 140.271C178.176 139.623 178.938 138.631 179.821 137.294C179.956 137.093 180.094 136.882 180.237 136.662L183.032 138.425C182.784 138.858 182.516 139.311 182.227 139.785C181.626 140.837 180.904 141.85 180.061 142.822C179.259 143.753 178.377 144.543 177.414 145.19C176.492 145.838 175.489 146.162 174.406 146.162C173.043 146.162 171.96 145.757 171.158 144.947C170.355 144.138 169.734 143.146 169.293 141.971C168.891 140.756 168.631 139.501 168.51 138.205C168.39 136.869 168.33 135.675 168.33 134.622V133.043C168.37 132.719 168.41 132.233 168.45 131.585C168.53 130.937 168.611 130.208 168.691 129.398C168.692 129.392 168.693 129.386 168.694 129.379L173.609 132.48ZM132.909 106.803H132.714L128.383 110.63C128.222 110.589 128.122 110.387 128.082 110.022C128.042 109.658 127.942 109.273 127.781 108.868C127.621 108.423 127.34 108.038 126.939 107.714C126.538 107.39 125.916 107.228 125.074 107.228C124.753 107.228 124.492 107.269 124.292 107.35C124.091 107.39 123.931 107.471 123.811 107.593C123.69 107.714 123.57 107.896 123.45 108.139C123.369 108.382 123.249 108.686 123.089 109.05V109.293V110.447C123.129 110.974 123.149 111.541 123.149 112.148C123.189 112.756 123.229 113.343 123.269 113.91C123.309 114.436 123.329 114.8 123.329 115.003C123.329 115.489 123.209 115.914 122.968 116.278C122.768 116.602 122.547 116.926 122.307 117.25C122.066 117.534 121.825 117.858 121.585 118.222C121.384 118.546 121.284 118.951 121.284 119.437C121.284 119.963 121.384 120.368 121.585 120.652C121.825 120.935 122.086 121.158 122.367 121.32C122.647 121.441 122.908 121.543 123.149 121.624C123.389 121.704 123.53 121.806 123.57 121.927C123.65 122.859 123.71 123.709 123.75 124.478C123.831 125.248 123.871 126.078 123.871 126.969C123.871 127.333 123.811 127.677 123.69 128.001C123.61 128.285 123.57 128.609 123.57 128.973C123.57 129.418 123.63 129.803 123.75 130.127C123.911 130.451 124.111 130.876 124.352 131.403L125.315 143.429C125.355 143.753 125.495 144.036 125.736 144.279C125.976 144.522 126.237 144.745 126.518 144.947C126.839 145.15 127.16 145.312 127.48 145.433C127.801 145.514 128.082 145.555 128.323 145.555C128.684 145.555 128.984 145.454 129.225 145.251C129.466 145.049 129.666 144.806 129.827 144.522C129.987 144.198 130.087 143.874 130.128 143.55C130.208 143.186 130.248 142.862 130.248 142.579C130.248 141.121 130.107 139.663 129.827 138.205C129.586 136.707 129.466 135.189 129.466 133.65C129.466 133.569 129.486 133.468 129.526 133.346C129.606 133.225 129.666 133.164 129.706 133.164C133.436 133.164 136.705 133.204 139.513 133.285C142.36 133.366 144.847 133.468 146.973 133.589C149.098 133.711 150.923 133.852 152.447 134.014C153.971 134.176 155.295 134.338 156.418 134.5C157.581 134.662 158.584 134.804 159.426 134.925C160.308 135.047 161.151 135.148 161.953 135.229H163.998C164.159 135.027 164.319 134.865 164.48 134.743C164.68 134.622 164.841 134.5 164.961 134.379C165.121 134.217 165.242 134.035 165.322 133.832C165.442 133.589 165.502 133.285 165.502 132.921C165.502 132.233 165.262 131.726 164.78 131.403C164.299 131.038 163.718 130.795 163.036 130.674C162.394 130.552 161.712 130.491 160.99 130.491C160.308 130.451 159.767 130.41 159.366 130.37L130.489 128.548C135.181 124.944 138.711 122.231 141.077 120.409C143.443 118.587 144.727 117.453 144.927 117.007C145.419 116.511 145.875 115.925 146.295 115.248L142.307 112.732C142.202 112.921 142.093 113.111 141.979 113.302C141.498 114.112 140.977 114.861 140.415 115.55C139.854 116.238 139.332 116.724 138.851 117.007C136.444 118.668 134.579 119.963 133.256 120.895C131.932 121.785 130.95 122.454 130.308 122.899C129.666 123.304 129.265 123.547 129.105 123.628C128.944 123.709 128.844 123.749 128.804 123.749H128.624C128.543 122.697 128.483 121.725 128.443 120.834C128.403 119.943 128.383 118.991 128.383 117.979V117.007C130.348 115.104 132.053 113.586 133.497 112.452C134.981 111.318 136.244 110.447 137.287 109.84C137.365 109.796 137.442 109.753 137.519 109.712L132.909 106.803ZM184.342 139.252L189.791 142.69C189.853 143.139 189.919 143.588 189.988 144.036C189.988 144.239 190.028 144.664 190.108 145.312C190.229 145.919 190.349 146.587 190.469 147.316C190.59 148.045 190.69 148.713 190.77 149.321C190.89 149.928 190.971 150.313 191.011 150.475V151.204C191.011 152.661 190.229 153.451 188.664 153.572C187.983 153.653 187.401 153.35 186.92 152.661C186.479 152.013 186.118 151.143 185.837 150.05C185.556 148.997 185.315 147.802 185.115 146.466C184.955 145.13 184.814 143.834 184.694 142.579C184.576 141.354 184.459 140.245 184.342 139.252ZM54.8658 142.579C54.6251 142.862 54.5048 143.186 54.5048 143.55C54.5048 144.158 54.6853 144.644 55.0463 145.008C55.4473 145.332 55.9487 145.494 56.5503 145.494C57.2722 145.494 57.8137 145.373 58.1747 145.13C58.5757 144.887 59.057 144.482 59.6185 143.915L71.0492 132.435C72.6936 130.775 73.957 128.791 74.8393 126.483C75.7217 124.175 76.1629 121.866 76.1629 119.558C76.1629 117.007 75.6615 115.003 74.6588 113.545C73.6963 112.087 72.4329 110.994 70.8687 110.265C69.3045 109.496 67.5398 109.01 65.5745 108.807C63.6092 108.565 61.6239 108.403 59.6185 108.322C59.6987 107.917 59.6386 107.552 59.438 107.228C59.2776 106.904 59.0169 106.641 58.6559 106.439C58.3351 106.236 57.9741 106.074 57.573 105.953C57.2121 105.831 56.8712 105.771 56.5503 105.771C55.3471 105.771 54.6452 106.115 54.4447 106.803C54.2441 107.491 54.184 108.403 54.2642 109.536L54.0235 109.84L47.9472 112.877C47.867 113.039 47.7467 113.241 47.5863 113.484C47.4659 113.687 47.3055 113.849 47.105 113.97V115.793C47.105 115.954 47.2654 116.096 47.5863 116.218C47.9071 116.299 48.1077 116.4 48.1879 116.521H49.1505C49.6719 116.521 50.1532 116.44 50.5943 116.278C51.0355 116.076 51.4566 115.874 51.8577 115.671C52.2588 115.428 52.6398 115.226 53.0008 115.064C53.3618 114.861 53.7428 114.76 54.1438 114.76C54.1438 118.485 54.1238 122.17 54.0837 125.815C54.0436 129.459 54.0235 133.144 54.0235 136.869C54.0235 137.557 54.0436 138.286 54.0837 139.056C54.1238 139.825 54.3444 140.513 54.7455 141.121C54.7856 141.161 54.8858 141.242 55.0463 141.364C55.2067 141.485 55.2869 141.587 55.2869 141.668C55.2869 141.991 55.1465 142.295 54.8658 142.579ZM59.6185 137.932L59.8592 137.78C59.8993 137.74 60.0397 137.618 60.2803 137.416C60.5611 137.173 60.8619 136.91 61.1827 136.626C61.5036 136.302 61.8244 135.999 62.1453 135.715C62.4662 135.432 62.7269 135.189 62.9274 134.986C63.8499 134.014 64.8124 132.982 65.8151 131.888C66.8579 130.795 67.8005 129.641 68.6427 128.426C69.485 127.171 70.1668 125.875 70.6882 124.539C71.2497 123.162 71.5305 121.725 71.5305 120.226C71.5305 118.809 71.2698 117.615 70.7484 116.643C70.227 115.631 69.5251 114.821 68.6427 114.213C67.8005 113.565 66.7978 113.1 65.6347 112.816C64.4715 112.533 63.2282 112.391 61.9047 112.391C61.7843 112.391 61.4234 112.432 60.8217 112.513C60.2602 112.553 59.8592 112.675 59.6185 112.877V137.932ZM79.7124 110.265C79.4717 110.387 79.191 110.67 78.8701 111.116V118.587C78.8701 118.91 78.8902 119.599 78.9303 120.652C79.0105 121.664 79.0907 122.879 79.1709 124.296C79.2512 125.673 79.3314 127.151 79.4116 128.73C79.4918 130.269 79.552 131.747 79.5921 133.164C79.6723 134.541 79.7324 135.756 79.7726 136.808C79.8528 137.821 79.8929 138.489 79.8929 138.813C79.8929 139.258 79.9129 139.866 79.953 140.635C79.9931 141.364 80.0934 142.093 80.2538 142.822C80.4544 143.55 80.7552 144.178 81.1563 144.704C81.5573 145.231 82.1389 145.494 82.9009 145.494C83.8234 145.494 84.4451 145.292 84.7659 144.887C85.0868 144.482 85.2472 143.874 85.2472 143.065C85.2472 140.311 85.0667 137.456 84.7058 134.5C84.3849 131.544 84.1443 128.69 83.9838 125.936C83.9036 124.802 83.8635 123.668 83.8635 122.535C83.9036 121.36 83.9237 120.206 83.9237 119.072C83.9638 117.898 83.9638 116.744 83.9237 115.61C83.9237 114.436 83.8435 113.282 83.683 112.148C83.6028 111.46 83.2619 110.933 82.6603 110.569C82.0988 110.204 81.4972 110.022 80.8555 110.022C80.3742 110.022 79.9931 110.103 79.7124 110.265ZM97.1592 143.307C97.8009 142.417 98.5028 141.749 99.2648 141.303C100.067 140.858 100.869 140.493 101.671 140.21C102.514 139.926 103.336 139.663 104.138 139.42C104.98 139.137 105.802 138.691 106.604 138.084C107.046 137.841 107.667 137.477 108.469 136.991C109.272 136.505 110.054 135.978 110.816 135.411C111.618 134.804 112.3 134.217 112.861 133.65C113.463 133.083 113.764 132.597 113.764 132.192C113.764 132.152 113.744 132.131 113.704 132.131C113.623 132.131 113.583 132.111 113.583 132.071L113.463 131.949C113.262 131.868 112.941 131.767 112.5 131.646C112.059 131.524 111.798 131.443 111.718 131.403C106.544 130.795 102.373 130.269 99.2046 129.823C96.0763 129.337 93.6497 128.831 91.9251 128.305C90.2406 127.778 89.1176 127.171 88.5561 126.483C87.9946 125.794 87.7138 124.924 87.7138 123.871C87.7138 123.466 87.7941 123.021 87.9545 122.535C88.1149 122.049 88.2954 121.563 88.4959 121.077C88.7366 120.591 88.9772 120.146 89.2179 119.741C89.4585 119.336 89.6791 119.012 89.8796 118.769C90.5214 117.959 91.3636 117.23 92.4064 116.582C93.4492 115.934 94.5722 115.367 95.7754 114.881C96.9787 114.396 98.1819 113.97 99.3851 113.606C100.628 113.241 101.751 112.918 102.754 112.634C103.877 112.553 105 112.29 106.123 111.844C107.286 111.359 108.429 111.035 109.552 110.873C110.114 110.873 110.575 111.095 110.936 111.541C111.297 111.986 111.478 112.452 111.478 112.938C111.478 113.626 111.337 114.153 111.056 114.517C110.816 114.841 110.475 115.104 110.034 115.307C109.633 115.469 109.171 115.61 108.65 115.732C108.129 115.813 107.607 115.914 107.086 116.035C106.765 116.116 106.324 116.238 105.762 116.4C105.201 116.521 104.639 116.663 104.078 116.825C103.516 116.987 103.015 117.129 102.574 117.25C102.132 117.372 101.872 117.453 101.792 117.493C100.548 118.02 99.3651 118.526 98.2421 119.012C97.1592 119.457 96.1966 119.923 95.3543 120.409C94.5522 120.895 93.9104 121.421 93.4292 121.988C92.988 122.514 92.7874 123.101 92.8275 123.749V123.81C93.2286 124.377 94.131 124.802 95.5348 125.086C96.9386 125.369 98.583 125.612 100.468 125.815C102.393 126.017 104.399 126.219 106.484 126.422C108.61 126.624 110.555 126.928 112.32 127.333C114.085 127.738 115.548 128.285 116.712 128.973C117.875 129.661 118.476 130.593 118.516 131.767C118.516 132.212 118.416 132.739 118.216 133.346C118.055 133.954 117.815 134.419 117.494 134.743C116.491 135.877 115.288 137.051 113.884 138.266C112.52 139.481 111.036 140.615 109.432 141.668C107.828 142.68 106.163 143.55 104.439 144.279C102.754 144.968 101.09 145.373 99.4453 145.494C98.8838 145.494 98.3624 145.292 97.8811 144.887C97.3998 144.441 97.1592 143.915 97.1592 143.307Z" fill="black"/>
<path fill-rule="evenodd" clip-rule="evenodd" d="M190.025 110.94L179.803 104.491C181.188 104.089 182.634 103.888 184.142 103.888C184.663 103.888 185.285 103.948 186.007 104.07C186.769 104.191 187.471 104.414 188.113 104.738C188.794 105.022 189.356 105.406 189.797 105.892C190.278 106.378 190.519 106.985 190.519 107.714C190.519 108.524 190.419 109.354 190.218 110.205C190.16 110.45 190.096 110.695 190.025 110.94ZM230.953 136.761C230.818 135.512 230.656 134.273 230.466 133.043V115.125C230.466 114.882 230.346 114.639 230.105 114.396C229.865 114.153 229.584 113.93 229.263 113.728C228.942 113.485 228.621 113.302 228.3 113.181C227.979 113.059 227.739 112.999 227.578 112.999C227.177 112.999 226.796 113.12 226.435 113.363C226.074 113.606 225.814 113.93 225.653 114.335C225.533 117.007 225.433 119.7 225.352 122.413C225.312 125.126 225.332 127.819 225.413 130.492C225.372 130.613 225.292 130.836 225.172 131.16C225.092 131.484 225.012 131.706 224.931 131.828C224.77 132.113 224.611 132.391 224.456 132.662L230.953 136.761ZM215.815 127.211L211.032 124.193C211.033 124.187 211.033 124.181 211.034 124.175C211.154 123.324 211.235 122.575 211.275 121.927L211.455 120.47C211.295 120.065 211.235 119.66 211.275 119.255C211.355 118.809 211.495 118.425 211.696 118.101C211.936 117.736 212.237 117.453 212.598 117.25C212.959 117.007 213.36 116.886 213.801 116.886C213.922 116.886 214.122 116.926 214.403 117.007C214.724 117.088 215.045 117.21 215.366 117.372C215.687 117.534 215.967 117.716 216.208 117.919C216.449 118.08 216.569 118.242 216.569 118.404V120.713C216.255 123.157 216.004 125.323 215.815 127.211ZM322.453 130.492C322.373 132.962 322.332 135.432 322.332 137.902V143.186C322.653 143.875 323.034 144.441 323.475 144.887C323.957 145.292 324.598 145.494 325.401 145.494C325.842 145.494 326.263 145.312 326.664 144.948C327.105 144.583 327.366 144.158 327.446 143.672C327.326 139.785 327.326 135.897 327.446 132.01C327.566 128.082 327.727 124.195 327.927 120.348L328.228 120.591C328.228 120.632 328.369 120.854 328.649 121.259C328.93 121.664 329.251 122.15 329.612 122.717C329.973 123.243 330.354 123.79 330.755 124.357C331.156 124.883 331.477 125.329 331.718 125.693C331.758 125.774 331.798 125.896 331.838 126.058C331.878 126.179 331.918 126.24 331.958 126.24L341.644 140.149L342.005 140.514L342.607 140.878L343.208 141.242C343.409 141.323 343.569 141.364 343.69 141.364C344.572 141.364 345.254 141.101 345.735 140.574C346.216 140.048 346.457 139.36 346.457 138.509C346.457 138.145 346.297 137.639 345.976 136.991C345.695 136.302 345.535 135.796 345.494 135.472L343.449 121.927V120.834C343.289 118.08 343.148 115.752 343.028 113.849C342.948 111.946 342.847 110.367 342.727 109.111C342.647 107.856 342.567 106.884 342.486 106.196C342.446 105.467 342.386 104.941 342.306 104.617C342.266 104.252 342.226 104.029 342.186 103.948C342.146 103.827 342.125 103.746 342.125 103.705C342.085 103.179 342.065 102.612 342.065 102.005C342.065 101.357 342.005 100.77 341.885 100.243C341.764 99.6764 341.524 99.2108 341.163 98.8463C340.802 98.4819 340.24 98.2997 339.478 98.2997C338.716 98.2997 338.175 98.5629 337.854 99.0893V102.126C337.854 106.5 338.014 110.933 338.335 115.428C338.656 119.882 339.077 124.256 339.599 128.548H339.478C339.358 128.548 339.218 128.467 339.057 128.305L335.568 123.203L335.327 122.899L334.906 122.292C334.665 121.887 334.365 121.421 334.004 120.895C333.643 120.328 333.262 119.761 332.861 119.194C332.5 118.587 332.199 118.101 331.958 117.736C331.918 117.736 331.858 117.676 331.778 117.554C331.738 117.392 331.718 117.291 331.718 117.25C331.196 116.4 330.595 115.57 329.913 114.76C329.271 113.91 328.709 113.039 328.228 112.148L328.108 110.205C328.068 109.557 327.947 108.97 327.747 108.443C327.546 107.917 327.226 107.512 326.784 107.228C326.343 106.904 325.701 106.742 324.859 106.742C324.418 106.742 324.037 106.864 323.716 107.107C323.395 107.309 323.175 107.633 323.054 108.079C323.135 110.549 323.135 113.039 323.054 115.55C323.014 118.02 322.934 120.51 322.814 123.021C322.693 125.491 322.573 127.981 322.453 130.492ZM241.416 128.548C241.496 129.358 241.556 130.168 241.596 130.978C241.676 131.787 241.696 132.597 241.656 133.407L242.92 143.186C243 143.794 243.341 144.34 243.942 144.826C244.584 145.272 245.186 145.494 245.747 145.494C246.509 145.494 247.031 145.251 247.311 144.765C247.632 144.239 247.793 143.652 247.793 143.004C247.793 141.83 247.712 140.655 247.552 139.481C247.432 138.307 247.291 137.132 247.131 135.958C246.97 134.784 246.81 133.63 246.65 132.496C246.529 131.322 246.469 130.147 246.469 128.973V128.183C246.469 127.738 246.569 127.434 246.77 127.272L252.605 123.203L252.726 123.081C252.766 123 252.806 122.94 252.846 122.899C254.651 121.603 256.275 120.328 257.719 119.073C259.203 117.777 260.787 116.319 262.472 114.699C263.755 113.404 264.758 111.926 265.48 110.265C266.202 108.605 266.563 106.864 266.563 105.042C266.563 104.029 266.222 103.199 265.54 102.551C264.858 101.904 264.016 101.397 263.013 101.033C262.051 100.669 261.028 100.426 259.945 100.304C258.902 100.142 258 100.061 257.238 100.061C255.473 100.061 253.869 100.304 252.425 100.79C251.021 101.276 249.557 101.985 248.033 102.916C247.712 103.118 247.392 103.341 247.071 103.584C246.75 103.827 246.389 103.948 245.988 103.948C245.547 103.948 245.105 103.827 244.664 103.584C244.223 103.301 243.742 103.159 243.22 103.159C242.899 103.159 242.498 103.28 242.017 103.523C241.536 103.726 241.295 104.029 241.295 104.434V107.775L234.557 113.728C234.517 113.808 234.477 113.91 234.437 114.031L234.316 114.274C234.276 114.355 234.256 114.416 234.256 114.456V114.578C234.256 115.307 234.537 115.894 235.099 116.339C235.7 116.785 236.322 117.007 236.964 117.007C237.846 117.007 238.608 116.683 239.25 116.036C239.891 115.388 240.453 114.78 240.934 114.213H241.175V125.936C241.215 125.936 241.175 125.997 241.055 126.118L240.934 126.24C240.934 126.28 240.974 126.382 241.055 126.544C241.135 126.665 241.175 126.746 241.175 126.786C241.175 126.867 241.195 127.131 241.235 127.576C241.315 128.022 241.375 128.345 241.416 128.548ZM257.418 113.242L246.469 121.684L246.228 121.381V109.84C246.228 109.719 246.309 109.577 246.469 109.415C246.67 109.253 246.89 109.091 247.131 108.929C247.371 108.727 247.612 108.565 247.853 108.443C248.093 108.281 248.254 108.16 248.334 108.079C249.698 107.147 251.122 106.277 252.605 105.467C254.13 104.617 255.794 104.191 257.599 104.191H258.682C259.163 104.191 259.624 104.252 260.065 104.374C260.507 104.455 260.888 104.617 261.209 104.86C261.57 105.062 261.75 105.366 261.75 105.771C261.75 106.419 261.61 107.107 261.329 107.836C261.048 108.565 260.687 109.273 260.246 109.962C259.845 110.61 259.384 111.237 258.862 111.845C258.381 112.411 257.9 112.877 257.418 113.242ZM277.933 118.83C277.893 118.506 277.833 118.101 277.753 117.615C277.713 117.088 277.653 116.603 277.572 116.157C277.532 115.671 277.492 115.266 277.452 114.942L277.392 114.456H276.911L270.052 116.522C269.852 116.845 269.511 117.007 269.03 117.007H268.007C267.445 117.007 266.864 116.764 266.262 116.279C265.701 115.752 265.42 115.185 265.42 114.578C265.42 114.132 265.56 113.707 265.841 113.302C266.162 112.857 266.543 112.553 266.984 112.391L276.67 109.294C276.79 108.848 277.011 108.403 277.332 107.957C277.693 107.471 278.154 107.228 278.715 107.228C279.277 107.228 279.738 107.37 280.099 107.654C280.5 107.937 280.941 108.16 281.423 108.322C281.784 108.281 282.385 108.16 283.228 107.957C284.07 107.755 284.952 107.552 285.875 107.35C286.837 107.107 287.74 106.884 288.582 106.682C289.424 106.479 290.006 106.338 290.327 106.257C290.808 106.176 291.169 106.074 291.41 105.953C291.65 105.831 292.031 105.771 292.553 105.771C293.234 105.771 293.936 105.973 294.658 106.378C295.38 106.783 295.741 107.39 295.741 108.2C295.741 108.727 295.561 109.192 295.2 109.597C295.002 109.797 294.779 109.961 294.533 110.088C294.728 110.044 294.95 110.022 295.2 110.022C295.841 110.022 296.443 110.205 297.005 110.569C297.606 110.933 297.947 111.46 298.027 112.148C298.188 113.282 298.268 114.436 298.268 115.61C298.308 116.744 298.308 117.898 298.268 119.073C298.268 120.206 298.248 121.36 298.208 122.535C298.208 123.669 298.248 124.802 298.328 125.936C298.488 128.69 298.729 131.544 299.05 134.5C299.411 137.456 299.591 140.311 299.591 143.065C299.591 143.875 299.431 144.482 299.11 144.887C298.789 145.292 298.168 145.494 297.245 145.494C296.483 145.494 295.902 145.231 295.5 144.705C295.099 144.178 294.799 143.551 294.598 142.822C294.438 142.093 294.337 141.364 294.297 140.635C294.257 139.866 294.237 139.258 294.237 138.813C294.237 138.489 294.197 137.821 294.117 136.808C294.077 135.756 294.016 134.541 293.936 133.164C293.896 131.747 293.836 130.269 293.756 128.73C293.676 127.151 293.595 125.673 293.515 124.296C293.435 122.879 293.355 121.664 293.275 120.652C293.234 119.599 293.214 118.911 293.214 118.587V111.116C293.513 110.701 293.777 110.427 294.006 110.293C293.963 110.305 293.92 110.316 293.876 110.326L282.445 113.242V113.788C282.445 115.044 282.546 116.279 282.746 117.493C282.987 118.708 283.067 119.923 282.987 121.138L285.032 139.906V141.242C285.032 141.728 285.012 142.235 284.972 142.761C284.972 143.247 284.892 143.692 284.732 144.097C284.611 144.502 284.391 144.846 284.07 145.13C283.749 145.373 283.268 145.494 282.626 145.494C282.145 145.494 281.623 145.292 281.062 144.887C280.54 144.482 280.26 143.996 280.22 143.429L277.933 119.316V118.83ZM302.419 134.743C302.459 134.5 302.459 133.853 302.419 132.8C302.379 131.747 302.359 130.451 302.359 128.912C302.399 127.333 302.439 125.612 302.479 123.75C302.559 121.887 302.7 120.004 302.9 118.101C303.141 116.198 303.462 114.375 303.863 112.634C304.304 110.853 304.866 109.314 305.547 108.018C305.788 106.925 306.37 106.176 307.292 105.771C308.215 105.325 309.518 105.062 311.203 104.981C312.285 104.981 313.208 105.264 313.97 105.831C314.732 106.398 315.374 107.107 315.895 107.957C316.457 108.767 316.938 109.658 317.339 110.63C317.74 111.602 318.101 112.472 318.422 113.242V113.545C318.703 114.355 318.903 115.57 319.024 117.19C319.184 118.769 319.284 120.449 319.324 122.231C319.405 123.972 319.445 125.653 319.445 127.272V130.978C319.445 132.192 319.284 133.65 318.963 135.351C318.643 137.011 318.121 138.59 317.399 140.088C316.717 141.587 315.815 142.862 314.692 143.915C313.569 144.968 312.225 145.494 310.661 145.494C309.338 145.494 308.154 145.15 307.112 144.462C306.109 143.773 305.247 142.903 304.525 141.85C303.843 140.757 303.321 139.582 302.96 138.327C302.6 137.072 302.419 135.877 302.419 134.743ZM308.255 138.813C308.335 139.258 308.555 139.724 308.916 140.21C309.318 140.655 309.779 140.878 310.3 140.878H310.781C312.466 139.339 313.569 137.578 314.09 135.594C314.612 133.569 314.872 131.443 314.872 129.216C314.872 128.69 314.852 127.88 314.812 126.786C314.772 125.693 314.692 124.478 314.572 123.142C314.491 121.765 314.371 120.328 314.211 118.83C314.05 117.331 313.85 115.934 313.609 114.639C313.368 113.302 313.088 112.148 312.767 111.176C312.446 110.205 312.065 109.536 311.624 109.172C311.584 109.213 311.523 109.294 311.443 109.415C311.403 109.536 311.383 109.617 311.383 109.658C310.541 110.711 309.779 112.148 309.097 113.97C308.415 115.793 307.894 117.959 307.533 120.47C307.212 122.94 307.071 125.734 307.112 128.852C307.192 131.929 307.573 135.25 308.255 138.813Z" fill="black"/>
<defs>
<clipPath id="clip0_876_5213">
<rect width="32.3624" height="32.3624" fill="white" transform="translate(379.618 272.157) rotate(-133.74)"/>
</clipPath>
</defs>
</svg>
