<svg width="34" height="32" viewBox="0 0 34 32" fill="none" xmlns="http://www.w3.org/2000/svg">
<path d="M17.9171 7.9H3.17809C1.47882 7.9 0.358173 9.57125 1.1672 10.9824L3.53766 15.1171C3.85464 15.67 3.85464 16.33 3.53766 16.8829L1.1672 21.0176C0.358173 22.4288 1.47882 24.1 3.17809 24.1H17.9171H19.7524H30.8219C32.5212 24.1 33.6418 22.4288 32.8328 21.0176L30.4623 16.8829C30.1454 16.33 30.1454 15.67 30.4623 15.1171L32.8328 10.9824C33.6418 9.57125 32.5212 7.9 30.8219 7.9H19.7524H17.9171ZM28.3647 17.915L30.6493 21.9L19.7524 21.9H17.9171H14.5187V10.1H17.9171H19.7524L30.6493 10.1L28.3647 14.085C27.6777 15.2832 27.6777 16.7168 28.3647 17.915ZM3.35069 10.1L12.1436 10.1V21.9L3.35069 21.9L5.63531 17.915C6.32226 16.7168 6.32226 15.2832 5.63531 14.085L3.35069 10.1Z" fill="#003F2E" stroke="#003F2E" stroke-width="0.2"/>
</svg>
