<svg width="278" height="176" viewBox="0 0 278 176" fill="none" xmlns="http://www.w3.org/2000/svg">
<path d="M0 8C0 3.58173 3.58172 0 8 0H270C274.418 0 278 3.58172 278 8V168C278 172.418 274.418 176 270 176H8.00001C3.58173 176 0 172.418 0 168V8Z" fill="#F8F4D2"/>
<path d="M0 8C0 3.58172 3.58172 0 8 0H270C274.418 0 278 3.58172 278 8V33H0V8Z" fill="#D26339"/>
<path d="M0 168C0 172.418 3.58172 176 8 176H270C274.418 176 278 172.418 278 168V135H0V168Z" fill="#D26339"/>
<path fill-rule="evenodd" clip-rule="evenodd" d="M178.607 133.515L169.061 143.061C168.475 143.646 167.525 143.646 166.939 143.061L157.393 133.515C156.808 132.929 156.808 131.979 157.393 131.393C157.979 130.808 158.929 130.808 159.515 131.393L166.5 138.379L166.5 105L169.5 105L169.5 138.379L176.485 131.393C177.071 130.808 178.021 130.808 178.607 131.393C179.192 131.979 179.192 132.929 178.607 133.515Z" fill="black"/>
<path d="M13 51C13 47.6863 15.6863 45 19 45H119C122.314 45 125 47.6863 125 51C125 54.3137 122.314 57 119 57H19C15.6863 57 13 54.3137 13 51Z" fill="black" fill-opacity="0.1"/>
<rect x="13" y="11" width="112" height="12" rx="6" fill="black" fill-opacity="0.1"/>
<path d="M13 95C13 91.6863 15.6863 89 19 89H191C194.314 89 197 91.6863 197 95C197 98.3137 194.314 101 191 101H19C15.6863 101 13 98.3137 13 95Z" fill="black" fill-opacity="0.1"/>
<path d="M13 117C13 113.686 15.6863 111 19 111H191C194.314 111 197 113.686 197 117C197 120.314 194.314 123 191 123H19C15.6863 123 13 120.314 13 117Z" fill="black" fill-opacity="0.1"/>
<path d="M13 73C13 69.6863 15.6863 67 19 67H91C94.3137 67 97 69.6863 97 73C97 76.3137 94.3137 79 91 79H19C15.6863 79 13 76.3137 13 73Z" fill="black" fill-opacity="0.1"/>
<path d="M13 156C13 152.686 15.6863 150 19 150H42C45.3137 150 48 152.686 48 156C48 159.314 45.3137 162 42 162H19C15.6863 162 13 159.314 13 156Z" fill="black" fill-opacity="0.1"/>
<path d="M197 51C197 47.6863 199.686 45 203 45H257C260.314 45 263 47.6863 263 51C263 54.3137 260.314 57 257 57H203C199.686 57 197 54.3137 197 51Z" fill="black" fill-opacity="0.1"/>
<rect x="197" y="11" width="66" height="12" rx="6" fill="black" fill-opacity="0.1"/>
<g opacity="0.4">
<path d="M100.864 160.119C100.222 160.119 99.6751 159.945 99.2234 159.595C98.7717 159.243 98.4265 158.733 98.1879 158.065C97.9493 157.395 97.83 156.585 97.83 155.636C97.83 154.693 97.9493 153.888 98.1879 153.22C98.4294 152.55 98.776 152.038 99.2277 151.686C99.6822 151.331 100.228 151.153 100.864 151.153C101.5 151.153 102.044 151.331 102.496 151.686C102.951 152.038 103.297 152.55 103.536 153.22C103.777 153.888 103.898 154.693 103.898 155.636C103.898 156.585 103.779 157.395 103.54 158.065C103.302 158.733 102.956 159.243 102.505 159.595C102.053 159.945 101.506 160.119 100.864 160.119ZM100.864 159.182C101.5 159.182 101.995 158.875 102.347 158.261C102.699 157.648 102.875 156.773 102.875 155.636C102.875 154.881 102.794 154.237 102.633 153.706C102.473 153.175 102.243 152.77 101.942 152.491C101.644 152.213 101.285 152.074 100.864 152.074C100.233 152.074 99.7405 152.385 99.3854 153.007C99.0302 153.626 98.8527 154.503 98.8527 155.636C98.8527 156.392 98.9322 157.034 99.0913 157.563C99.2504 158.091 99.4791 158.493 99.7774 158.768C100.079 159.044 100.441 159.182 100.864 159.182Z" fill="black"/>
<path d="M107.164 160.119C106.522 160.119 105.975 159.945 105.523 159.595C105.072 159.243 104.727 158.733 104.488 158.065C104.249 157.395 104.13 156.585 104.13 155.636C104.13 154.693 104.249 153.888 104.488 153.22C104.729 152.55 105.076 152.038 105.528 151.686C105.982 151.331 106.528 151.153 107.164 151.153C107.8 151.153 108.344 151.331 108.796 151.686C109.251 152.038 109.597 152.55 109.836 153.22C110.077 153.888 110.198 154.693 110.198 155.636C110.198 156.585 110.079 157.395 109.84 158.065C109.602 158.733 109.256 159.243 108.805 159.595C108.353 159.945 107.806 160.119 107.164 160.119ZM107.164 159.182C107.8 159.182 108.295 158.875 108.647 158.261C108.999 157.648 109.175 156.773 109.175 155.636C109.175 154.881 109.094 154.237 108.933 153.706C108.773 153.175 108.543 152.77 108.242 152.491C107.944 152.213 107.585 152.074 107.164 152.074C106.533 152.074 106.04 152.385 105.685 153.007C105.33 153.626 105.153 154.503 105.153 155.636C105.153 156.392 105.232 157.034 105.391 157.563C105.55 158.091 105.779 158.493 106.077 158.768C106.379 159.044 106.741 159.182 107.164 159.182Z" fill="black"/>
<path d="M113.413 160.119C112.828 160.119 112.311 160.016 111.862 159.808C111.416 159.598 111.068 159.31 110.818 158.943C110.568 158.574 110.444 158.153 110.447 157.682C110.444 157.313 110.517 156.972 110.664 156.659C110.812 156.344 111.014 156.081 111.269 155.871C111.528 155.658 111.816 155.523 112.135 155.466V155.415C111.717 155.307 111.385 155.072 111.137 154.712C110.89 154.348 110.768 153.935 110.771 153.472C110.768 153.028 110.88 152.632 111.108 152.283C111.335 151.933 111.647 151.658 112.045 151.456C112.446 151.254 112.902 151.153 113.413 151.153C113.919 151.153 114.37 151.254 114.768 151.456C115.166 151.658 115.478 151.933 115.706 152.283C115.936 152.632 116.052 153.028 116.055 153.472C116.052 153.935 115.926 154.348 115.676 154.712C115.429 155.072 115.1 155.307 114.691 155.415V155.466C115.007 155.523 115.291 155.658 115.544 155.871C115.796 156.081 115.998 156.344 116.149 156.659C116.299 156.972 116.376 157.313 116.379 157.682C116.376 158.153 116.248 158.574 115.995 158.943C115.745 159.31 115.397 159.598 114.951 159.808C114.508 160.016 113.995 160.119 113.413 160.119ZM113.413 159.182C113.808 159.182 114.149 159.118 114.436 158.99C114.723 158.862 114.944 158.682 115.1 158.449C115.257 158.216 115.336 157.943 115.339 157.631C115.336 157.301 115.251 157.01 115.083 156.757C114.916 156.504 114.687 156.305 114.397 156.161C114.11 156.016 113.782 155.943 113.413 155.943C113.041 155.943 112.708 156.016 112.416 156.161C112.126 156.305 111.897 156.504 111.73 156.757C111.565 157.01 111.484 157.301 111.487 157.631C111.484 157.943 111.559 158.216 111.713 158.449C111.869 158.682 112.092 158.862 112.382 158.99C112.671 159.118 113.015 159.182 113.413 159.182ZM113.413 155.04C113.725 155.04 114.002 154.977 114.244 154.852C114.488 154.727 114.68 154.553 114.819 154.328C114.958 154.104 115.029 153.841 115.032 153.54C115.029 153.244 114.96 152.987 114.823 152.768C114.687 152.547 114.498 152.376 114.257 152.257C114.015 152.135 113.734 152.074 113.413 152.074C113.086 152.074 112.801 152.135 112.556 152.257C112.312 152.376 112.123 152.547 111.99 152.768C111.856 152.987 111.791 153.244 111.794 153.54C111.791 153.841 111.858 154.104 111.994 154.328C112.133 154.553 112.325 154.727 112.569 154.852C112.813 154.977 113.095 155.04 113.413 155.04Z" fill="black"/>
<path d="M119.607 160.119C119.022 160.119 118.505 160.016 118.056 159.808C117.61 159.598 117.262 159.31 117.012 158.943C116.762 158.574 116.639 158.153 116.642 157.682C116.639 157.313 116.711 156.972 116.859 156.659C117.007 156.344 117.208 156.081 117.464 155.871C117.722 155.658 118.011 155.523 118.329 155.466V155.415C117.911 155.307 117.579 155.072 117.332 154.712C117.085 154.348 116.963 153.935 116.965 153.472C116.963 153.028 117.075 152.632 117.302 152.283C117.529 151.933 117.842 151.658 118.24 151.456C118.64 151.254 119.096 151.153 119.607 151.153C120.113 151.153 120.565 151.254 120.963 151.456C121.36 151.658 121.673 151.933 121.9 152.283C122.13 152.632 122.247 153.028 122.249 153.472C122.247 153.935 122.12 154.348 121.87 154.712C121.623 155.072 121.295 155.307 120.886 155.415V155.466C121.201 155.523 121.485 155.658 121.738 155.871C121.991 156.081 122.193 156.344 122.343 156.659C122.494 156.972 122.571 157.313 122.573 157.682C122.571 158.153 122.443 158.574 122.19 158.943C121.94 159.31 121.592 159.598 121.146 159.808C120.703 160.016 120.19 160.119 119.607 160.119ZM119.607 159.182C120.002 159.182 120.343 159.118 120.63 158.99C120.917 158.862 121.139 158.682 121.295 158.449C121.451 158.216 121.531 157.943 121.534 157.631C121.531 157.301 121.446 157.01 121.278 156.757C121.11 156.504 120.882 156.305 120.592 156.161C120.305 156.016 119.977 155.943 119.607 155.943C119.235 155.943 118.903 156.016 118.61 156.161C118.321 156.305 118.092 156.504 117.924 156.757C117.759 157.01 117.678 157.301 117.681 157.631C117.678 157.943 117.754 158.216 117.907 158.449C118.063 158.682 118.286 158.862 118.576 158.99C118.866 159.118 119.21 159.182 119.607 159.182ZM119.607 155.04C119.92 155.04 120.197 154.977 120.438 154.852C120.683 154.727 120.874 154.553 121.014 154.328C121.153 154.104 121.224 153.841 121.227 153.54C121.224 153.244 121.154 152.987 121.018 152.768C120.882 152.547 120.693 152.376 120.451 152.257C120.21 152.135 119.928 152.074 119.607 152.074C119.281 152.074 118.995 152.135 118.751 152.257C118.507 152.376 118.318 152.547 118.184 152.768C118.051 152.987 117.985 153.244 117.988 153.54C117.985 153.841 118.052 154.104 118.188 154.328C118.328 154.553 118.519 154.727 118.764 154.852C119.008 154.977 119.289 155.04 119.607 155.04Z" fill="black"/>
<path d="M125.904 160.119C125.546 160.114 125.188 160.045 124.83 159.915C124.472 159.784 124.146 159.564 123.85 159.254C123.555 158.942 123.318 158.52 123.139 157.989C122.96 157.455 122.87 156.784 122.87 155.977C122.87 155.205 122.943 154.52 123.087 153.923C123.232 153.324 123.443 152.82 123.718 152.411C123.994 151.999 124.326 151.686 124.715 151.473C125.107 151.26 125.549 151.153 126.041 151.153C126.529 151.153 126.964 151.251 127.345 151.447C127.728 151.641 128.041 151.911 128.282 152.257C128.524 152.604 128.68 153.003 128.751 153.455H127.711C127.614 153.063 127.427 152.737 127.149 152.479C126.87 152.22 126.501 152.091 126.041 152.091C125.364 152.091 124.832 152.385 124.443 152.973C124.056 153.561 123.862 154.386 123.859 155.449H123.927C124.086 155.207 124.275 155.001 124.494 154.831C124.715 154.658 124.96 154.524 125.227 154.43C125.494 154.337 125.776 154.29 126.075 154.29C126.575 154.29 127.032 154.415 127.447 154.665C127.862 154.912 128.194 155.254 128.444 155.692C128.694 156.126 128.819 156.625 128.819 157.188C128.819 157.727 128.698 158.222 128.457 158.67C128.215 159.116 127.876 159.472 127.438 159.736C127.004 159.997 126.492 160.125 125.904 160.119ZM125.904 159.182C126.262 159.182 126.583 159.092 126.867 158.913C127.154 158.734 127.38 158.494 127.545 158.193C127.712 157.892 127.796 157.557 127.796 157.188C127.796 156.827 127.715 156.499 127.553 156.203C127.394 155.905 127.174 155.668 126.893 155.491C126.614 155.315 126.296 155.227 125.938 155.227C125.668 155.227 125.417 155.281 125.184 155.389C124.951 155.494 124.747 155.639 124.57 155.824C124.397 156.009 124.261 156.22 124.161 156.459C124.062 156.695 124.012 156.943 124.012 157.205C124.012 157.551 124.093 157.875 124.255 158.176C124.42 158.477 124.644 158.72 124.928 158.905C125.215 159.089 125.541 159.182 125.904 159.182Z" fill="black"/>
<path d="M135.237 155.168V156.105H131.419V155.168H135.237Z" fill="black"/>
<path d="M137.636 158.466V157.013L141.28 151.273H142.533V153.284H141.791L139.494 156.919V156.987H144.672V158.466H137.636ZM141.825 160V158.023L141.859 157.379V151.273H143.589V160H141.825Z" fill="black"/>
<path d="M148.051 160.119C147.602 160.116 147.168 160.041 146.751 159.893C146.336 159.746 145.964 159.506 145.634 159.173C145.305 158.841 145.043 158.401 144.85 157.852C144.66 157.304 144.565 156.631 144.565 155.832C144.568 155.099 144.651 154.445 144.816 153.868C144.984 153.288 145.222 152.797 145.532 152.393C145.845 151.99 146.218 151.683 146.653 151.473C147.087 151.26 147.575 151.153 148.114 151.153C148.697 151.153 149.211 151.267 149.657 151.494C150.103 151.719 150.461 152.024 150.731 152.411C151.004 152.797 151.168 153.23 151.225 153.71H149.406C149.335 153.406 149.185 153.168 148.958 152.994C148.731 152.821 148.45 152.734 148.114 152.734C147.546 152.734 147.114 152.982 146.819 153.476C146.526 153.97 146.377 154.642 146.372 155.491H146.431C146.562 155.233 146.738 155.013 146.96 154.831C147.184 154.646 147.438 154.506 147.722 154.409C148.009 154.31 148.312 154.26 148.63 154.26C149.147 154.26 149.607 154.382 150.011 154.626C150.414 154.868 150.732 155.2 150.965 155.624C151.198 156.047 151.315 156.531 151.315 157.077C151.315 157.668 151.177 158.193 150.901 158.653C150.629 159.114 150.247 159.474 149.755 159.736C149.266 159.994 148.698 160.122 148.051 160.119ZM148.042 158.67C148.326 158.67 148.58 158.602 148.805 158.466C149.029 158.33 149.205 158.145 149.333 157.912C149.461 157.679 149.525 157.418 149.525 157.128C149.525 156.838 149.461 156.578 149.333 156.348C149.208 156.118 149.035 155.935 148.813 155.798C148.592 155.662 148.339 155.594 148.055 155.594C147.842 155.594 147.644 155.634 147.462 155.713C147.284 155.793 147.126 155.903 146.989 156.045C146.856 156.188 146.751 156.352 146.674 156.54C146.597 156.724 146.559 156.922 146.559 157.132C146.559 157.413 146.623 157.67 146.751 157.903C146.882 158.136 147.058 158.322 147.279 158.462C147.504 158.601 147.758 158.67 148.042 158.67Z" fill="black"/>
<path d="M151.768 160L155.386 152.841V152.781H151.172V151.273H157.295V152.803L153.673 160H151.768Z" fill="black"/>
<path d="M156.524 158.466V157.013L160.168 151.273H161.421V153.284H160.679L158.382 156.919V156.987H163.56V158.466H156.524ZM160.713 160V158.023L160.747 157.379V151.273H162.478V160H160.713Z" fill="black"/>
<path d="M169.262 154.916V156.357H165.282V154.916H169.262Z" fill="black"/>
<path d="M174.357 160.119C173.754 160.119 173.217 160.009 172.746 159.787C172.277 159.565 171.905 159.26 171.629 158.871C171.354 158.482 171.21 158.036 171.199 157.533H172.989C173.009 157.871 173.151 158.145 173.415 158.355C173.679 158.565 173.993 158.67 174.357 158.67C174.646 158.67 174.902 158.607 175.124 158.479C175.348 158.348 175.523 158.168 175.648 157.938C175.776 157.705 175.84 157.438 175.84 157.136C175.84 156.83 175.774 156.56 175.644 156.327C175.516 156.094 175.338 155.912 175.111 155.781C174.884 155.651 174.624 155.584 174.331 155.581C174.075 155.581 173.827 155.634 173.585 155.739C173.347 155.844 173.161 155.987 173.027 156.169L171.386 155.875L171.8 151.273H177.135V152.781H173.321L173.095 154.967H173.146C173.3 154.751 173.531 154.572 173.841 154.43C174.151 154.288 174.497 154.217 174.881 154.217C175.406 154.217 175.875 154.341 176.287 154.588C176.699 154.835 177.024 155.175 177.263 155.607C177.501 156.036 177.619 156.53 177.617 157.089C177.619 157.678 177.483 158.2 177.207 158.658C176.935 159.112 176.553 159.47 176.061 159.732C175.572 159.99 175.004 160.119 174.357 160.119Z" fill="black"/>
<path d="M177.571 158.466V157.013L181.215 151.273H182.468V153.284H181.726L179.429 156.919V156.987H184.607V158.466H177.571ZM181.76 160V158.023L181.794 157.379V151.273H183.524V160H181.76Z" fill="black"/>
<path d="M187.862 160.119C187.226 160.119 186.659 160.01 186.162 159.791C185.668 159.57 185.277 159.266 184.99 158.879C184.706 158.49 184.56 158.041 184.551 157.533H186.409C186.42 157.746 186.49 157.933 186.618 158.095C186.748 158.254 186.922 158.378 187.138 158.466C187.354 158.554 187.597 158.598 187.866 158.598C188.148 158.598 188.396 158.548 188.612 158.449C188.828 158.349 188.997 158.212 189.119 158.036C189.241 157.859 189.302 157.656 189.302 157.426C189.302 157.193 189.237 156.987 189.106 156.808C188.979 156.626 188.794 156.484 188.552 156.382C188.314 156.28 188.03 156.229 187.7 156.229H186.886V154.874H187.7C187.979 154.874 188.224 154.825 188.437 154.729C188.653 154.632 188.821 154.499 188.94 154.328C189.06 154.155 189.119 153.953 189.119 153.723C189.119 153.504 189.067 153.313 188.962 153.148C188.859 152.98 188.714 152.849 188.527 152.756C188.342 152.662 188.126 152.615 187.879 152.615C187.629 152.615 187.4 152.661 187.193 152.751C186.986 152.839 186.82 152.966 186.695 153.131C186.57 153.295 186.503 153.489 186.494 153.71H184.726C184.734 153.207 184.878 152.764 185.156 152.381C185.435 151.997 185.81 151.697 186.281 151.482C186.756 151.263 187.291 151.153 187.888 151.153C188.49 151.153 189.017 151.263 189.469 151.482C189.92 151.7 190.271 151.996 190.521 152.368C190.774 152.737 190.899 153.152 190.896 153.612C190.899 154.101 190.747 154.509 190.44 154.835C190.136 155.162 189.74 155.369 189.251 155.457V155.526C189.893 155.608 190.382 155.831 190.717 156.195C191.055 156.555 191.223 157.007 191.22 157.55C191.223 158.047 191.079 158.489 190.79 158.875C190.503 159.261 190.106 159.565 189.601 159.787C189.095 160.009 188.516 160.119 187.862 160.119Z" fill="black"/>
<path d="M194.534 160.119C193.932 160.119 193.395 160.009 192.923 159.787C192.454 159.565 192.082 159.26 191.807 158.871C191.531 158.482 191.388 158.036 191.376 157.533H193.166C193.186 157.871 193.328 158.145 193.592 158.355C193.856 158.565 194.17 158.67 194.534 158.67C194.824 158.67 195.079 158.607 195.301 158.479C195.525 158.348 195.7 158.168 195.825 157.938C195.953 157.705 196.017 157.438 196.017 157.136C196.017 156.83 195.952 156.56 195.821 156.327C195.693 156.094 195.515 155.912 195.288 155.781C195.061 155.651 194.801 155.584 194.508 155.581C194.253 155.581 194.004 155.634 193.763 155.739C193.524 155.844 193.338 155.987 193.204 156.169L191.564 155.875L191.977 151.273H197.312V152.781H193.498L193.273 154.967H193.324C193.477 154.751 193.709 154.572 194.018 154.43C194.328 154.288 194.675 154.217 195.058 154.217C195.584 154.217 196.052 154.341 196.464 154.588C196.876 154.835 197.202 155.175 197.44 155.607C197.679 156.036 197.797 156.53 197.794 157.089C197.797 157.678 197.66 158.2 197.385 158.658C197.112 159.112 196.73 159.47 196.238 159.732C195.75 159.99 195.182 160.119 194.534 160.119Z" fill="black"/>
<path d="M204.019 155.168V156.105H200.201V155.168H204.019Z" fill="black"/>
<path d="M209.593 160.119C208.951 160.119 208.404 159.945 207.952 159.595C207.501 159.243 207.155 158.733 206.917 158.065C206.678 157.395 206.559 156.585 206.559 155.636C206.559 154.693 206.678 153.888 206.917 153.22C207.158 152.55 207.505 152.038 207.957 151.686C208.411 151.331 208.957 151.153 209.593 151.153C210.229 151.153 210.773 151.331 211.225 151.686C211.68 152.038 212.026 152.55 212.265 153.22C212.506 153.888 212.627 154.693 212.627 155.636C212.627 156.585 212.508 157.395 212.269 158.065C212.03 158.733 211.685 159.243 211.234 159.595C210.782 159.945 210.235 160.119 209.593 160.119ZM209.593 159.182C210.229 159.182 210.724 158.875 211.076 158.261C211.428 157.648 211.604 156.773 211.604 155.636C211.604 154.881 211.523 154.237 211.361 153.706C211.202 153.175 210.972 152.77 210.671 152.491C210.373 152.213 210.013 152.074 209.593 152.074C208.962 152.074 208.469 152.385 208.114 153.007C207.759 153.626 207.582 154.503 207.582 155.636C207.582 156.392 207.661 157.034 207.82 157.563C207.979 158.091 208.208 158.493 208.506 158.768C208.807 159.044 209.17 159.182 209.593 159.182Z" fill="black"/>
<path d="M216.115 151.273V160H215.058V152.381H215.007L212.876 153.795V152.722L215.058 151.273H216.115Z" fill="black"/>
<path d="M221.192 155.168V156.105H217.373V155.168H221.192Z" fill="black"/>
<path d="M226.766 160.119C226.124 160.119 225.577 159.945 225.125 159.595C224.673 159.243 224.328 158.733 224.089 158.065C223.851 157.395 223.732 156.585 223.732 155.636C223.732 154.693 223.851 153.888 224.089 153.22C224.331 152.55 224.678 152.038 225.129 151.686C225.584 151.331 226.129 151.153 226.766 151.153C227.402 151.153 227.946 151.331 228.398 151.686C228.852 152.038 229.199 152.55 229.437 153.22C229.679 153.888 229.8 154.693 229.8 155.636C229.8 156.585 229.68 157.395 229.442 158.065C229.203 158.733 228.858 159.243 228.406 159.595C227.955 159.945 227.408 160.119 226.766 160.119ZM226.766 159.182C227.402 159.182 227.896 158.875 228.249 158.261C228.601 157.648 228.777 156.773 228.777 155.636C228.777 154.881 228.696 154.237 228.534 153.706C228.375 153.175 228.145 152.77 227.844 152.491C227.545 152.213 227.186 152.074 226.766 152.074C226.135 152.074 225.642 152.385 225.287 153.007C224.932 153.626 224.754 154.503 224.754 155.636C224.754 156.392 224.834 157.034 224.993 157.563C225.152 158.091 225.381 158.493 225.679 158.768C225.98 159.044 226.342 159.182 226.766 159.182Z" fill="black"/>
<path d="M232.946 160.119C232.446 160.119 231.996 160.02 231.595 159.821C231.195 159.622 230.874 159.349 230.632 159.003C230.391 158.656 230.259 158.261 230.236 157.818H231.259C231.299 158.213 231.478 158.54 231.796 158.798C232.117 159.054 232.5 159.182 232.946 159.182C233.304 159.182 233.622 159.098 233.901 158.93C234.182 158.763 234.402 158.533 234.561 158.24C234.723 157.945 234.804 157.611 234.804 157.239C234.804 156.858 234.72 156.518 234.553 156.22C234.388 155.919 234.161 155.682 233.871 155.509C233.581 155.335 233.25 155.247 232.878 155.244C232.611 155.241 232.337 155.283 232.056 155.368C231.774 155.45 231.543 155.557 231.361 155.688L230.372 155.568L230.901 151.273H235.435V152.21H231.787L231.48 154.784H231.532C231.711 154.642 231.935 154.524 232.205 154.43C232.475 154.337 232.756 154.29 233.049 154.29C233.583 154.29 234.059 154.418 234.476 154.673C234.897 154.926 235.226 155.273 235.465 155.713C235.706 156.153 235.827 156.656 235.827 157.222C235.827 157.778 235.702 158.276 235.452 158.713C235.205 159.148 234.864 159.491 234.429 159.744C233.995 159.994 233.5 160.119 232.946 160.119Z" fill="black"/>
<path d="M242.262 155.168V156.105H238.444V155.168H242.262Z" fill="black"/>
<path d="M247.836 160.119C247.194 160.119 246.647 159.945 246.195 159.595C245.744 159.243 245.398 158.733 245.16 158.065C244.921 157.395 244.802 156.585 244.802 155.636C244.802 154.693 244.921 153.888 245.16 153.22C245.401 152.55 245.748 152.038 246.2 151.686C246.654 151.331 247.2 151.153 247.836 151.153C248.472 151.153 249.016 151.331 249.468 151.686C249.923 152.038 250.269 152.55 250.508 153.22C250.749 153.888 250.87 154.693 250.87 155.636C250.87 156.585 250.751 157.395 250.512 158.065C250.273 158.733 249.928 159.243 249.477 159.595C249.025 159.945 248.478 160.119 247.836 160.119ZM247.836 159.182C248.472 159.182 248.967 158.875 249.319 158.261C249.671 157.648 249.847 156.773 249.847 155.636C249.847 154.881 249.766 154.237 249.604 153.706C249.445 153.175 249.215 152.77 248.914 152.491C248.616 152.213 248.256 152.074 247.836 152.074C247.205 152.074 246.712 152.385 246.357 153.007C246.002 153.626 245.825 154.503 245.825 155.636C245.825 156.392 245.904 157.034 246.063 157.563C246.222 158.091 246.451 158.493 246.749 158.768C247.05 159.044 247.413 159.182 247.836 159.182Z" fill="black"/>
<path d="M254.136 160.119C253.494 160.119 252.947 159.945 252.495 159.595C252.044 159.243 251.698 158.733 251.46 158.065C251.221 157.395 251.102 156.585 251.102 155.636C251.102 154.693 251.221 153.888 251.46 153.22C251.701 152.55 252.048 152.038 252.5 151.686C252.954 151.331 253.5 151.153 254.136 151.153C254.772 151.153 255.316 151.331 255.768 151.686C256.223 152.038 256.569 152.55 256.808 153.22C257.049 153.888 257.17 154.693 257.17 155.636C257.17 156.585 257.051 157.395 256.812 158.065C256.573 158.733 256.228 159.243 255.777 159.595C255.325 159.945 254.778 160.119 254.136 160.119ZM254.136 159.182C254.772 159.182 255.267 158.875 255.619 158.261C255.971 157.648 256.147 156.773 256.147 155.636C256.147 154.881 256.066 154.237 255.904 153.706C255.745 153.175 255.515 152.77 255.214 152.491C254.916 152.213 254.556 152.074 254.136 152.074C253.505 152.074 253.012 152.385 252.657 153.007C252.302 153.626 252.125 154.503 252.125 155.636C252.125 156.392 252.204 157.034 252.363 157.563C252.522 158.091 252.751 158.493 253.049 158.768C253.35 159.044 253.713 159.182 254.136 159.182Z" fill="black"/>
</g>
<path d="M137.636 158.466V157.013L141.28 151.273H142.533V153.284H141.791L139.494 156.919V156.987H144.672V158.466H137.636ZM141.825 160V158.023L141.859 157.379V151.273H143.589V160H141.825Z" fill="black"/>
<path d="M148.051 160.119C147.602 160.116 147.168 160.041 146.751 159.893C146.336 159.746 145.964 159.506 145.634 159.173C145.305 158.841 145.043 158.401 144.85 157.852C144.66 157.304 144.565 156.631 144.565 155.832C144.568 155.099 144.651 154.445 144.816 153.868C144.984 153.288 145.222 152.797 145.532 152.393C145.845 151.99 146.218 151.683 146.653 151.473C147.088 151.26 147.575 151.153 148.114 151.153C148.697 151.153 149.211 151.267 149.657 151.494C150.103 151.719 150.461 152.024 150.731 152.411C151.004 152.797 151.168 153.23 151.225 153.71H149.406C149.335 153.406 149.186 153.168 148.958 152.994C148.731 152.821 148.45 152.734 148.114 152.734C147.546 152.734 147.114 152.982 146.819 153.476C146.526 153.97 146.377 154.642 146.372 155.491H146.431C146.562 155.233 146.738 155.013 146.96 154.831C147.184 154.646 147.438 154.506 147.722 154.409C148.009 154.31 148.312 154.26 148.63 154.26C149.147 154.26 149.607 154.382 150.011 154.626C150.414 154.868 150.732 155.2 150.965 155.624C151.198 156.047 151.315 156.531 151.315 157.077C151.315 157.668 151.177 158.193 150.901 158.653C150.629 159.114 150.247 159.474 149.755 159.736C149.266 159.994 148.698 160.122 148.051 160.119ZM148.042 158.67C148.326 158.67 148.58 158.602 148.805 158.466C149.029 158.33 149.205 158.145 149.333 157.912C149.461 157.679 149.525 157.418 149.525 157.128C149.525 156.838 149.461 156.578 149.333 156.348C149.208 156.118 149.035 155.935 148.813 155.798C148.592 155.662 148.339 155.594 148.055 155.594C147.842 155.594 147.644 155.634 147.463 155.713C147.284 155.793 147.126 155.903 146.989 156.045C146.856 156.188 146.751 156.352 146.674 156.54C146.597 156.724 146.559 156.922 146.559 157.132C146.559 157.413 146.623 157.67 146.751 157.903C146.882 158.136 147.058 158.322 147.279 158.462C147.504 158.601 147.758 158.67 148.042 158.67Z" fill="black"/>
<path d="M151.768 160L155.386 152.841V152.781H151.172V151.273H157.295V152.803L153.673 160H151.768Z" fill="black"/>
<path d="M156.525 158.466V157.013L160.168 151.273H161.421V153.284H160.679L158.382 156.919V156.987H163.56V158.466H156.525ZM160.713 160V158.023L160.748 157.379V151.273H162.478V160H160.713Z" fill="black"/>
<path d="M169.262 154.916V156.357H165.282V154.916H169.262Z" fill="black"/>
<path d="M174.357 160.119C173.754 160.119 173.217 160.009 172.746 159.787C172.277 159.565 171.905 159.26 171.629 158.871C171.354 158.482 171.21 158.036 171.199 157.533H172.989C173.009 157.871 173.151 158.145 173.415 158.355C173.679 158.565 173.993 158.67 174.357 158.67C174.646 158.67 174.902 158.607 175.124 158.479C175.348 158.348 175.523 158.168 175.648 157.938C175.776 157.705 175.84 157.438 175.84 157.136C175.84 156.83 175.774 156.56 175.644 156.327C175.516 156.094 175.338 155.912 175.111 155.781C174.884 155.651 174.624 155.584 174.331 155.581C174.075 155.581 173.827 155.634 173.585 155.739C173.347 155.844 173.161 155.987 173.027 156.169L171.386 155.875L171.8 151.273H177.135V152.781H173.321L173.095 154.967H173.146C173.3 154.751 173.531 154.572 173.841 154.43C174.151 154.288 174.497 154.217 174.881 154.217C175.406 154.217 175.875 154.341 176.287 154.588C176.699 154.835 177.024 155.175 177.263 155.607C177.501 156.036 177.619 156.53 177.617 157.089C177.619 157.678 177.483 158.2 177.207 158.658C176.935 159.112 176.553 159.47 176.061 159.732C175.573 159.99 175.004 160.119 174.357 160.119Z" fill="black"/>
<path d="M177.571 158.466V157.013L181.215 151.273H182.468V153.284H181.726L179.429 156.919V156.987H184.607V158.466H177.571ZM181.76 160V158.023L181.794 157.379V151.273H183.525V160H181.76Z" fill="black"/>
<path d="M187.862 160.119C187.226 160.119 186.659 160.01 186.162 159.791C185.668 159.57 185.277 159.266 184.99 158.879C184.706 158.49 184.56 158.041 184.551 157.533H186.409C186.42 157.746 186.49 157.933 186.618 158.095C186.749 158.254 186.922 158.378 187.138 158.466C187.354 158.554 187.597 158.598 187.866 158.598C188.148 158.598 188.396 158.548 188.612 158.449C188.828 158.349 188.997 158.212 189.119 158.036C189.241 157.859 189.302 157.656 189.302 157.426C189.302 157.193 189.237 156.987 189.106 156.808C188.979 156.626 188.794 156.484 188.552 156.382C188.314 156.28 188.03 156.229 187.7 156.229H186.886V154.874H187.7C187.979 154.874 188.224 154.825 188.437 154.729C188.653 154.632 188.821 154.499 188.94 154.328C189.06 154.155 189.119 153.953 189.119 153.723C189.119 153.504 189.067 153.313 188.962 153.148C188.859 152.98 188.714 152.849 188.527 152.756C188.342 152.662 188.126 152.615 187.879 152.615C187.629 152.615 187.401 152.661 187.193 152.751C186.986 152.839 186.82 152.966 186.695 153.131C186.57 153.295 186.503 153.489 186.494 153.71H184.726C184.734 153.207 184.878 152.764 185.156 152.381C185.435 151.997 185.81 151.697 186.281 151.482C186.756 151.263 187.291 151.153 187.888 151.153C188.49 151.153 189.017 151.263 189.469 151.482C189.92 151.7 190.271 151.996 190.521 152.368C190.774 152.737 190.899 153.152 190.896 153.612C190.899 154.101 190.747 154.509 190.44 154.835C190.136 155.162 189.74 155.369 189.251 155.457V155.526C189.893 155.608 190.382 155.831 190.717 156.195C191.055 156.555 191.223 157.007 191.22 157.55C191.223 158.047 191.079 158.489 190.79 158.875C190.503 159.261 190.106 159.565 189.601 159.787C189.095 160.009 188.516 160.119 187.862 160.119Z" fill="black"/>
<path d="M194.534 160.119C193.932 160.119 193.395 160.009 192.923 159.787C192.454 159.565 192.082 159.26 191.807 158.871C191.531 158.482 191.388 158.036 191.376 157.533H193.166C193.186 157.871 193.328 158.145 193.592 158.355C193.856 158.565 194.17 158.67 194.534 158.67C194.824 158.67 195.079 158.607 195.301 158.479C195.525 158.348 195.7 158.168 195.825 157.938C195.953 157.705 196.017 157.438 196.017 157.136C196.017 156.83 195.952 156.56 195.821 156.327C195.693 156.094 195.515 155.912 195.288 155.781C195.061 155.651 194.801 155.584 194.508 155.581C194.253 155.581 194.004 155.634 193.763 155.739C193.524 155.844 193.338 155.987 193.204 156.169L191.564 155.875L191.977 151.273H197.312V152.781H193.498L193.273 154.967H193.324C193.477 154.751 193.709 154.572 194.018 154.43C194.328 154.288 194.675 154.217 195.058 154.217C195.584 154.217 196.052 154.341 196.464 154.588C196.876 154.835 197.202 155.175 197.44 155.607C197.679 156.036 197.797 156.53 197.794 157.089C197.797 157.678 197.66 158.2 197.385 158.658C197.112 159.112 196.73 159.47 196.239 159.732C195.75 159.99 195.182 160.119 194.534 160.119Z" fill="black"/>
</svg>
