<svg width="401" height="269" viewBox="0 0 401 269" fill="none" xmlns="http://www.w3.org/2000/svg">
<rect x="6" y="9" width="374.638" height="237.181" rx="8" fill="#F8F4D2"/>
<path d="M6 17C6 12.5817 9.58172 9 14 9H372.638C377.056 9 380.638 12.5817 380.638 17V53.4714H6V17Z" fill="#D26339"/>
<path d="M6 238.181C6 242.599 9.58172 246.181 14 246.181H372.638C377.056 246.181 380.638 242.599 380.638 238.181V190.929H6V238.181Z" fill="#D26339"/>
<rect x="23.519" y="69.6428" width="150.933" height="16.1714" rx="8.08571" fill="black" fill-opacity="0.1"/>
<rect x="23.519" y="23.8238" width="150.933" height="16.1714" rx="8.08571" fill="black" fill-opacity="0.1"/>
<rect x="23.519" y="128.938" width="247.962" height="16.1714" rx="8.08571" fill="black" fill-opacity="0.1"/>
<rect x="23.519" y="158.586" width="247.962" height="16.1714" rx="8.08571" fill="black" fill-opacity="0.1"/>
<rect x="23.519" y="99.2905" width="113.2" height="16.1714" rx="8.08571" fill="black" fill-opacity="0.1"/>
<rect x="23.519" y="211.143" width="47.1667" height="16.1714" rx="8.08571" fill="black" fill-opacity="0.1"/>
<rect x="136.719" y="211.143" width="223.705" height="16.1714" rx="8.08571" fill="black" fill-opacity="0.1"/>
<rect x="271.481" y="69.6428" width="88.9428" height="16.1714" rx="8.08571" fill="black" fill-opacity="0.1"/>
<rect x="271.481" y="23.8238" width="88.9428" height="16.1714" rx="8.08571" fill="black" fill-opacity="0.1"/>
<path d="M377.943 243.486L6 9" stroke="white" stroke-width="20"/>
<path d="M369.857 237.421L20.1501 17.7595" stroke="black" stroke-width="2" stroke-dasharray="6 6"/>
<g clip-path="url(#clip0_876_4848)">
<path d="M376.694 244.878L362.453 244.583C362.23 244.578 362.108 244.848 362.263 245.01L364.239 247.075C364.285 247.123 364.349 247.153 364.414 247.153L376.634 247.406L376.539 251.44C375.762 251.638 375.023 252.03 374.402 252.624C372.487 254.456 372.42 257.498 374.253 259.412C376.085 261.327 379.126 261.394 381.04 259.561C382.955 257.729 383.022 254.688 381.19 252.774C380.585 252.142 379.85 251.712 379.069 251.485L379.164 247.459L383.192 247.543C383.392 248.361 383.804 249.112 384.387 249.719C386.219 251.633 389.26 251.7 391.174 249.868C393.089 248.036 393.156 244.995 391.324 243.08C389.492 241.166 386.451 241.099 384.536 242.931C383.915 243.525 383.491 244.246 383.259 245.014L379.224 244.932L379.509 232.712C379.51 232.645 379.485 232.582 379.439 232.534L377.461 230.466C377.306 230.304 377.031 230.41 377.026 230.638L376.694 244.878ZM379.549 254.348C380.512 255.355 380.477 256.958 379.47 257.921C378.464 258.884 376.861 258.848 375.898 257.842C374.935 256.836 374.97 255.233 375.976 254.27C376.983 253.307 378.586 253.342 379.549 254.348ZM389.681 244.652C390.644 245.659 390.609 247.262 389.602 248.225C388.596 249.188 386.993 249.153 386.03 248.146C385.067 247.14 385.102 245.537 386.108 244.574C387.115 243.611 388.718 243.646 389.681 244.652Z" fill="black"/>
</g>
<path fill-rule="evenodd" clip-rule="evenodd" d="M173.913 99.0284L168.212 95.4318C168.211 95.1377 168.21 94.8437 168.21 94.55V90.8255C168.607 90.1799 169.278 89.8571 170.221 89.8571C171.165 89.8571 171.86 90.0806 172.307 90.5275C172.754 90.9745 173.052 91.5456 173.201 92.2408C173.35 92.8864 173.425 93.6065 173.425 94.401C173.425 95.1459 173.449 95.8412 173.499 96.4868C173.499 96.5364 173.524 96.6357 173.573 96.7847C173.623 96.884 173.673 97.1572 173.722 97.6041C173.802 97.9209 173.865 98.3957 173.913 99.0284ZM208.509 120.855L202.258 116.911C202.341 114.434 202.439 111.972 202.55 109.523C202.749 109.026 203.072 108.629 203.519 108.331C203.966 108.033 204.437 107.884 204.934 107.884C205.133 107.884 205.431 107.958 205.828 108.107C206.225 108.256 206.622 108.48 207.02 108.778C207.417 109.026 207.765 109.299 208.062 109.597C208.36 109.895 208.509 110.193 208.509 110.491V120.855ZM241.084 141.406L235.509 137.889C235.711 137.827 235.913 137.765 236.113 137.705C237.156 137.358 238.174 136.811 239.167 136.066C239.714 135.769 240.483 135.322 241.476 134.726C242.47 134.13 243.438 133.484 244.382 132.789C245.375 132.044 246.219 131.324 246.914 130.629C247.659 129.933 248.032 129.338 248.032 128.841C248.032 128.791 248.007 128.766 247.957 128.766C247.858 128.766 247.808 128.742 247.808 128.692L247.659 128.543C247.411 128.444 247.014 128.32 246.467 128.171C245.921 128.022 245.598 127.922 245.499 127.873C239.093 127.128 233.928 126.482 230.005 125.936C226.131 125.34 223.127 124.719 220.992 124.074C218.906 123.428 217.515 122.683 216.82 121.839C216.125 120.995 215.777 119.927 215.777 118.636C215.777 118.139 215.877 117.593 216.075 116.997C216.274 116.401 216.497 115.805 216.746 115.209C217.044 114.613 217.342 114.067 217.64 113.57C217.938 113.074 218.211 112.677 218.459 112.379C219.254 111.385 220.296 110.492 221.588 109.697C222.879 108.902 224.269 108.207 225.759 107.611C227.249 107.015 228.739 106.494 230.228 106.047C231.768 105.6 233.158 105.203 234.4 104.855C235.79 104.756 237.181 104.433 238.571 103.887C240.011 103.291 241.427 102.894 242.817 102.695C243.513 102.695 244.084 102.968 244.531 103.514C244.977 104.061 245.201 104.632 245.201 105.228C245.201 106.072 245.027 106.717 244.68 107.164C244.382 107.562 243.959 107.884 243.413 108.133C242.917 108.331 242.346 108.505 241.7 108.654C241.054 108.753 240.409 108.878 239.763 109.027C239.366 109.126 238.82 109.275 238.124 109.473C237.429 109.622 236.734 109.796 236.039 109.995C235.343 110.194 234.723 110.367 234.176 110.516C233.63 110.665 233.307 110.765 233.208 110.814C231.669 111.46 230.204 112.081 228.813 112.677C227.472 113.223 226.28 113.794 225.238 114.39C224.244 114.986 223.45 115.631 222.854 116.327C222.308 116.972 222.059 117.692 222.109 118.487V118.561C222.606 119.257 223.723 119.778 225.461 120.126C227.199 120.473 229.235 120.771 231.569 121.019C233.953 121.268 236.436 121.516 239.018 121.764C241.65 122.013 244.059 122.385 246.244 122.882C248.429 123.378 250.241 124.049 251.682 124.893C253.122 125.737 253.867 126.879 253.916 128.32C253.916 128.866 253.792 129.511 253.544 130.256C253.345 131.001 253.047 131.572 252.65 131.97C251.409 133.36 249.919 134.8 248.181 136.29C246.492 137.78 244.655 139.17 242.668 140.461C242.145 140.788 241.617 141.103 241.084 141.406ZM260.174 137.929C260.422 139.667 260.794 141.529 261.291 143.516C261.787 144.161 262.185 144.608 262.483 144.856C262.83 145.105 263.377 145.229 264.122 145.229C265.661 145.229 267.101 144.732 268.442 143.739C269.832 142.696 271.099 141.479 272.241 140.089C273.383 138.649 274.426 137.159 275.37 135.62C276.363 134.03 277.207 132.69 277.902 131.597C278.349 131.001 278.995 130.231 279.839 129.288C280.683 128.295 281.527 127.277 282.372 126.234C283.216 125.191 283.936 124.198 284.532 123.254C285.177 122.261 285.5 121.466 285.5 120.87C285.5 120.473 285.302 120.051 284.904 119.604C284.507 119.157 284.184 118.884 283.936 118.785C283.737 118.685 283.39 118.636 282.893 118.636C282.446 118.586 282.148 118.636 281.999 118.785C281.9 118.785 281.652 118.983 281.254 119.381C280.907 119.778 280.634 120.076 280.435 120.275C278.101 123.155 276.189 125.539 274.699 127.426C273.209 129.313 272.017 130.827 271.124 131.97C270.23 133.112 269.584 133.931 269.187 134.428C268.839 134.924 268.616 135.247 268.516 135.396C268.318 135.644 268.02 135.967 267.623 136.364C267.225 136.762 267.002 136.96 266.952 136.96H266.654C266.654 135.173 266.53 133.41 266.282 131.672C266.033 129.884 265.909 128.096 265.909 126.308V125.563V124.595C265.959 124.297 265.984 124.024 265.984 123.776V123.403L277.604 113.049C278.15 112.652 278.548 112.081 278.796 111.336C279.044 110.591 279.169 109.92 279.169 109.324C279.169 108.729 278.945 108.157 278.498 107.611C278.051 107.065 277.555 106.792 277.008 106.792C276.959 106.792 276.462 107.189 275.519 107.984C274.575 108.729 273.482 109.598 272.241 110.591C270.999 111.584 269.783 112.577 268.591 113.57C267.399 114.514 266.53 115.184 265.984 115.582L265.909 115.656H265.835C265.785 115.656 265.686 115.234 265.537 114.39C265.438 113.496 265.338 112.503 265.239 111.41C265.14 110.268 265.04 109.176 264.941 108.133C264.842 107.09 264.792 106.37 264.792 105.972C264.792 105.724 264.817 105.401 264.866 105.004C264.916 104.607 265.09 104.358 265.388 104.259L273.582 100.758L273.88 100.46L283.638 95.7673C284.184 95.519 284.532 95.1465 284.681 94.6499C284.83 94.1533 284.904 93.6567 284.904 93.1601C284.904 92.6138 284.78 92.2166 284.532 91.9683C284.333 91.6703 283.936 91.4717 283.34 91.3723C283.042 91.2234 282.67 91.1737 282.223 91.2234C281.825 91.273 281.031 91.5213 279.839 91.9683C278.647 92.4152 276.884 93.1353 274.55 94.1285C272.216 95.1217 268.963 96.5122 264.792 98.2999C264.693 98.2999 264.494 98.3496 264.196 98.4489C263.898 98.4986 263.675 98.5482 263.526 98.5979H263.228C262.93 98.5979 262.657 98.4489 262.408 98.151C262.21 97.853 261.936 97.704 261.589 97.704C259.95 97.704 258.808 98.0268 258.162 98.6724C257.517 99.318 257.194 100.435 257.194 102.024C257.194 102.869 257.393 103.614 257.79 104.259C258.187 104.905 258.411 105.65 258.46 106.494C258.51 106.941 258.56 107.76 258.609 108.952C258.709 110.144 258.808 111.41 258.907 112.751C259.007 114.092 259.106 115.358 259.205 116.55C259.304 117.742 259.354 118.586 259.354 119.083V120.2C259.354 120.647 259.255 121.044 259.056 121.392C258.907 121.69 258.733 121.988 258.535 122.286C258.386 122.534 258.212 122.807 258.013 123.105C257.864 123.403 257.79 123.751 257.79 124.148C257.79 124.645 257.864 125.017 258.013 125.265C258.162 125.464 258.311 125.638 258.46 125.787C258.659 125.936 258.833 126.06 258.982 126.159C259.18 126.259 259.304 126.408 259.354 126.606C259.602 127.599 259.702 128.518 259.652 129.362C259.602 130.157 259.602 131.125 259.652 132.267C259.751 134.254 259.925 136.141 260.174 137.929ZM297.419 142.771C297.419 142.324 297.568 141.926 297.866 141.579C298.213 141.231 298.387 140.859 298.387 140.461C298.387 140.362 298.288 140.238 298.089 140.089C297.89 139.94 297.766 139.841 297.717 139.791C297.22 139.046 296.947 138.202 296.897 137.258C296.848 136.315 296.823 135.421 296.823 134.577C296.823 130.008 296.848 125.489 296.897 121.019C296.947 116.55 296.972 112.031 296.972 107.462C296.475 107.462 296.003 107.586 295.556 107.835C295.109 108.033 294.638 108.282 294.141 108.58C293.644 108.828 293.123 109.076 292.577 109.324C292.031 109.523 291.435 109.622 290.789 109.622H289.597C289.498 109.473 289.25 109.349 288.852 109.25C288.455 109.101 288.256 108.927 288.256 108.729V106.494C288.505 106.345 288.703 106.146 288.852 105.898C289.051 105.6 289.2 105.352 289.299 105.153L296.823 101.429L297.121 101.056C297.021 99.6656 297.096 98.5482 297.344 97.704C297.592 96.8598 298.462 96.4377 299.951 96.4377C300.349 96.4377 300.771 96.5122 301.218 96.6611C301.714 96.8101 302.161 97.0088 302.558 97.2571C303.005 97.5054 303.328 97.8282 303.527 98.2254C303.775 98.6227 303.85 99.0697 303.75 99.5663C306.233 99.6656 308.692 99.8642 311.125 100.162C313.558 100.41 315.743 101.006 317.68 101.95C319.617 102.844 321.181 104.185 322.373 105.972C323.614 107.76 324.235 110.218 324.235 113.347C324.235 116.178 323.689 119.008 322.596 121.839C321.504 124.669 319.94 127.103 317.903 129.139L303.75 143.218C303.055 143.913 302.459 144.409 301.963 144.707C301.516 145.005 300.845 145.154 299.951 145.154C299.206 145.154 298.586 144.956 298.089 144.558C297.642 144.111 297.419 143.516 297.419 142.771ZM304.048 135.694L303.75 135.88V105.153C304.048 104.905 304.545 104.756 305.24 104.706C305.985 104.607 306.432 104.557 306.581 104.557C308.22 104.557 309.759 104.731 311.199 105.079C312.639 105.426 313.881 105.997 314.924 106.792C316.016 107.537 316.885 108.53 317.531 109.771C318.177 110.963 318.499 112.428 318.499 114.166C318.499 116.004 318.152 117.767 317.457 119.455C316.811 121.094 315.967 122.683 314.924 124.223C313.881 125.712 312.714 127.128 311.423 128.468C310.181 129.809 308.989 131.076 307.847 132.267C307.599 132.516 307.276 132.814 306.879 133.161C306.482 133.509 306.084 133.881 305.687 134.279C305.29 134.626 304.917 134.949 304.57 135.247C304.272 135.495 304.098 135.644 304.048 135.694Z" fill="black"/>
<path fill-rule="evenodd" clip-rule="evenodd" d="M185.483 138.079L191.187 141.678C189.848 142.415 188.478 143.077 187.075 143.664C184.989 144.509 182.928 145.005 180.892 145.154C180.197 145.154 179.551 144.906 178.955 144.409C178.359 143.863 178.061 143.218 178.061 142.473C178.856 141.38 179.725 140.561 180.669 140.014C181.662 139.468 182.655 139.021 183.648 138.674C184.269 138.467 184.88 138.269 185.483 138.079ZM152.828 117.478L159.099 121.434V132.466C159.447 134.7 159.72 136.96 159.918 139.244C160.117 141.479 160.39 143.714 160.738 145.948C160.738 146.197 160.787 146.718 160.887 147.513C161.036 148.257 161.185 149.077 161.334 149.971C161.483 150.865 161.607 151.684 161.706 152.429C161.855 153.174 161.954 153.646 162.004 153.844V154.738C162.004 156.526 161.036 157.494 159.099 157.643C158.255 157.743 157.535 157.37 156.939 156.526C156.392 155.731 155.945 154.664 155.598 153.323C155.25 152.032 154.952 150.567 154.704 148.928C154.505 147.289 154.332 145.7 154.183 144.161C154.034 142.621 153.885 141.231 153.736 139.989C153.587 138.698 153.388 137.779 153.14 137.233C152.593 138.276 151.923 139.443 151.128 140.734C150.384 142.025 149.49 143.267 148.447 144.458C147.454 145.601 146.361 146.569 145.169 147.364C144.027 148.158 142.786 148.555 141.445 148.555C139.756 148.555 138.415 148.059 137.422 147.066C136.429 146.072 135.659 144.856 135.113 143.416C134.616 141.926 134.294 140.386 134.145 138.797C133.996 137.158 133.921 135.693 133.921 134.402V132.466C133.971 132.068 134.021 131.472 134.07 130.678C134.169 129.883 134.269 128.989 134.368 127.996C134.517 126.953 134.641 125.886 134.741 124.793C134.84 123.651 134.939 122.583 135.039 121.59C135.188 120.547 135.287 119.628 135.337 118.834L135.56 117.046C135.361 116.549 135.287 116.053 135.337 115.556C135.436 115.01 135.61 114.538 135.858 114.141C136.156 113.694 136.528 113.346 136.975 113.098C137.422 112.8 137.919 112.651 138.465 112.651C138.614 112.651 138.862 112.701 139.21 112.8C139.607 112.899 140.005 113.048 140.402 113.247C140.799 113.446 141.147 113.669 141.445 113.917C141.743 114.116 141.892 114.315 141.892 114.513V117.344C141.196 122.707 140.749 126.978 140.551 130.156C140.352 133.335 140.278 135.818 140.327 137.605C140.377 139.343 140.526 140.535 140.774 141.181C141.023 141.826 141.271 142.273 141.519 142.522C142.115 142.77 142.686 142.845 143.232 142.745C143.828 142.596 144.524 142.124 145.318 141.33C146.113 140.535 147.056 139.319 148.149 137.68C149.291 135.991 150.657 133.757 152.246 130.976C152.345 130.827 152.444 130.554 152.544 130.156C152.693 129.759 152.792 129.486 152.842 129.337C152.742 126.059 152.718 122.757 152.767 119.43C152.787 118.778 152.807 118.127 152.828 117.478ZM118.805 96.0125L124.546 99.6349C124.642 100.473 124.738 101.633 124.833 103.116C124.982 104.656 125.107 106.593 125.206 108.927C125.355 111.261 125.529 114.116 125.727 117.493V118.834L128.26 135.445C128.31 135.842 128.508 136.463 128.856 137.307C129.253 138.102 129.452 138.723 129.452 139.17C129.452 140.213 129.154 141.057 128.558 141.702C127.962 142.348 127.118 142.671 126.025 142.671C125.876 142.671 125.678 142.621 125.429 142.522L124.684 142.075L123.939 141.628L123.493 141.181L111.5 124.123C111.45 124.123 111.4 124.048 111.351 123.899C111.301 123.701 111.251 123.552 111.202 123.452C110.904 123.005 110.506 122.459 110.01 121.813C109.513 121.118 109.041 120.448 108.595 119.802C108.148 119.107 107.75 118.511 107.403 118.014C107.055 117.518 106.881 117.245 106.881 117.195L106.509 116.897C106.26 121.615 106.062 126.382 105.913 131.199C105.764 135.967 105.764 140.734 105.913 145.501C105.814 146.097 105.491 146.619 104.944 147.066C104.448 147.513 103.926 147.736 103.38 147.736C102.387 147.736 101.592 147.488 100.996 146.991C100.45 146.445 99.9785 145.75 99.5812 144.905V138.425C99.5812 135.395 99.6308 132.366 99.7302 129.337C99.8791 126.258 100.028 123.204 100.177 120.175C100.326 117.096 100.425 114.042 100.475 111.012C100.574 107.933 100.574 104.879 100.475 101.85C100.624 101.304 100.897 100.906 101.294 100.658C101.692 100.36 102.164 100.211 102.71 100.211C103.753 100.211 104.547 100.41 105.093 100.807C105.64 101.155 106.037 101.651 106.285 102.297C106.534 102.943 106.683 103.663 106.732 104.457L106.881 106.841C107.477 107.933 108.172 109.001 108.967 110.044C109.811 111.037 110.556 112.055 111.202 113.098C111.202 113.148 111.226 113.272 111.276 113.471C111.375 113.62 111.45 113.694 111.5 113.694C111.798 114.141 112.17 114.737 112.617 115.482C113.114 116.177 113.585 116.872 114.032 117.567C114.479 118.213 114.852 118.784 115.15 119.281L115.671 120.026L115.969 120.398L120.289 126.655C120.488 126.854 120.662 126.953 120.811 126.953H120.96C120.314 121.689 119.793 116.326 119.396 110.863C119.034 105.851 118.837 100.901 118.805 96.0125ZM86.5454 140.734C87.3399 139.443 88.0104 138.276 88.5566 137.233C88.8049 137.779 89.0036 138.698 89.1525 139.989C89.3015 141.231 89.4505 142.621 89.5995 144.161C89.7485 145.7 89.9223 147.289 90.1209 148.928C90.3692 150.567 90.6672 152.032 91.0148 153.323C91.3624 154.664 91.8094 155.731 92.3556 156.526C92.9515 157.37 93.6716 157.743 94.5158 157.643C96.4526 157.494 97.421 156.526 97.421 154.738V153.844C97.3713 153.646 97.272 153.174 97.123 152.429C97.0237 151.684 96.8995 150.865 96.7505 149.971C96.6016 149.077 96.4526 148.257 96.3036 147.513C96.2043 146.718 96.1546 146.197 96.1546 145.948C95.807 143.714 95.5339 141.479 95.3352 139.244C95.1366 136.96 94.8635 134.7 94.5158 132.466V110.491C94.5158 110.193 94.3669 109.895 94.0689 109.597C93.7709 109.299 93.4233 109.026 93.026 108.778C92.6288 108.48 92.2315 108.256 91.8342 108.107C91.4369 107.958 91.139 107.884 90.9403 107.884C90.4437 107.884 89.9719 108.033 89.525 108.331C89.0781 108.629 88.7553 109.026 88.5566 109.523C88.4076 112.8 88.2835 116.103 88.1842 119.43C88.1345 122.757 88.1593 126.059 88.2587 129.337C88.209 129.486 88.1097 129.759 87.9607 130.156C87.8614 130.554 87.7621 130.827 87.6627 130.976C86.0736 133.757 84.708 135.991 83.5658 137.68C82.4733 139.319 81.5297 140.535 80.7351 141.33C79.9406 142.124 79.2453 142.596 78.6494 142.745C78.1032 142.845 77.5321 142.77 76.9361 142.522C76.6878 142.273 76.4395 141.826 76.1912 141.181C75.9429 140.535 75.794 139.343 75.7443 137.605C75.6946 135.818 75.7691 133.335 75.9678 130.156C76.1664 126.978 76.6133 122.707 77.3086 117.344V114.513C77.3086 114.315 77.1596 114.116 76.8617 113.917C76.5637 113.669 76.2161 113.446 75.8188 113.247C75.4215 113.048 75.0242 112.899 74.6269 112.8C74.2793 112.701 74.031 112.651 73.882 112.651C73.3358 112.651 72.8392 112.8 72.3922 113.098C71.9453 113.346 71.5728 113.694 71.2749 114.141C71.0266 114.538 70.8528 115.01 70.7534 115.556C70.7038 116.053 70.7783 116.549 70.9769 117.046L70.7534 118.834C70.7038 119.628 70.6045 120.547 70.4555 121.59C70.3562 122.583 70.2568 123.651 70.1575 124.793C70.0582 125.886 69.9341 126.953 69.7851 127.996C69.6858 128.989 69.5864 129.883 69.4871 130.678C69.4375 131.472 69.3878 132.068 69.3381 132.466V134.402C69.3381 135.693 69.4126 137.158 69.5616 138.797C69.7106 140.386 70.0334 141.926 70.53 143.416C71.0762 144.856 71.846 146.072 72.8392 147.066C73.8324 148.059 75.1732 148.555 76.8617 148.555C78.2025 148.555 79.444 148.158 80.5862 147.364C81.778 146.569 82.8705 145.601 83.8637 144.458C84.9066 143.267 85.8005 142.025 86.5454 140.734Z" fill="black"/>
<defs>
<clipPath id="clip0_876_4848">
<rect width="32.3428" height="32.3428" fill="white" transform="translate(377.395 269) rotate(-133.74)"/>
</clipPath>
</defs>
</svg>
