<svg width="278" height="176" viewBox="0 0 278 176" fill="none" xmlns="http://www.w3.org/2000/svg">
<path d="M0 8C0 3.58173 3.58172 0 8 0H270C274.418 0 278 3.58172 278 8V168C278 172.418 274.418 176 270 176H8.00001C3.58173 176 0 172.418 0 168V8Z" fill="#F8F4D2"/>
<path d="M0 8C0 3.58172 3.58172 0 8 0H270C274.418 0 278 3.58172 278 8V33H0V8Z" fill="#A1C3D9"/>
<path d="M0 168C0 172.418 3.58172 176 8 176H270C274.418 176 278 172.418 278 168V135H0V168Z" fill="#A1C3D9"/>
<path fill-rule="evenodd" clip-rule="evenodd" d="M238 44.5C238.828 44.5 239.5 45.1716 239.5 46V79.3787L246.485 72.3934C247.071 71.8076 248.021 71.8076 248.607 72.3934C249.192 72.9792 249.192 73.9289 248.607 74.5147L239.061 84.0607C238.475 84.6464 237.525 84.6464 236.939 84.0607L227.393 74.5147C226.808 73.9289 226.808 72.9792 227.393 72.3934C227.979 71.8076 228.929 71.8076 229.515 72.3934L236.5 79.3787V46C236.5 45.1716 237.172 44.5 238 44.5Z" fill="black"/>
<path d="M13 77C13 71.4772 17.4772 67 23 67H174C179.523 67 184 71.4772 184 77V91C184 96.5228 179.523 101 174 101H23C17.4772 101 13 96.5228 13 91V77Z" fill="black" fill-opacity="0.1"/>
<path d="M13 117C13 113.686 15.6863 111 19 111H78C81.3137 111 84 113.686 84 117C84 120.314 81.3137 123 78 123H19C15.6863 123 13 120.314 13 117Z" fill="black" fill-opacity="0.1"/>
<path d="M13 51C13 47.6863 15.6863 45 19 45H148C151.314 45 154 47.6863 154 51C154 54.3137 151.314 57 148 57H19C15.6863 57 13 54.3137 13 51Z" fill="black" fill-opacity="0.1"/>
<path d="M13 17C13 13.6863 15.6863 11 19 11H148C151.314 11 154 13.6863 154 17C154 20.3137 151.314 23 148 23H19C15.6863 23 13 20.3137 13 17Z" fill="black" fill-opacity="0.1"/>
<path d="M24 156C24 152.686 26.6863 150 30 150H248C251.314 150 254 152.686 254 156C254 159.314 251.314 162 248 162H30C26.6863 162 24 159.314 24 156Z" fill="black" fill-opacity="0.1"/>
<path d="M197 17C197 13.6863 199.686 11 203 11H257C260.314 11 263 13.6863 263 17C263 20.3137 260.314 23 257 23H203C199.686 23 197 20.3137 197 17Z" fill="black" fill-opacity="0.1"/>
<path d="M223.307 94.2727V103H222.285L217.529 96.1477H217.444V103H216.387V94.2727H217.41L222.182 101.142H222.268V94.2727H223.307Z" fill="black"/>
<path d="M229.411 100.324V96.4546H230.416V103H229.411V101.892H229.343C229.189 102.224 228.95 102.507 228.627 102.74C228.303 102.97 227.894 103.085 227.399 103.085C226.99 103.085 226.627 102.996 226.308 102.817C225.99 102.635 225.74 102.362 225.558 101.999C225.377 101.632 225.286 101.17 225.286 100.614V96.4546H226.291V100.545C226.291 101.023 226.425 101.403 226.692 101.688C226.962 101.972 227.306 102.114 227.723 102.114C227.973 102.114 228.227 102.05 228.486 101.922C228.747 101.794 228.966 101.598 229.142 101.334C229.321 101.07 229.411 100.733 229.411 100.324Z" fill="black"/>
<path d="M232.258 103V96.4546H233.23V97.4773H233.315C233.452 97.1278 233.672 96.8565 233.976 96.6634C234.28 96.4673 234.645 96.3693 235.071 96.3693C235.503 96.3693 235.862 96.4673 236.149 96.6634C236.439 96.8565 236.665 97.1278 236.827 97.4773H236.895C237.062 97.1392 237.314 96.8707 237.649 96.6719C237.984 96.4702 238.386 96.3693 238.855 96.3693C239.44 96.3693 239.919 96.5526 240.291 96.919C240.663 97.2827 240.849 97.8494 240.849 98.6193V103H239.844V98.6193C239.844 98.1364 239.711 97.7912 239.447 97.5838C239.183 97.3764 238.872 97.2727 238.514 97.2727C238.054 97.2727 237.697 97.4119 237.444 97.6903C237.192 97.9659 237.065 98.3153 237.065 98.7386V103H236.042V98.5171C236.042 98.1449 235.922 97.8452 235.68 97.6179C235.439 97.3878 235.128 97.2727 234.747 97.2727C234.486 97.2727 234.241 97.3423 234.014 97.4815C233.79 97.6207 233.608 97.8139 233.469 98.0611C233.332 98.3054 233.264 98.5881 233.264 98.9091V103H232.258Z" fill="black"/>
<path d="M242.824 103V94.2727H243.83V97.4943H243.915C243.989 97.3807 244.091 97.2358 244.222 97.0597C244.356 96.8807 244.546 96.7216 244.793 96.5824C245.043 96.4403 245.381 96.3693 245.807 96.3693C246.358 96.3693 246.844 96.5071 247.265 96.7827C247.685 97.0582 248.013 97.4489 248.249 97.9546C248.485 98.4602 248.603 99.0568 248.603 99.7443C248.603 100.438 248.485 101.038 248.249 101.547C248.013 102.053 247.687 102.445 247.269 102.723C246.851 102.999 246.37 103.136 245.824 103.136C245.404 103.136 245.067 103.067 244.814 102.928C244.562 102.786 244.367 102.625 244.231 102.446C244.094 102.264 243.989 102.114 243.915 101.994H243.796V103H242.824ZM243.813 99.7273C243.813 100.222 243.885 100.658 244.03 101.036C244.175 101.411 244.387 101.705 244.665 101.918C244.944 102.128 245.285 102.233 245.688 102.233C246.108 102.233 246.459 102.122 246.741 101.901C247.025 101.676 247.238 101.375 247.38 100.997C247.525 100.616 247.597 100.193 247.597 99.7273C247.597 99.2671 247.526 98.8523 247.384 98.483C247.245 98.1108 247.033 97.8168 246.749 97.6009C246.468 97.3821 246.114 97.2727 245.688 97.2727C245.279 97.2727 244.935 97.3764 244.657 97.5838C244.378 97.7884 244.168 98.0753 244.026 98.4446C243.884 98.8111 243.813 99.2386 243.813 99.7273Z" fill="black"/>
<path d="M252.885 103.136C252.255 103.136 251.711 102.997 251.253 102.719C250.799 102.438 250.448 102.045 250.201 101.543C249.957 101.037 249.834 100.449 249.834 99.7784C249.834 99.108 249.957 98.5171 250.201 98.0057C250.448 97.4915 250.792 97.0909 251.232 96.804C251.675 96.5142 252.192 96.3693 252.783 96.3693C253.124 96.3693 253.461 96.4261 253.793 96.5398C254.126 96.6534 254.428 96.8381 254.701 97.0938C254.974 97.3466 255.191 97.6818 255.353 98.0994C255.515 98.5171 255.596 99.0313 255.596 99.6421V100.068H250.55V99.1989H254.573C254.573 98.8296 254.499 98.5 254.351 98.2102C254.207 97.9205 253.999 97.6918 253.729 97.5242C253.462 97.3565 253.147 97.2727 252.783 97.2727C252.383 97.2727 252.036 97.3722 251.743 97.571C251.454 97.7671 251.231 98.0227 251.074 98.3381C250.918 98.6534 250.84 98.9915 250.84 99.3523V99.9318C250.84 100.426 250.925 100.845 251.096 101.189C251.269 101.53 251.509 101.79 251.816 101.969C252.123 102.145 252.479 102.233 252.885 102.233C253.15 102.233 253.388 102.196 253.601 102.122C253.817 102.045 254.003 101.932 254.16 101.781C254.316 101.628 254.437 101.438 254.522 101.21L255.493 101.483C255.391 101.813 255.219 102.102 254.978 102.352C254.736 102.599 254.438 102.793 254.083 102.932C253.728 103.068 253.329 103.136 252.885 103.136Z" fill="black"/>
<path d="M257.126 103V96.4546H258.097V97.4432H258.165C258.285 97.1193 258.501 96.8565 258.813 96.6548C259.126 96.4531 259.478 96.3523 259.87 96.3523C259.944 96.3523 260.036 96.3537 260.147 96.3565C260.258 96.3594 260.341 96.3636 260.398 96.3693V97.3921C260.364 97.3835 260.286 97.3707 260.164 97.3537C260.045 97.3338 259.918 97.3239 259.785 97.3239C259.466 97.3239 259.182 97.3906 258.932 97.5242C258.685 97.6548 258.489 97.8367 258.344 98.0696C258.202 98.2997 258.131 98.5625 258.131 98.858V103H257.126Z" fill="black"/>
<path d="M219.309 119.192C218.576 119.189 217.945 119.009 217.417 118.651C216.891 118.293 216.487 117.774 216.202 117.095C215.921 116.416 215.782 115.599 215.785 114.645C215.785 113.693 215.925 112.882 216.207 112.212C216.491 111.541 216.896 111.031 217.421 110.682C217.95 110.33 218.579 110.153 219.309 110.153C220.039 110.153 220.667 110.33 221.193 110.682C221.721 111.034 222.127 111.545 222.411 112.216C222.695 112.884 222.836 113.693 222.833 114.645C222.833 115.602 222.691 116.42 222.407 117.099C222.126 117.778 221.722 118.297 221.197 118.655C220.671 119.013 220.042 119.192 219.309 119.192ZM219.309 117.662C219.809 117.662 220.208 117.41 220.506 116.908C220.805 116.405 220.952 115.651 220.95 114.645C220.95 113.983 220.881 113.432 220.745 112.991C220.612 112.551 220.421 112.22 220.174 111.999C219.93 111.777 219.641 111.666 219.309 111.666C218.812 111.666 218.414 111.915 218.116 112.412C217.818 112.909 217.667 113.653 217.664 114.645C217.664 115.315 217.731 115.875 217.864 116.324C218.001 116.77 218.193 117.105 218.44 117.33C218.687 117.551 218.977 117.662 219.309 117.662Z" fill="black"/>
<path d="M227.571 119.192C226.838 119.189 226.207 119.009 225.679 118.651C225.153 118.293 224.748 117.774 224.464 117.095C224.183 116.416 224.044 115.599 224.047 114.645C224.047 113.693 224.187 112.882 224.468 112.212C224.753 111.541 225.157 111.031 225.683 110.682C226.211 110.33 226.841 110.153 227.571 110.153C228.301 110.153 228.929 110.33 229.454 110.682C229.983 111.034 230.389 111.545 230.673 112.216C230.957 112.884 231.098 113.693 231.095 114.645C231.095 115.602 230.953 116.42 230.669 117.099C230.387 117.778 229.984 118.297 229.458 118.655C228.933 119.013 228.304 119.192 227.571 119.192ZM227.571 117.662C228.071 117.662 228.47 117.41 228.768 116.908C229.066 116.405 229.214 115.651 229.211 114.645C229.211 113.983 229.143 113.432 229.007 112.991C228.873 112.551 228.683 112.22 228.436 111.999C228.191 111.777 227.903 111.666 227.571 111.666C227.074 111.666 226.676 111.915 226.378 112.412C226.079 112.909 225.929 113.653 225.926 114.645C225.926 115.315 225.993 115.875 226.126 116.324C226.262 116.77 226.454 117.105 226.701 117.33C226.949 117.551 227.238 117.662 227.571 117.662Z" fill="black"/>
<path d="M235.666 119.119C235.01 119.119 234.426 119.013 233.915 118.8C233.406 118.584 233.007 118.29 232.717 117.918C232.428 117.545 232.283 117.124 232.283 116.652C232.283 116.288 232.365 115.955 232.53 115.651C232.697 115.344 232.925 115.089 233.212 114.888C233.499 114.683 233.82 114.553 234.175 114.496V114.436C233.709 114.342 233.331 114.116 233.041 113.759C232.751 113.398 232.607 112.979 232.607 112.501C232.607 112.05 232.739 111.648 233.003 111.295C233.267 110.94 233.629 110.662 234.09 110.46C234.553 110.256 235.078 110.153 235.666 110.153C236.254 110.153 236.778 110.256 237.239 110.46C237.702 110.665 238.065 110.945 238.33 111.3C238.594 111.652 238.727 112.053 238.73 112.501C238.727 112.982 238.58 113.401 238.287 113.759C237.994 114.116 237.619 114.342 237.162 114.436V114.496C237.511 114.553 237.828 114.683 238.112 114.888C238.399 115.089 238.626 115.344 238.794 115.651C238.965 115.955 239.051 116.288 239.054 116.652C239.051 117.124 238.905 117.545 238.615 117.918C238.325 118.29 237.925 118.584 237.413 118.8C236.905 119.013 236.322 119.119 235.666 119.119ZM235.666 117.764C235.959 117.764 236.215 117.712 236.433 117.607C236.652 117.499 236.822 117.351 236.945 117.163C237.07 116.973 237.132 116.754 237.132 116.507C237.132 116.254 237.068 116.031 236.94 115.838C236.813 115.642 236.639 115.489 236.42 115.378C236.202 115.264 235.95 115.207 235.666 115.207C235.385 115.207 235.134 115.264 234.912 115.378C234.69 115.489 234.516 115.642 234.388 115.838C234.263 116.031 234.2 116.254 234.2 116.507C234.2 116.754 234.261 116.973 234.384 117.163C234.506 117.351 234.678 117.499 234.899 117.607C235.121 117.712 235.376 117.764 235.666 117.764ZM235.666 113.865C235.911 113.865 236.128 113.815 236.318 113.716C236.509 113.616 236.658 113.479 236.766 113.303C236.874 113.126 236.928 112.923 236.928 112.693C236.928 112.466 236.874 112.267 236.766 112.097C236.658 111.923 236.51 111.788 236.322 111.692C236.135 111.592 235.916 111.543 235.666 111.543C235.419 111.543 235.2 111.592 235.01 111.692C234.82 111.788 234.67 111.923 234.563 112.097C234.457 112.267 234.405 112.466 234.405 112.693C234.405 112.923 234.459 113.126 234.567 113.303C234.675 113.479 234.824 113.616 235.014 113.716C235.205 113.815 235.422 113.865 235.666 113.865Z" fill="black"/>
<path d="M243.502 110.153C243.951 110.153 244.382 110.229 244.797 110.379C245.215 110.53 245.587 110.77 245.914 111.099C246.243 111.429 246.503 111.866 246.694 112.412C246.887 112.955 246.985 113.621 246.988 114.41C246.988 115.152 246.904 115.814 246.736 116.396C246.571 116.976 246.334 117.469 246.025 117.875C245.715 118.281 245.341 118.591 244.904 118.804C244.466 119.014 243.978 119.119 243.438 119.119C242.856 119.119 242.341 119.007 241.895 118.783C241.449 118.555 241.09 118.247 240.817 117.858C240.547 117.466 240.384 117.026 240.327 116.537H242.147C242.218 116.855 242.367 117.102 242.594 117.278C242.821 117.452 243.103 117.538 243.438 117.538C244.006 117.538 244.438 117.291 244.733 116.797C245.029 116.3 245.178 115.619 245.181 114.756H245.121C244.99 115.011 244.814 115.232 244.593 115.416C244.371 115.598 244.117 115.739 243.83 115.838C243.546 115.937 243.243 115.987 242.922 115.987C242.408 115.987 241.949 115.866 241.546 115.625C241.142 115.384 240.824 115.051 240.591 114.628C240.358 114.205 240.242 113.722 240.242 113.179C240.239 112.594 240.374 112.072 240.647 111.615C240.919 111.158 241.3 110.8 241.789 110.541C242.28 110.28 242.851 110.151 243.502 110.153ZM243.515 111.602C243.228 111.602 242.972 111.67 242.748 111.807C242.526 111.943 242.35 112.126 242.219 112.357C242.091 112.587 242.029 112.844 242.032 113.128C242.032 113.415 242.094 113.673 242.219 113.903C242.347 114.131 242.52 114.312 242.739 114.449C242.961 114.582 243.213 114.649 243.498 114.649C243.711 114.649 243.908 114.609 244.09 114.53C244.272 114.45 244.429 114.341 244.563 114.202C244.699 114.06 244.806 113.896 244.882 113.712C244.959 113.527 244.998 113.331 244.998 113.124C244.995 112.848 244.929 112.595 244.802 112.365C244.674 112.135 244.498 111.95 244.273 111.811C244.049 111.672 243.796 111.602 243.515 111.602Z" fill="black"/>
<path d="M251.688 119.192C250.955 119.189 250.324 119.009 249.796 118.651C249.27 118.293 248.865 117.774 248.581 117.095C248.3 116.416 248.161 115.599 248.164 114.645C248.164 113.693 248.304 112.882 248.586 112.212C248.87 111.541 249.275 111.031 249.8 110.682C250.329 110.33 250.958 110.153 251.688 110.153C252.418 110.153 253.046 110.33 253.571 110.682C254.1 111.034 254.506 111.545 254.79 112.216C255.074 112.884 255.215 113.693 255.212 114.645C255.212 115.602 255.07 116.42 254.786 117.099C254.505 117.778 254.101 118.297 253.576 118.655C253.05 119.013 252.421 119.192 251.688 119.192ZM251.688 117.662C252.188 117.662 252.587 117.41 252.885 116.908C253.184 116.405 253.331 115.651 253.329 114.645C253.329 113.983 253.26 113.432 253.124 112.991C252.99 112.551 252.8 112.22 252.553 111.999C252.309 111.777 252.02 111.666 251.688 111.666C251.191 111.666 250.793 111.915 250.495 112.412C250.196 112.909 250.046 113.653 250.043 114.645C250.043 115.315 250.11 115.875 250.243 116.324C250.38 116.77 250.571 117.105 250.819 117.33C251.066 117.551 251.355 117.662 251.688 117.662Z" fill="black"/>
</svg>
