<svg fill="none" height="373" viewBox="0 0 260 373" width="260" xmlns="http://www.w3.org/2000/svg" xmlns:xlink="http://www.w3.org/1999/xlink"><clipPath id="a"><path d="m0 0h260v373h-260z"/></clipPath><g clip-path="url(#a)"><path clip-rule="evenodd" d="m0 16c0-8.83656 7.16344-16 16-16h228c8.837 0 16 7.16344 16 16v27.0164c-.165-.0109-.332-.0164-.5-.0164-4.142 0-7.5 3.3579-7.5 7.5s3.358 7.5 7.5 7.5c.168 0 .335-.0055.5-.0164v299.0164c0 8.837-7.163 16-16 16h-228c-8.83656 0-16-7.163-16-16v-299.0164c3.90902-.2573 7-3.5095 7-7.4836s-3.09098-7.2263-7-7.4836z" fill="#ffc0cb" fill-rule="evenodd"/><path d="m43 30.5c0 6.9036-5.5964 12.5-12.5 12.5s-12.5-5.5964-12.5-12.5 5.5964-12.5 12.5-12.5 12.5 5.5964 12.5 12.5z" fill="#fd9a33"/><path d="m18 185c0-2.761 2.2386-5 5-5h79c2.761 0 5 2.239 5 5s-2.239 5-5 5h-79c-2.7614 0-5-2.239-5-5z" fill="#000" fill-opacity=".1"/><path d="m55 31c0-3.3137 2.6863-6 6-6h34c3.3137 0 6 2.6863 6 6s-2.6863 6-6 6h-34c-3.3137 0-6-2.6863-6-6z" fill="#000" fill-opacity=".1"/><path d="m116 31c0-3.3137 2.686-6 6-6h114c3.314 0 6 2.6863 6 6s-2.686 6-6 6h-114c-3.314 0-6-2.6863-6-6z" fill="#000" fill-opacity=".1"/><path d="m153 71c0-2.7614 2.239-5 5-5h79c2.761 0 5 2.2386 5 5s-2.239 5-5 5h-79c-2.761 0-5-2.2386-5-5z" fill="#000" fill-opacity=".1"/><path d="m18 71c0-2.7614 2.2386-5 5-5h79c2.761 0 5 2.2386 5 5s-2.239 5-5 5h-79c-2.7614 0-5-2.2386-5-5z" fill="#000" fill-opacity=".1"/><path d="m153 144c0-2.761 2.239-5 5-5h79c2.761 0 5 2.239 5 5s-2.239 5-5 5h-79c-2.761 0-5-2.239-5-5z" fill="#000" fill-opacity=".1"/><path d="m18 144c0-2.761 2.2386-5 5-5h79c2.761 0 5 2.239 5 5s-2.239 5-5 5h-79c-2.7614 0-5-2.239-5-5z" fill="#000" fill-opacity=".1"/><path d="m153 185c0-2.761 2.239-5 5-5h79c2.761 0 5 2.239 5 5s-2.239 5-5 5h-79c-2.761 0-5-2.239-5-5z" fill="#000" fill-opacity=".1"/><path d="m153 89c0-4.4183 3.582-8 8-8h73c4.418 0 8 3.5817 8 8v13c0 4.418-3.582 8-8 8h-73c-4.418 0-8-3.582-8-8z" fill="#000" fill-opacity=".1"/><path d="m18 89c0-4.4183 3.5817-8 8-8h73c4.418 0 8 3.5817 8 8v13c0 4.418-3.582 8-8 8h-73c-4.4183 0-8-3.582-8-8z" fill="#000" fill-opacity=".1"/><path d="m153 130c0-2.761 2.239-5 5-5h79c2.761 0 5 2.239 5 5s-2.239 5-5 5h-79c-2.761 0-5-2.239-5-5z" fill="#000" fill-opacity=".1"/><path d="m18 130c0-2.761 2.2386-5 5-5h79c2.761 0 5 2.239 5 5s-2.239 5-5 5h-79c-2.7614 0-5-2.239-5-5z" fill="#000" fill-opacity=".1"/><path d="m153 169c0-2.761 2.239-5 5-5h79c2.761 0 5 2.239 5 5s-2.239 5-5 5h-79c-2.761 0-5-2.239-5-5z" fill="#000" fill-opacity=".1"/><path d="m18 169c0-2.761 2.2386-5 5-5h79c2.761 0 5 2.239 5 5s-2.239 5-5 5h-79c-2.7614 0-5-2.239-5-5z" fill="#000" fill-opacity=".1"/><path d="m84 245.727c0-2.611 2.1165-4.727 4.7273-4.727h83.5457c2.611 0 4.727 2.116 4.727 4.727v95.546c0 2.611-2.116 4.727-4.727 4.727h-83.5457c-2.6108 0-4.7273-2.116-4.7273-4.727z" fill="#fff"/><path clip-rule="evenodd" d="m183.485 342.607-9.546-9.546c-.585-.586-.585-1.536 0-2.122l9.546-9.546c.586-.585 1.536-.585 2.122 0 .585.586.585 1.536 0 2.122l-6.986 6.985h33.379v3h-33.379l6.986 6.985c.585.586.585 1.536 0 2.122-.586.585-1.536.585-2.122 0z" fill="#000" fill-rule="evenodd"/><g fill="#050505"><path d="m99.7692 256.742h8.6538v8.727h-8.6538z"/><path clip-rule="evenodd" d="m110.962 254.1h-13.962v14.01h13.962zm-16.962-2.985v19.981h19.962v-19.981z" fill-rule="evenodd"/><path d="m99.7692 307.957h8.6538v8.727h-8.6538z"/><path clip-rule="evenodd" d="m110.962 305.316h-13.962v14.009h13.962zm-16.962-2.986v19.981h19.962v-19.981z" fill-rule="evenodd"/><path d="m151.231 256.742h8.654v8.727h-8.654z"/><path clip-rule="evenodd" d="m162.423 254.1h-13.961v14.01h13.961zm-16.961-2.985v19.981h19.961v-19.981z" fill-rule="evenodd"/><path d="m94 273.852h3v2.985h-3z"/><path d="m116.962 251.115h3v2.985h-3z"/><path d="m97 282.349h3v2.986h-3z"/><path d="m151.231 273.852h3v2.985h-3z"/><path d="m142.462 273.852h6v2.985h-6z"/><path d="m139.462 276.837h6v2.986h-6z"/><path d="m139.462 299h6v2.986h-6z"/><path d="m134.038 279.823h6v2.986h-6z"/><path d="m134.038 301.986h6v2.985h-6z"/><path d="m159.885 285.45h3v2.985h-3z"/><path d="m156.885 279.364h3v2.985h-3z"/><path d="m159.885 276.378h3v2.986h-3z"/><path d="m162.885 273.852h3v11.483h-3z"/><path d="m116.962 269.258h3v2.986h-3z"/><path d="m119.962 266.273h3v2.985h-3z"/><path d="m122.962 263.746h3v11.484h-3z"/><path d="m122.731 254.1v2.986h-3v-2.986z"/><path d="m125.731 257.086v2.986h-3v-2.986z"/><path d="m128.269 260.072v2.985h-11.538v-2.985z"/><path d="m156.885 304.971h3v2.986h-3z"/><path d="m162.885 302.33h3v2.986h-3z"/><path d="m145.462 302.33h3v2.986h-3z"/><path d="m142.462 320.014h3v2.986h-3z"/><path d="m148.231 320.014h3v2.986h-3z"/><path d="m142.462 307.957h3v5.856h-3z"/><path d="m131.269 307.842h5.423v5.857h-5.423z"/><path d="m119.846 307.842h5.423v5.857h-5.423z"/><path d="m145.462 279.823h3v19.866h-3z"/><path d="m148.231 276.837h3v8.613h-3z"/><path d="m99.7692 288.091h2.9998v2.986h-2.9998z"/><path d="m105.308 296.818h3v2.986h-3z"/><path d="m137.154 288.435h3v2.986h-3z"/><path d="m148.462 307.842h3v2.986h-3z"/><path d="m148.462 290.732h3v2.986h-3z"/><path d="m111.308 296.703h3v2.986h-3z"/><path d="m111.308 279.364h3v2.985h-3z"/><path d="m116.962 279.364h3v2.985h-3z"/><path d="m153.885 286.024h3v2.986h-3z"/><path d="m122.962 282.349h3v2.986h-3z"/><path d="m119.962 285.335h3v2.986h-3z"/><path d="m122.962 288.091h6.115v2.986h-6.115z"/><path d="m159.885 294.751h6.115v2.986h-6.115z"/><path d="m131.154 259.612h6.115v2.986h-6.115z"/><path d="m128.269 251h6.116v2.986h-6.116z"/><path d="m116.962 288.435h3v8.268h-3z"/><path d="m153.885 295.096h3v8.268h-3z"/><path d="m131.269 288.435h3v8.268h-3z"/><path d="m122.269 300.837h3v8.268h-3z"/><path d="m159.885 310.139h3v8.268h-3z"/><path d="m125.269 304.971h3v5.972h-3z"/><path d="m162.885 314.273h3v8.153h-3z"/><path d="m128.269 302.33h3v5.971h-3z"/><path d="m128.5 282.809h3v8.268h-3z"/><path d="m108.308 274.081h3v8.268h-3z"/><path d="m134.038 268.225h3v11.598h-3z"/><path d="m128.269 259.612h3v17.225h-3z"/><path d="m139.808 260.761h3v10.335h-3z"/><path d="m122.615 288.091h3v8.268h-3z"/><path d="m139.808 251.115h3v8.497h-3z"/><path d="m102.423 279.364h3v8.268h-3z"/><path d="m125.5 293.947h3v5.742h-3z"/><path d="m116.962 299.689h3v13.895h-3z"/><path d="m153.885 309.105h3v13.895h-3z"/><path d="m145.462 313.699v2.985h-25.5v-2.985z"/><path d="m140.154 285.45h3v2.985h-3z"/><path d="m111.308 289.01h3v2.985h-3z"/><path d="m142.462 320.014v2.986h-25.5v-2.986z"/><path d="m146.962 296.703h6.115v2.986h-6.115z"/><path d="m132.769 293.718h6.116v2.985h-6.116z"/><path d="m159.885 288.435h6.115v2.986h-6.115z"/></g><path d="m95.036 330.099 1.8733 3.005h.0568l1.8733-3.005h1.0361l-2.2849 3.612 2.2849 3.612h-1.0361l-1.8733-2.949h-.0568l-1.8733 2.949h-1.036l2.3417-3.612-2.3417-3.612z" fill="#000"/><path d="m100.396 330.099h1.008l2.015 3.372h.085l2.015-3.372h1.008l-2.625 4.247v2.977h-.88v-2.977z" fill="#000"/><path d="m113.171 332.356h-.88c-.052-.251-.143-.472-.273-.663-.128-.19-.284-.35-.469-.479-.182-.132-.384-.231-.607-.297-.222-.065-.454-.098-.695-.098-.44 0-.838.11-1.196.331-.354.221-.637.547-.848.977-.208.431-.312.958-.312 1.584 0 .625.104 1.153.312 1.584.211.43.494.756.848.977.358.221.756.331 1.196.331.241 0 .473-.033.695-.099.223-.065.425-.163.607-.292.185-.132.341-.293.469-.484.13-.192.221-.413.273-.663h.88c-.067.37-.187.7-.362.992-.175.291-.393.539-.653.744-.26.202-.552.356-.876.462-.322.106-.666.159-1.033.159-.62 0-1.171-.151-1.653-.452-.483-.301-.862-.729-1.139-1.284s-.415-1.213-.415-1.975.138-1.42.415-1.975.656-.983 1.139-1.284c.482-.301 1.033-.452 1.653-.452.367 0 .711.053 1.033.159.324.106.616.261.876.466.26.202.478.449.653.74.175.29.295.62.362.991z" fill="#000"/><path d="m114.692 337.323 3.25-6.391v-.057h-3.747v-.776h4.655v.818l-3.236 6.406z" fill="#000"/><path d="m122.94 335.065h.965l.809 1.059.213.282 1.206 1.594h-.965l-.795-1.058-.198-.268zm3.491-1.354c0 .762-.138 1.42-.415 1.975s-.656.983-1.139 1.284c-.482.301-1.033.452-1.653.452s-1.171-.151-1.654-.452c-.482-.301-.862-.729-1.138-1.284-.277-.555-.416-1.213-.416-1.975s.139-1.42.416-1.975c.276-.555.656-.983 1.138-1.284.483-.301 1.034-.452 1.654-.452s1.171.151 1.653.452c.483.301.862.729 1.139 1.284s.415 1.213.415 1.975zm-.851 0c0-.626-.106-1.153-.316-1.584-.208-.43-.491-.756-.848-.977-.355-.221-.752-.331-1.192-.331s-.839.11-1.196.331c-.355.221-.637.547-.848.977-.208.431-.312.958-.312 1.584 0 .625.104 1.153.312 1.584.211.43.493.756.848.977.357.221.756.331 1.196.331s.837-.11 1.192-.331c.357-.221.64-.547.848-.977.21-.431.316-.959.316-1.584z" fill="#000"/><path d="m127.911 337.323v-7.224h.88v3.584h.085l3.264-3.584h1.149l-3.051 3.259 3.051 3.965h-1.064l-2.526-3.358-.908 1.016v2.342z" fill="#000"/><path d="m134.187 337.323v-.635l3.917-5.813h-3.96v-.776h5.01v.635l-3.917 5.813h3.96v.776z" fill="#000"/><path d="m146.435 330.099v7.224h-.852l-3.959-5.672h-.071v5.672h-.88v-7.224h.851l3.974 5.686h.071v-5.686z" fill="#000"/><path d="m150.381 330c.298.003.596.059.894.17.298.11.57.294.816.55.246.254.444.601.593 1.04.149.44.223.992.223 1.655 0 .642-.061 1.212-.184 1.71-.121.496-.296.915-.526 1.256-.227.341-.503.6-.83.776-.324.176-.69.265-1.1.265-.406 0-.77-.08-1.089-.24-.317-.163-.577-.387-.78-.674-.201-.289-.33-.624-.387-1.005h.866c.078.331.233.605.464.822.235.214.543.321.926.321.561 0 1.003-.244 1.327-.731.327-.486.49-1.174.49-2.063h-.057c-.132.198-.29.368-.472.511-.182.144-.384.254-.606.332-.223.078-.459.116-.71.116-.416 0-.798-.102-1.146-.306-.345-.207-.622-.491-.83-.85-.206-.363-.309-.776-.309-1.242 0-.442.099-.847.298-1.213.201-.37.483-.664.845-.882.364-.219.792-.325 1.284-.318zm0 .776c-.298 0-.567.074-.805.223-.237.145-.425.343-.565.592-.137.247-.205.521-.205.822s.066.575.198.822c.135.244.318.439.55.585.234.144.5.215.799.215.224 0 .434-.043.628-.13.193-.089.363-.211.507-.363.147-.156.261-.331.344-.526.083-.197.124-.403.124-.617 0-.282-.068-.547-.206-.794-.134-.247-.321-.447-.56-.599-.237-.153-.506-.23-.809-.23z" fill="#000"/><path d="m156.758 337.422c-.469 0-.886-.08-1.253-.24-.364-.16-.654-.382-.869-.667-.213-.287-.329-.62-.348-.998h.894c.019.233.1.434.241.603.142.167.328.296.558.388.229.092.483.138.762.138.313 0 .589-.055.831-.163.241-.108.43-.258.567-.451s.206-.416.206-.67c0-.266-.066-.5-.199-.702-.132-.205-.326-.365-.582-.48-.255-.115-.567-.173-.936-.173h-.582v-.776h.582c.288 0 .541-.051.759-.155.22-.103.392-.249.515-.437.125-.188.188-.409.188-.663 0-.245-.055-.458-.164-.639-.108-.181-.262-.322-.461-.423-.196-.101-.428-.152-.695-.152-.251 0-.488.046-.71.138-.22.089-.4.22-.539.391-.14.17-.215.374-.227.614h-.852c.014-.379.129-.71.344-.995.216-.287.497-.51.845-.67.35-.16.734-.24 1.153-.24.449 0 .835.091 1.157.272.321.179.568.415.741.709s.259.611.259.952c0 .407-.108.754-.323 1.041-.213.287-.502.485-.869.596v.056c.459.076.817.27 1.075.582.258.311.387.695.387 1.154 0 .392-.108.745-.323 1.058-.213.31-.504.555-.873.733-.369.179-.789.269-1.259.269z" fill="#000"/><path d="m160.792 337.323v-7.224h2.455c.567 0 1.033.097 1.398.289.364.191.634.453.809.787s.262.714.262 1.139c0 .426-.087.803-.262 1.132-.175.33-.444.588-.806.776-.362.186-.824.279-1.387.279h-1.987v-.79h1.959c.387 0 .7-.056.936-.169.239-.113.412-.273.518-.48.109-.209.163-.459.163-.748s-.054-.542-.163-.758c-.109-.217-.282-.383-.521-.501-.239-.12-.555-.18-.948-.18h-1.547v6.448zm3.42-3.245 1.788 3.245h-1.022l-1.76-3.245z" fill="#000"/></g></svg>