<svg width="278" height="176" viewBox="0 0 278 176" fill="none" xmlns="http://www.w3.org/2000/svg">
<path d="M0 8C0 3.58173 3.58172 0 8 0H270C274.418 0 278 3.58172 278 8V168C278 172.418 274.418 176 270 176H8.00001C3.58173 176 0 172.418 0 168V8Z" fill="#F8F4D2"/>
<path d="M0 168C0 172.418 3.58172 176 8 176H270C274.418 176 278 172.418 278 168V135H0V168Z" fill="#CDBE5A"/>
<path fill-rule="evenodd" clip-rule="evenodd" d="M215.607 69.4853L206.061 59.9393C205.475 59.3536 204.525 59.3536 203.939 59.9393L194.393 69.4853C193.808 70.0711 193.808 71.0208 194.393 71.6066C194.979 72.1924 195.929 72.1924 196.515 71.6066L203.5 64.6213L203.5 98L206.5 98L206.5 64.6213L213.485 71.6066C214.071 72.1924 215.021 72.1924 215.607 71.6066C216.192 71.0208 216.192 70.0711 215.607 69.4853Z" fill="black"/>
<path d="M13 29C13 25.6863 15.6863 23 19 23H110C113.314 23 116 25.6863 116 29C116 32.3137 113.314 35 110 35H19C15.6863 35 13 32.3137 13 29Z" fill="black" fill-opacity="0.1"/>
<path d="M13 77C13 71.4772 17.4772 67 23 67H156C161.523 67 166 71.4772 166 77V91C166 96.5228 161.523 101 156 101H23C17.4772 101 13 96.5228 13 91V77Z" fill="black" fill-opacity="0.1"/>
<path d="M197 77C197 71.4772 201.477 67 207 67H251C256.523 67 261 71.4772 261 77V91C261 96.5228 256.523 101 251 101H207C201.477 101 197 96.5228 197 91V77Z" fill="black" fill-opacity="0.1"/>
<path d="M13 117C13 113.686 15.6863 111 19 111H78C81.3137 111 84 113.686 84 117C84 120.314 81.3137 123 78 123H19C15.6863 123 13 120.314 13 117Z" fill="black" fill-opacity="0.1"/>
<path d="M13 51C13 47.6863 15.6863 45 19 45H148C151.314 45 154 47.6863 154 51C154 54.3137 151.314 57 148 57H19C15.6863 57 13 54.3137 13 51Z" fill="black" fill-opacity="0.1"/>
<path d="M24 156C24 152.686 26.6863 150 30 150H248C251.314 150 254 152.686 254 156C254 159.314 251.314 162 248 162H30C26.6863 162 24 159.314 24 156Z" fill="black" fill-opacity="0.1"/>
<path d="M166 17C166 13.6863 168.686 11 172 11H257C260.314 11 263 13.6863 263 17C263 20.3137 260.314 23 257 23H172C168.686 23 166 20.3137 166 17Z" fill="black" fill-opacity="0.1"/>
<path d="M177.97 50.4659V49.0128L181.613 43.2727H182.866V45.2841H182.125L179.828 48.919V48.9872H185.005V50.4659H177.97ZM182.159 52V50.0227L182.193 49.3793V43.2727H183.923V52H182.159ZM189.584 52.1193C189.135 52.1165 188.702 52.0412 188.284 51.8935C187.87 51.7457 187.498 51.5057 187.168 51.1733C186.838 50.8409 186.577 50.4006 186.384 49.8523C186.194 49.304 186.098 48.6307 186.098 47.8324C186.101 47.0994 186.185 46.4446 186.35 45.8679C186.517 45.2884 186.756 44.7969 187.066 44.3935C187.378 43.9901 187.752 43.6832 188.186 43.473C188.621 43.2599 189.108 43.1534 189.648 43.1534C190.23 43.1534 190.745 43.267 191.191 43.4943C191.637 43.7187 191.995 44.0241 192.265 44.4105C192.537 44.7969 192.702 45.2301 192.759 45.7102H190.939C190.868 45.4062 190.719 45.1676 190.492 44.9943C190.265 44.821 189.983 44.7344 189.648 44.7344C189.08 44.7344 188.648 44.9815 188.353 45.4759C188.06 45.9702 187.911 46.642 187.905 47.4915H187.965C188.096 47.233 188.272 47.0128 188.493 46.831C188.718 46.6463 188.972 46.5057 189.256 46.4091C189.543 46.3097 189.846 46.2599 190.164 46.2599C190.681 46.2599 191.141 46.3821 191.544 46.6264C191.948 46.8679 192.266 47.2003 192.499 47.6236C192.732 48.0469 192.848 48.5312 192.848 49.0767C192.848 49.6676 192.711 50.1932 192.435 50.6534C192.162 51.1136 191.78 51.4744 191.289 51.7358C190.8 51.9943 190.232 52.1222 189.584 52.1193ZM189.576 50.6705C189.86 50.6705 190.114 50.6023 190.338 50.4659C190.563 50.3295 190.739 50.1449 190.867 49.9119C190.995 49.679 191.059 49.4176 191.059 49.1278C191.059 48.8381 190.995 48.5781 190.867 48.348C190.742 48.1179 190.569 47.9347 190.347 47.7983C190.125 47.6619 189.873 47.5938 189.588 47.5938C189.375 47.5938 189.178 47.6335 188.996 47.7131C188.817 47.7926 188.659 47.9034 188.523 48.0455C188.39 48.1875 188.284 48.3523 188.208 48.5398C188.131 48.7244 188.093 48.9219 188.093 49.1321C188.093 49.4134 188.157 49.6705 188.284 49.9034C188.415 50.1364 188.591 50.3224 188.813 50.4616C189.037 50.6009 189.292 50.6705 189.576 50.6705ZM194.502 52L198.12 44.8409V44.7812H193.905V43.2727H200.029V44.8026L196.407 52H194.502ZM200.458 50.4659V49.0128L204.102 43.2727H205.354V45.2841H204.613L202.316 48.919V48.9872H207.494V50.4659H200.458ZM204.647 52V50.0227L204.681 49.3793V43.2727H206.411V52H204.647ZM211.911 52.1193C211.308 52.1193 210.771 52.0085 210.3 51.7869C209.831 51.5653 209.459 51.2599 209.183 50.8707C208.908 50.4815 208.764 50.0355 208.753 49.5327H210.543C210.563 49.8707 210.705 50.1449 210.969 50.3551C211.233 50.5653 211.547 50.6705 211.911 50.6705C212.2 50.6705 212.456 50.6065 212.678 50.4787C212.902 50.348 213.077 50.1676 213.202 49.9375C213.33 49.7045 213.393 49.4375 213.393 49.1364C213.393 48.8295 213.328 48.5597 213.197 48.3267C213.07 48.0937 212.892 47.9119 212.665 47.7812C212.438 47.6506 212.178 47.5838 211.885 47.581C211.629 47.581 211.381 47.6335 211.139 47.7386C210.901 47.8437 210.714 47.9872 210.581 48.169L208.94 47.875L209.354 43.2727H214.689V44.7812H210.875L210.649 46.9673H210.7C210.854 46.7514 211.085 46.5724 211.395 46.4304C211.705 46.2884 212.051 46.2173 212.435 46.2173C212.96 46.2173 213.429 46.3409 213.841 46.5881C214.253 46.8352 214.578 47.1747 214.817 47.6065C215.055 48.0355 215.173 48.5298 215.17 49.0895C215.173 49.6776 215.037 50.2003 214.761 50.6577C214.489 51.1122 214.107 51.4702 213.615 51.7315C213.126 51.9901 212.558 52.1193 211.911 52.1193ZM216.325 50.4659V49.0128L219.969 43.2727H221.222V45.2841H220.48L218.183 48.919V48.9872H223.361V50.4659H216.325ZM220.514 52V50.0227L220.548 49.3793V43.2727H222.278V52H220.514ZM227.816 52.1193C227.18 52.1193 226.613 52.0099 226.116 51.7912C225.621 51.5696 225.231 51.2656 224.944 50.8793C224.66 50.4901 224.513 50.0412 224.505 49.5327H226.363C226.374 49.7457 226.444 49.9332 226.572 50.0952C226.702 50.2543 226.876 50.3778 227.092 50.4659C227.308 50.554 227.55 50.598 227.82 50.598C228.102 50.598 228.35 50.5483 228.566 50.4489C228.782 50.3494 228.951 50.2116 229.073 50.0355C229.195 49.8594 229.256 49.6562 229.256 49.4261C229.256 49.1932 229.191 48.9872 229.06 48.8082C228.933 48.6264 228.748 48.4844 228.506 48.3821C228.268 48.2798 227.984 48.2287 227.654 48.2287H226.84V46.8736H227.654C227.933 46.8736 228.178 46.8253 228.391 46.7287C228.607 46.6321 228.775 46.4986 228.894 46.3281C229.013 46.1548 229.073 45.9531 229.073 45.723C229.073 45.5043 229.021 45.3125 228.915 45.1477C228.813 44.9801 228.668 44.8494 228.481 44.7557C228.296 44.6619 228.08 44.6151 227.833 44.6151C227.583 44.6151 227.354 44.6605 227.147 44.7514C226.94 44.8395 226.773 44.9659 226.648 45.1307C226.523 45.2955 226.457 45.4886 226.448 45.7102H224.68C224.688 45.2074 224.832 44.7642 225.11 44.3807C225.388 43.9972 225.763 43.6974 226.235 43.4815C226.71 43.2628 227.245 43.1534 227.842 43.1534C228.444 43.1534 228.971 43.2628 229.423 43.4815C229.874 43.7003 230.225 43.9957 230.475 44.3679C230.728 44.7372 230.853 45.152 230.85 45.6122C230.853 46.1009 230.701 46.5085 230.394 46.8352C230.09 47.1619 229.694 47.3693 229.205 47.4574V47.5256C229.847 47.608 230.336 47.831 230.671 48.1946C231.009 48.5554 231.177 49.0071 231.174 49.5497C231.177 50.0469 231.033 50.4886 230.744 50.875C230.457 51.2614 230.06 51.5653 229.555 51.7869C229.049 52.0085 228.469 52.1193 227.816 52.1193ZM235.688 52.1193C235.086 52.1193 234.549 52.0085 234.077 51.7869C233.608 51.5653 233.236 51.2599 232.961 50.8707C232.685 50.4815 232.542 50.0355 232.53 49.5327H234.32C234.34 49.8707 234.482 50.1449 234.746 50.3551C235.01 50.5653 235.324 50.6705 235.688 50.6705C235.978 50.6705 236.233 50.6065 236.455 50.4787C236.679 50.348 236.854 50.1676 236.979 49.9375C237.107 49.7045 237.171 49.4375 237.171 49.1364C237.171 48.8295 237.105 48.5597 236.975 48.3267C236.847 48.0937 236.669 47.9119 236.442 47.7812C236.215 47.6506 235.955 47.5838 235.662 47.581C235.407 47.581 235.158 47.6335 234.917 47.7386C234.678 47.8437 234.492 47.9872 234.358 48.169L232.718 47.875L233.131 43.2727H238.466V44.7812H234.652L234.426 46.9673H234.478C234.631 46.7514 234.863 46.5724 235.172 46.4304C235.482 46.2884 235.828 46.2173 236.212 46.2173C236.738 46.2173 237.206 46.3409 237.618 46.5881C238.03 46.8352 238.355 47.1747 238.594 47.6065C238.833 48.0355 238.951 48.5298 238.948 49.0895C238.951 49.6776 238.814 50.2003 238.539 50.6577C238.266 51.1122 237.884 51.4702 237.392 51.7315C236.904 51.9901 236.336 52.1193 235.688 52.1193Z" fill="black"/>
<path d="M243.277 52.1193C242.635 52.1193 242.088 51.9446 241.637 51.5952C241.185 51.2429 240.84 50.733 240.601 50.0653C240.363 49.3949 240.243 48.5852 240.243 47.6364C240.243 46.6932 240.363 45.8878 240.601 45.2202C240.843 44.5497 241.189 44.0384 241.641 43.6861C242.096 43.331 242.641 43.1534 243.277 43.1534C243.914 43.1534 244.458 43.331 244.909 43.6861C245.364 44.0384 245.711 44.5497 245.949 45.2202C246.191 45.8878 246.311 46.6932 246.311 47.6364C246.311 48.5852 246.192 49.3949 245.953 50.0653C245.715 50.733 245.37 51.2429 244.918 51.5952C244.466 51.9446 243.919 52.1193 243.277 52.1193ZM243.277 51.1818C243.914 51.1818 244.408 50.875 244.76 50.2614C245.113 49.6477 245.289 48.7727 245.289 47.6364C245.289 46.8807 245.208 46.2372 245.046 45.706C244.887 45.1747 244.657 44.7699 244.355 44.4915C244.057 44.2131 243.698 44.0739 243.277 44.0739C242.647 44.0739 242.154 44.3849 241.799 45.0071C241.444 45.6264 241.266 46.5028 241.266 47.6364C241.266 48.392 241.346 49.0341 241.505 49.5625C241.664 50.0909 241.892 50.4929 242.191 50.7685C242.492 51.044 242.854 51.1818 243.277 51.1818ZM250.999 43.2727V52H249.942V44.3807H249.891L247.76 45.7955V44.7216L249.942 43.2727H250.999Z" fill="black" fill-opacity="0.5"/>
<path fill-rule="evenodd" clip-rule="evenodd" d="M153.5 4.75V2H154.5V4.75H153.5ZM153.5 15.75V10.25H154.5V15.75H153.5ZM153.5 26.75V21.25H154.5V26.75H153.5ZM153.5 32.25H154.5V34.5H157.075V35.5H153.5V32.25ZM169.375 35.5H163.225V34.5H169.375V35.5ZM181.675 35.5H175.525V34.5H181.675V35.5ZM193.975 35.5H187.825V34.5H193.975V35.5ZM206.275 35.5H200.125V34.5H206.275V35.5ZM218.575 35.5H212.425V34.5H218.575V35.5ZM230.875 35.5H224.725V34.5H230.875V35.5ZM243.175 35.5H237.025V34.5H243.175V35.5ZM255.475 35.5H249.325V34.5H255.475V35.5ZM267.775 35.5H261.625V34.5H267.775V35.5ZM277 35.5H273.925V34.5H277V35.5Z" fill="black" fill-opacity="0.5"/>
</svg>
