<svg width="278" height="176" viewBox="0 0 278 176" fill="none" xmlns="http://www.w3.org/2000/svg">
<path d="M0 8C0 3.58173 3.58172 0 8 0H270C274.418 0 278 3.58172 278 8V168C278 172.418 274.418 176 270 176H8.00001C3.58173 176 0 172.418 0 168V8Z" fill="#F8F4D2"/>
<path d="M0 8C0 3.58172 3.58172 0 8 0H270C274.418 0 278 3.58172 278 8V33H0V8Z" fill="#D26339"/>
<path d="M0 168C0 172.418 3.58172 176 8 176H270C274.418 176 278 172.418 278 168V135H0V168Z" fill="#D26339"/>
<g opacity="0.4">
<path d="M68.557 160.192C67.824 160.189 67.1934 160.009 66.665 159.651C66.1394 159.293 65.7346 158.774 65.4505 158.095C65.1692 157.416 65.03 156.599 65.0328 155.645C65.0328 154.693 65.1735 153.882 65.4547 153.212C65.7388 152.541 66.1436 152.031 66.6692 151.682C67.1976 151.33 67.8269 151.153 68.557 151.153C69.2871 151.153 69.915 151.33 70.4405 151.682C70.9689 152.034 71.3752 152.545 71.6593 153.216C71.9434 153.884 72.084 154.693 72.0811 155.645C72.0811 156.602 71.9391 157.42 71.655 158.099C71.3738 158.778 70.9703 159.297 70.4448 159.655C69.9192 160.013 69.29 160.192 68.557 160.192ZM68.557 158.662C69.057 158.662 69.4561 158.411 69.7544 157.908C70.0527 157.405 70.2005 156.651 70.1976 155.645C70.1976 154.983 70.1294 154.432 69.9931 153.991C69.8596 153.551 69.6692 153.22 69.4221 152.999C69.1777 152.777 68.8894 152.666 68.557 152.666C68.0598 152.666 67.6621 152.915 67.3638 153.412C67.0655 153.909 66.915 154.653 66.9121 155.645C66.9121 156.315 66.9789 156.875 67.1124 157.324C67.2488 157.77 67.4405 158.105 67.6877 158.33C67.9348 158.551 68.2246 158.662 68.557 158.662Z" fill="black"/>
<path d="M76.8187 160.192C76.0858 160.189 75.4551 160.009 74.9267 159.651C74.4011 159.293 73.9963 158.774 73.7122 158.095C73.4309 157.416 73.2917 156.599 73.2946 155.645C73.2946 154.693 73.4352 153.882 73.7164 153.212C74.0005 152.541 74.4054 152.031 74.9309 151.682C75.4593 151.33 76.0886 151.153 76.8187 151.153C77.5488 151.153 78.1767 151.33 78.7022 151.682C79.2306 152.034 79.6369 152.545 79.921 153.216C80.2051 153.884 80.3457 154.693 80.3429 155.645C80.3429 156.602 80.2008 157.42 79.9167 158.099C79.6355 158.778 79.2321 159.297 78.7065 159.655C78.1809 160.013 77.5517 160.192 76.8187 160.192ZM76.8187 158.662C77.3187 158.662 77.7179 158.411 78.0162 157.908C78.3145 157.405 78.4622 156.651 78.4593 155.645C78.4593 154.983 78.3912 154.432 78.2548 153.991C78.1213 153.551 77.9309 153.22 77.6838 152.999C77.4395 152.777 77.1511 152.666 76.8187 152.666C76.3216 152.666 75.9238 152.915 75.6255 153.412C75.3272 153.909 75.1767 154.653 75.1738 155.645C75.1738 156.315 75.2406 156.875 75.3741 157.324C75.5105 157.77 75.7022 158.105 75.9494 158.33C76.1966 158.551 76.4863 158.662 76.8187 158.662Z" fill="black"/>
<path d="M84.9142 160.119C84.258 160.119 83.6742 160.013 83.1628 159.8C82.6543 159.584 82.2552 159.29 81.9654 158.918C81.6756 158.545 81.5307 158.124 81.5307 157.652C81.5307 157.288 81.6131 156.955 81.7779 156.651C81.9455 156.344 82.1728 156.089 82.4597 155.888C82.7466 155.683 83.0677 155.553 83.4228 155.496V155.436C82.9569 155.342 82.579 155.116 82.2892 154.759C81.9995 154.398 81.8546 153.979 81.8546 153.501C81.8546 153.05 81.9867 152.648 82.2509 152.295C82.5151 151.94 82.8773 151.662 83.3375 151.46C83.8006 151.256 84.3262 151.153 84.9142 151.153C85.5023 151.153 86.0265 151.256 86.4867 151.46C86.9498 151.665 87.3134 151.945 87.5776 152.3C87.8418 152.652 87.9753 153.053 87.9782 153.501C87.9753 153.982 87.8276 154.401 87.535 154.759C87.2424 155.116 86.8674 155.342 86.41 155.436V155.496C86.7594 155.553 87.0762 155.683 87.3603 155.888C87.6472 156.089 87.8745 156.344 88.0421 156.651C88.2125 156.955 88.2992 157.288 88.302 157.652C88.2992 158.124 88.1529 158.545 87.8631 158.918C87.5733 159.29 87.1728 159.584 86.6614 159.8C86.1529 160.013 85.5705 160.119 84.9142 160.119ZM84.9142 158.764C85.2069 158.764 85.4625 158.712 85.6813 158.607C85.9 158.499 86.0705 158.351 86.1926 158.163C86.3176 157.973 86.3801 157.754 86.3801 157.507C86.3801 157.254 86.3162 157.031 86.1884 156.838C86.0605 156.642 85.8873 156.489 85.6685 156.378C85.4498 156.264 85.1983 156.207 84.9142 156.207C84.633 156.207 84.3816 156.264 84.16 156.378C83.9384 156.489 83.7637 156.642 83.6358 156.838C83.5108 157.031 83.4483 157.254 83.4483 157.507C83.4483 157.754 83.5094 157.973 83.6316 158.163C83.7537 158.351 83.9256 158.499 84.1472 158.607C84.3688 158.712 84.6245 158.764 84.9142 158.764ZM84.9142 154.865C85.1586 154.865 85.3759 154.815 85.5662 154.716C85.7566 154.616 85.9057 154.479 86.0137 154.303C86.1216 154.126 86.1756 153.923 86.1756 153.693C86.1756 153.466 86.1216 153.267 86.0137 153.097C85.9057 152.923 85.758 152.788 85.5705 152.692C85.383 152.592 85.1642 152.543 84.9142 152.543C84.6671 152.543 84.4483 152.592 84.258 152.692C84.0677 152.788 83.9185 152.923 83.8105 153.097C83.7054 153.267 83.6529 153.466 83.6529 153.693C83.6529 153.923 83.7069 154.126 83.8148 154.303C83.9228 154.479 84.0719 154.616 84.2623 154.716C84.4526 154.815 84.6699 154.865 84.9142 154.865Z" fill="black"/>
<path d="M92.8478 160.119C92.1916 160.119 91.6078 160.013 91.0964 159.8C90.5879 159.584 90.1887 159.29 89.899 158.918C89.6092 158.545 89.4643 158.124 89.4643 157.652C89.4643 157.288 89.5467 156.955 89.7115 156.651C89.8791 156.344 90.1064 156.089 90.3933 155.888C90.6802 155.683 91.0012 155.553 91.3564 155.496V155.436C90.8904 155.342 90.5126 155.116 90.2228 154.759C89.9331 154.398 89.7882 153.979 89.7882 153.501C89.7882 153.05 89.9203 152.648 90.1845 152.295C90.4487 151.94 90.8109 151.662 91.2711 151.46C91.7342 151.256 92.2598 151.153 92.8478 151.153C93.4359 151.153 93.9601 151.256 94.4203 151.46C94.8833 151.665 95.247 151.945 95.5112 152.3C95.7754 152.652 95.9089 153.053 95.9118 153.501C95.9089 153.982 95.7612 154.401 95.4686 154.759C95.176 155.116 94.801 155.342 94.3436 155.436V155.496C94.693 155.553 95.0098 155.683 95.2939 155.888C95.5808 156.089 95.8081 156.344 95.9757 156.651C96.1461 156.955 96.2328 157.288 96.2356 157.652C96.2328 158.124 96.0865 158.545 95.7967 158.918C95.5069 159.29 95.1064 159.584 94.595 159.8C94.0865 160.013 93.5041 160.119 92.8478 160.119ZM92.8478 158.764C93.1404 158.764 93.3961 158.712 93.6149 158.607C93.8336 158.499 94.0041 158.351 94.1262 158.163C94.2512 157.973 94.3137 157.754 94.3137 157.507C94.3137 157.254 94.2498 157.031 94.122 156.838C93.9941 156.642 93.8208 156.489 93.6021 156.378C93.3833 156.264 93.1319 156.207 92.8478 156.207C92.5666 156.207 92.3152 156.264 92.0936 156.378C91.872 156.489 91.6973 156.642 91.5694 156.838C91.4444 157.031 91.3819 157.254 91.3819 157.507C91.3819 157.754 91.443 157.973 91.5652 158.163C91.6873 158.351 91.8592 158.499 92.0808 158.607C92.3024 158.712 92.5581 158.764 92.8478 158.764ZM92.8478 154.865C93.0922 154.865 93.3095 154.815 93.4998 154.716C93.6902 154.616 93.8393 154.479 93.9473 154.303C94.0552 154.126 94.1092 153.923 94.1092 153.693C94.1092 153.466 94.0552 153.267 93.9473 153.097C93.8393 152.923 93.6916 152.788 93.5041 152.692C93.3166 152.592 93.0978 152.543 92.8478 152.543C92.6007 152.543 92.3819 152.592 92.1916 152.692C92.0012 152.788 91.8521 152.923 91.7441 153.097C91.639 153.267 91.5865 153.466 91.5865 153.693C91.5865 153.923 91.6404 154.126 91.7484 154.303C91.8564 154.479 92.0055 154.616 92.1958 154.716C92.3862 154.815 92.6035 154.865 92.8478 154.865Z" fill="black"/>
<path d="M100.875 160.119C100.426 160.116 99.9931 160.041 99.5755 159.893C99.1607 159.746 98.7885 159.506 98.459 159.173C98.1294 158.841 97.8681 158.401 97.6749 157.852C97.4846 157.304 97.3894 156.631 97.3894 155.832C97.3922 155.099 97.476 154.445 97.6408 153.868C97.8084 153.288 98.0471 152.797 98.3567 152.393C98.6692 151.99 99.0428 151.683 99.4775 151.473C99.9121 151.26 100.399 151.153 100.939 151.153C101.521 151.153 102.036 151.267 102.482 151.494C102.928 151.719 103.286 152.024 103.556 152.411C103.828 152.797 103.993 153.23 104.05 153.71H102.23C102.159 153.406 102.01 153.168 101.783 152.994C101.556 152.821 101.274 152.734 100.939 152.734C100.371 152.734 99.9391 152.982 99.6436 153.476C99.351 153.97 99.2019 154.642 99.1962 155.491H99.2559C99.3865 155.233 99.5627 155.013 99.7843 154.831C100.009 154.646 100.263 154.506 100.547 154.409C100.834 154.31 101.137 154.26 101.455 154.26C101.972 154.26 102.432 154.382 102.835 154.626C103.239 154.868 103.557 155.2 103.79 155.624C104.023 156.047 104.139 156.531 104.139 157.077C104.139 157.668 104.002 158.193 103.726 158.653C103.453 159.114 103.071 159.474 102.58 159.736C102.091 159.994 101.523 160.122 100.875 160.119ZM100.867 158.67C101.151 158.67 101.405 158.602 101.629 158.466C101.854 158.33 102.03 158.145 102.158 157.912C102.286 157.679 102.35 157.418 102.35 157.128C102.35 156.838 102.286 156.578 102.158 156.348C102.033 156.118 101.86 155.935 101.638 155.798C101.416 155.662 101.164 155.594 100.879 155.594C100.666 155.594 100.469 155.634 100.287 155.713C100.108 155.793 99.9505 155.903 99.8141 156.045C99.6806 156.188 99.5755 156.352 99.4988 156.54C99.4221 156.724 99.3837 156.922 99.3837 157.132C99.3837 157.413 99.4476 157.67 99.5755 157.903C99.7061 158.136 99.8823 158.322 100.104 158.462C100.328 158.601 100.583 158.67 100.867 158.67Z" fill="black"/>
<path d="M112.786 155.168V156.105H108.968V155.168H112.786Z" fill="black"/>
<path d="M117.709 158.21V157.341L121.544 151.273H122.175V152.619H121.748L118.851 157.205V157.273H124.015V158.21H117.709ZM121.817 160V151.273H122.822V160H121.817Z" fill="black"/>
<path d="M128.51 160.119C128.152 160.114 127.794 160.045 127.436 159.915C127.078 159.784 126.752 159.564 126.456 159.254C126.161 158.942 125.923 158.52 125.744 157.989C125.566 157.455 125.476 156.784 125.476 155.977C125.476 155.205 125.548 154.52 125.693 153.923C125.838 153.324 126.048 152.82 126.324 152.411C126.6 151.999 126.932 151.686 127.321 151.473C127.713 151.26 128.155 151.153 128.646 151.153C129.135 151.153 129.57 151.251 129.95 151.447C130.334 151.641 130.646 151.911 130.888 152.257C131.129 152.604 131.286 153.003 131.357 153.455H130.317C130.22 153.063 130.033 152.737 129.754 152.479C129.476 152.22 129.107 152.091 128.646 152.091C127.97 152.091 127.438 152.385 127.048 152.973C126.662 153.561 126.468 154.386 126.465 155.449H126.533C126.692 155.207 126.881 155.001 127.1 154.831C127.321 154.658 127.566 154.524 127.833 154.43C128.1 154.337 128.382 154.29 128.681 154.29C129.181 154.29 129.638 154.415 130.053 154.665C130.468 154.912 130.8 155.254 131.05 155.692C131.3 156.126 131.425 156.625 131.425 157.188C131.425 157.727 131.304 158.222 131.063 158.67C130.821 159.116 130.482 159.472 130.044 159.736C129.61 159.997 129.098 160.125 128.51 160.119ZM128.51 159.182C128.868 159.182 129.189 159.092 129.473 158.913C129.76 158.734 129.986 158.494 130.151 158.193C130.318 157.892 130.402 157.557 130.402 157.188C130.402 156.827 130.321 156.499 130.159 156.203C130 155.905 129.78 155.668 129.499 155.491C129.22 155.315 128.902 155.227 128.544 155.227C128.274 155.227 128.023 155.281 127.79 155.389C127.557 155.494 127.352 155.639 127.176 155.824C127.003 156.009 126.867 156.22 126.767 156.459C126.668 156.695 126.618 156.943 126.618 157.205C126.618 157.551 126.699 157.875 126.861 158.176C127.026 158.477 127.25 158.72 127.534 158.905C127.821 159.089 128.146 159.182 128.51 159.182Z" fill="black"/>
<path d="M133.373 160L137.277 152.278V152.21H132.777V151.273H138.368V152.261L134.481 160H133.373Z" fill="black"/>
<path d="M139.048 158.21V157.341L142.884 151.273H143.514V152.619H143.088L140.191 157.205V157.273H145.355V158.21H139.048ZM143.156 160V151.273H144.162V160H143.156Z" fill="black"/>
<path d="M154.094 155.168V156.105H150.276V155.168H154.094Z" fill="black"/>
<path d="M161.949 160.119C161.449 160.119 160.999 160.02 160.598 159.821C160.198 159.622 159.877 159.349 159.635 159.003C159.394 158.656 159.262 158.261 159.239 157.818H160.262C160.301 158.213 160.48 158.54 160.798 158.798C161.119 159.054 161.503 159.182 161.949 159.182C162.307 159.182 162.625 159.098 162.904 158.93C163.185 158.763 163.405 158.533 163.564 158.24C163.726 157.945 163.807 157.611 163.807 157.239C163.807 156.858 163.723 156.518 163.556 156.22C163.391 155.919 163.164 155.682 162.874 155.509C162.584 155.335 162.253 155.247 161.881 155.244C161.614 155.241 161.34 155.283 161.058 155.368C160.777 155.45 160.546 155.557 160.364 155.688L159.375 155.568L159.904 151.273H164.438V152.21H160.79L160.483 154.784H160.534C160.713 154.642 160.938 154.524 161.208 154.43C161.477 154.337 161.759 154.29 162.051 154.29C162.585 154.29 163.061 154.418 163.479 154.673C163.899 154.926 164.229 155.273 164.468 155.713C164.709 156.153 164.83 156.656 164.83 157.222C164.83 157.778 164.705 158.276 164.455 158.713C164.208 159.148 163.867 159.491 163.432 159.744C162.997 159.994 162.503 160.119 161.949 160.119Z" fill="black"/>
<path d="M166.318 158.21V157.341L170.153 151.273H170.784V152.619H170.358L167.46 157.205V157.273H172.625V158.21H166.318ZM170.426 160V151.273H171.432V160H170.426Z" fill="black"/>
<path d="M177.171 160.119C176.608 160.119 176.107 160.023 175.666 159.83C175.229 159.636 174.881 159.368 174.622 159.024C174.367 158.678 174.227 158.276 174.205 157.818H175.279C175.301 158.099 175.398 158.342 175.568 158.547C175.739 158.749 175.962 158.905 176.237 159.016C176.513 159.126 176.818 159.182 177.154 159.182C177.529 159.182 177.861 159.116 178.151 158.986C178.441 158.855 178.668 158.673 178.833 158.44C178.997 158.207 179.08 157.938 179.08 157.631C179.08 157.31 179 157.027 178.841 156.783C178.682 156.536 178.449 156.342 178.142 156.203C177.835 156.064 177.46 155.994 177.017 155.994H176.318V155.057H177.017C177.364 155.057 177.668 154.994 177.929 154.869C178.193 154.744 178.399 154.568 178.547 154.341C178.698 154.114 178.773 153.847 178.773 153.54C178.773 153.244 178.708 152.987 178.577 152.768C178.446 152.55 178.262 152.379 178.023 152.257C177.787 152.135 177.509 152.074 177.188 152.074C176.887 152.074 176.602 152.129 176.335 152.24C176.071 152.348 175.855 152.506 175.688 152.713C175.52 152.918 175.429 153.165 175.415 153.455H174.392C174.409 152.997 174.547 152.597 174.806 152.253C175.064 151.906 175.402 151.636 175.82 151.443C176.24 151.25 176.702 151.153 177.205 151.153C177.744 151.153 178.208 151.263 178.594 151.482C178.98 151.697 179.277 151.983 179.485 152.338C179.692 152.693 179.796 153.077 179.796 153.489C179.796 153.98 179.666 154.399 179.408 154.746C179.152 155.092 178.804 155.332 178.364 155.466V155.534C178.915 155.625 179.345 155.859 179.655 156.237C179.965 156.612 180.119 157.077 180.119 157.631C180.119 158.105 179.99 158.531 179.732 158.909C179.476 159.284 179.127 159.58 178.683 159.795C178.24 160.011 177.736 160.119 177.171 160.119Z" fill="black"/>
<path d="M184.59 160.119C184.09 160.119 183.639 160.02 183.239 159.821C182.838 159.622 182.517 159.349 182.276 159.003C182.034 158.656 181.902 158.261 181.879 157.818H182.902C182.942 158.213 183.121 158.54 183.439 158.798C183.76 159.054 184.144 159.182 184.59 159.182C184.948 159.182 185.266 159.098 185.544 158.93C185.825 158.763 186.046 158.533 186.205 158.24C186.367 157.945 186.448 157.611 186.448 157.239C186.448 156.858 186.364 156.518 186.196 156.22C186.031 155.919 185.804 155.682 185.514 155.509C185.225 155.335 184.894 155.247 184.521 155.244C184.254 155.241 183.98 155.283 183.699 155.368C183.418 155.45 183.186 155.557 183.004 155.688L182.016 155.568L182.544 151.273H187.078V152.21H183.431L183.124 154.784H183.175C183.354 154.642 183.578 154.524 183.848 154.43C184.118 154.337 184.399 154.29 184.692 154.29C185.226 154.29 185.702 154.418 186.119 154.673C186.54 154.926 186.869 155.273 187.108 155.713C187.35 156.153 187.47 156.656 187.47 157.222C187.47 157.778 187.345 158.276 187.095 158.713C186.848 159.148 186.507 159.491 186.073 159.744C185.638 159.994 185.144 160.119 184.59 160.119Z" fill="black"/>
<path d="M196.305 155.168V156.105H192.487V155.168H196.305Z" fill="black"/>
<path d="M204.279 160.119C203.637 160.119 203.09 159.945 202.639 159.595C202.187 159.243 201.842 158.733 201.603 158.065C201.365 157.395 201.245 156.585 201.245 155.636C201.245 154.693 201.365 153.888 201.603 153.22C201.845 152.55 202.191 152.038 202.643 151.686C203.097 151.331 203.643 151.153 204.279 151.153C204.916 151.153 205.46 151.331 205.911 151.686C206.366 152.038 206.713 152.55 206.951 153.22C207.193 153.888 207.313 154.693 207.313 155.636C207.313 156.585 207.194 157.395 206.955 158.065C206.717 158.733 206.372 159.243 205.92 159.595C205.468 159.945 204.921 160.119 204.279 160.119ZM204.279 159.182C204.916 159.182 205.41 158.875 205.762 158.261C206.115 157.648 206.291 156.773 206.291 155.636C206.291 154.881 206.21 154.237 206.048 153.706C205.889 153.175 205.659 152.77 205.357 152.491C205.059 152.213 204.7 152.074 204.279 152.074C203.649 152.074 203.156 152.385 202.801 153.007C202.445 153.626 202.268 154.503 202.268 155.636C202.268 156.392 202.347 157.034 202.507 157.563C202.666 158.091 202.894 158.493 203.193 158.768C203.494 159.044 203.856 159.182 204.279 159.182Z" fill="black"/>
<path d="M212.001 151.273V160H210.944V152.381H210.893L208.762 153.795V152.722L210.944 151.273H212.001Z" fill="black"/>
<path d="M218.278 155.168V156.105H214.46V155.168H218.278Z" fill="black"/>
<path d="M226.252 160.119C225.61 160.119 225.063 159.945 224.611 159.595C224.16 159.243 223.814 158.733 223.576 158.065C223.337 157.395 223.218 156.585 223.218 155.636C223.218 154.693 223.337 153.888 223.576 153.22C223.817 152.55 224.164 152.038 224.616 151.686C225.07 151.331 225.616 151.153 226.252 151.153C226.888 151.153 227.432 151.331 227.884 151.686C228.339 152.038 228.685 152.55 228.924 153.22C229.165 153.888 229.286 154.693 229.286 155.636C229.286 156.585 229.167 157.395 228.928 158.065C228.689 158.733 228.344 159.243 227.893 159.595C227.441 159.945 226.894 160.119 226.252 160.119ZM226.252 159.182C226.888 159.182 227.383 158.875 227.735 158.261C228.087 157.648 228.263 156.773 228.263 155.636C228.263 154.881 228.182 154.237 228.02 153.706C227.861 153.175 227.631 152.77 227.33 152.491C227.032 152.213 226.672 152.074 226.252 152.074C225.621 152.074 225.128 152.385 224.773 153.007C224.418 153.626 224.241 154.503 224.241 155.636C224.241 156.392 224.32 157.034 224.479 157.563C224.638 158.091 224.867 158.493 225.165 158.768C225.466 159.044 225.829 159.182 226.252 159.182Z" fill="black"/>
<path d="M233.633 160.119C233.133 160.119 232.682 160.02 232.282 159.821C231.881 159.622 231.56 159.349 231.319 159.003C231.077 158.656 230.945 158.261 230.922 157.818H231.945C231.985 158.213 232.164 158.54 232.482 158.798C232.803 159.054 233.187 159.182 233.633 159.182C233.991 159.182 234.309 159.098 234.587 158.93C234.868 158.763 235.089 158.533 235.248 158.24C235.41 157.945 235.491 157.611 235.491 157.239C235.491 156.858 235.407 156.518 235.239 156.22C235.074 155.919 234.847 155.682 234.557 155.509C234.268 155.335 233.937 155.247 233.564 155.244C233.297 155.241 233.023 155.283 232.742 155.368C232.461 155.45 232.229 155.557 232.047 155.688L231.059 155.568L231.587 151.273H236.121V152.21H232.474L232.167 154.784H232.218C232.397 154.642 232.621 154.524 232.891 154.43C233.161 154.337 233.442 154.29 233.735 154.29C234.269 154.29 234.745 154.418 235.162 154.673C235.583 154.926 235.912 155.273 236.151 155.713C236.393 156.153 236.513 156.656 236.513 157.222C236.513 157.778 236.388 158.276 236.138 158.713C235.891 159.148 235.55 159.491 235.116 159.744C234.681 159.994 234.187 160.119 233.633 160.119Z" fill="black"/>
<path d="M245.348 155.168V156.105H241.53V155.168H245.348Z" fill="black"/>
<path d="M253.322 160.119C252.68 160.119 252.133 159.945 251.682 159.595C251.23 159.243 250.885 158.733 250.646 158.065C250.407 157.395 250.288 156.585 250.288 155.636C250.288 154.693 250.407 153.888 250.646 153.22C250.888 152.55 251.234 152.038 251.686 151.686C252.14 151.331 252.686 151.153 253.322 151.153C253.959 151.153 254.503 151.331 254.954 151.686C255.409 152.038 255.756 152.55 255.994 153.22C256.236 153.888 256.356 154.693 256.356 155.636C256.356 156.585 256.237 157.395 255.998 158.065C255.76 158.733 255.415 159.243 254.963 159.595C254.511 159.945 253.964 160.119 253.322 160.119ZM253.322 159.182C253.959 159.182 254.453 158.875 254.805 158.261C255.157 157.648 255.334 156.773 255.334 155.636C255.334 154.881 255.253 154.237 255.091 153.706C254.932 153.175 254.702 152.77 254.4 152.491C254.102 152.213 253.743 152.074 253.322 152.074C252.692 152.074 252.199 152.385 251.844 153.007C251.488 153.626 251.311 154.503 251.311 155.636C251.311 156.392 251.39 157.034 251.55 157.563C251.709 158.091 251.937 158.493 252.236 158.768C252.537 159.044 252.899 159.182 253.322 159.182Z" fill="black"/>
<path d="M260.822 160.119C260.18 160.119 259.633 159.945 259.182 159.595C258.73 159.243 258.385 158.733 258.146 158.065C257.907 157.395 257.788 156.585 257.788 155.636C257.788 154.693 257.907 153.888 258.146 153.22C258.388 152.55 258.734 152.038 259.186 151.686C259.64 151.331 260.186 151.153 260.822 151.153C261.459 151.153 262.003 151.331 262.454 151.686C262.909 152.038 263.256 152.55 263.494 153.22C263.736 153.888 263.856 154.693 263.856 155.636C263.856 156.585 263.737 157.395 263.498 158.065C263.26 158.733 262.915 159.243 262.463 159.595C262.011 159.945 261.464 160.119 260.822 160.119ZM260.822 159.182C261.459 159.182 261.953 158.875 262.305 158.261C262.657 157.648 262.834 156.773 262.834 155.636C262.834 154.881 262.753 154.237 262.591 153.706C262.432 153.175 262.202 152.77 261.9 152.491C261.602 152.213 261.243 152.074 260.822 152.074C260.192 152.074 259.699 152.385 259.344 153.007C258.988 153.626 258.811 154.503 258.811 155.636C258.811 156.392 258.89 157.034 259.05 157.563C259.209 158.091 259.437 158.493 259.736 158.768C260.037 159.044 260.399 159.182 260.822 159.182Z" fill="black"/>
</g>
<path d="M68.557 160.192C67.824 160.189 67.1934 160.009 66.665 159.651C66.1394 159.293 65.7346 158.774 65.4505 158.095C65.1692 157.416 65.03 156.599 65.0328 155.645C65.0328 154.693 65.1735 153.882 65.4547 153.212C65.7388 152.541 66.1436 152.031 66.6692 151.682C67.1976 151.33 67.8269 151.153 68.557 151.153C69.2871 151.153 69.915 151.33 70.4405 151.682C70.9689 152.034 71.3752 152.545 71.6593 153.216C71.9434 153.884 72.084 154.693 72.0811 155.645C72.0811 156.602 71.9391 157.42 71.655 158.099C71.3738 158.778 70.9703 159.297 70.4448 159.655C69.9192 160.013 69.29 160.192 68.557 160.192ZM68.557 158.662C69.057 158.662 69.4561 158.411 69.7544 157.908C70.0527 157.405 70.2005 156.651 70.1976 155.645C70.1976 154.983 70.1294 154.432 69.9931 153.991C69.8596 153.551 69.6692 153.22 69.4221 152.999C69.1777 152.777 68.8894 152.666 68.557 152.666C68.0598 152.666 67.6621 152.915 67.3638 153.412C67.0655 153.909 66.915 154.653 66.9121 155.645C66.9121 156.315 66.9789 156.875 67.1124 157.324C67.2488 157.77 67.4405 158.105 67.6877 158.33C67.9348 158.551 68.2246 158.662 68.557 158.662Z" fill="black"/>
<path d="M76.8187 160.192C76.0858 160.189 75.4551 160.009 74.9267 159.651C74.4011 159.293 73.9963 158.774 73.7122 158.095C73.4309 157.416 73.2917 156.599 73.2946 155.645C73.2946 154.693 73.4352 153.882 73.7164 153.212C74.0005 152.541 74.4054 152.031 74.9309 151.682C75.4593 151.33 76.0886 151.153 76.8187 151.153C77.5488 151.153 78.1767 151.33 78.7022 151.682C79.2306 152.034 79.6369 152.545 79.921 153.216C80.2051 153.884 80.3457 154.693 80.3429 155.645C80.3429 156.602 80.2008 157.42 79.9167 158.099C79.6355 158.778 79.2321 159.297 78.7065 159.655C78.1809 160.013 77.5517 160.192 76.8187 160.192ZM76.8187 158.662C77.3187 158.662 77.7179 158.411 78.0162 157.908C78.3145 157.405 78.4622 156.651 78.4593 155.645C78.4593 154.983 78.3912 154.432 78.2548 153.991C78.1213 153.551 77.9309 153.22 77.6838 152.999C77.4395 152.777 77.1511 152.666 76.8187 152.666C76.3216 152.666 75.9238 152.915 75.6255 153.412C75.3272 153.909 75.1767 154.653 75.1738 155.645C75.1738 156.315 75.2406 156.875 75.3741 157.324C75.5105 157.77 75.7022 158.105 75.9494 158.33C76.1966 158.551 76.4863 158.662 76.8187 158.662Z" fill="black"/>
<path d="M84.9142 160.119C84.258 160.119 83.6742 160.013 83.1628 159.8C82.6543 159.584 82.2552 159.29 81.9654 158.918C81.6756 158.545 81.5307 158.124 81.5307 157.652C81.5307 157.288 81.6131 156.955 81.7779 156.651C81.9455 156.344 82.1728 156.089 82.4597 155.888C82.7466 155.683 83.0677 155.553 83.4228 155.496V155.436C82.9569 155.342 82.579 155.116 82.2892 154.759C81.9995 154.398 81.8546 153.979 81.8546 153.501C81.8546 153.05 81.9867 152.648 82.2509 152.295C82.5151 151.94 82.8773 151.662 83.3375 151.46C83.8006 151.256 84.3262 151.153 84.9142 151.153C85.5023 151.153 86.0265 151.256 86.4867 151.46C86.9498 151.665 87.3134 151.945 87.5776 152.3C87.8418 152.652 87.9753 153.053 87.9782 153.501C87.9753 153.982 87.8276 154.401 87.535 154.759C87.2424 155.116 86.8674 155.342 86.41 155.436V155.496C86.7594 155.553 87.0762 155.683 87.3603 155.888C87.6472 156.089 87.8745 156.344 88.0421 156.651C88.2125 156.955 88.2992 157.288 88.302 157.652C88.2992 158.124 88.1529 158.545 87.8631 158.918C87.5733 159.29 87.1728 159.584 86.6614 159.8C86.1529 160.013 85.5705 160.119 84.9142 160.119ZM84.9142 158.764C85.2069 158.764 85.4625 158.712 85.6813 158.607C85.9 158.499 86.0705 158.351 86.1927 158.163C86.3177 157.973 86.3802 157.754 86.3802 157.507C86.3802 157.254 86.3162 157.031 86.1884 156.838C86.0605 156.642 85.8873 156.489 85.6685 156.378C85.4498 156.264 85.1983 156.207 84.9142 156.207C84.633 156.207 84.3816 156.264 84.16 156.378C83.9384 156.489 83.7637 156.642 83.6358 156.838C83.5108 157.031 83.4483 157.254 83.4483 157.507C83.4483 157.754 83.5094 157.973 83.6316 158.163C83.7537 158.351 83.9256 158.499 84.1472 158.607C84.3688 158.712 84.6245 158.764 84.9142 158.764ZM84.9142 154.865C85.1586 154.865 85.3759 154.815 85.5662 154.716C85.7566 154.616 85.9057 154.479 86.0137 154.303C86.1216 154.126 86.1756 153.923 86.1756 153.693C86.1756 153.466 86.1216 153.267 86.0137 153.097C85.9057 152.923 85.758 152.788 85.5705 152.692C85.383 152.592 85.1642 152.543 84.9142 152.543C84.6671 152.543 84.4483 152.592 84.258 152.692C84.0677 152.788 83.9185 152.923 83.8105 153.097C83.7054 153.267 83.6529 153.466 83.6529 153.693C83.6529 153.923 83.7069 154.126 83.8148 154.303C83.9228 154.479 84.0719 154.616 84.2623 154.716C84.4526 154.815 84.6699 154.865 84.9142 154.865Z" fill="black"/>
<path d="M92.8478 160.119C92.1916 160.119 91.6078 160.013 91.0964 159.8C90.5879 159.584 90.1887 159.29 89.899 158.918C89.6092 158.545 89.4643 158.124 89.4643 157.652C89.4643 157.288 89.5467 156.955 89.7115 156.651C89.8791 156.344 90.1064 156.089 90.3933 155.888C90.6802 155.683 91.0012 155.553 91.3564 155.496V155.436C90.8905 155.342 90.5126 155.116 90.2228 154.759C89.9331 154.398 89.7882 153.979 89.7882 153.501C89.7882 153.05 89.9203 152.648 90.1845 152.295C90.4487 151.94 90.8109 151.662 91.2711 151.46C91.7342 151.256 92.2598 151.153 92.8478 151.153C93.4359 151.153 93.9601 151.256 94.4203 151.46C94.8833 151.665 95.247 151.945 95.5112 152.3C95.7754 152.652 95.9089 153.053 95.9118 153.501C95.9089 153.982 95.7612 154.401 95.4686 154.759C95.176 155.116 94.801 155.342 94.3436 155.436V155.496C94.693 155.553 95.0098 155.683 95.2939 155.888C95.5808 156.089 95.8081 156.344 95.9757 156.651C96.1461 156.955 96.2328 157.288 96.2356 157.652C96.2328 158.124 96.0865 158.545 95.7967 158.918C95.5069 159.29 95.1064 159.584 94.595 159.8C94.0865 160.013 93.5041 160.119 92.8478 160.119ZM92.8478 158.764C93.1404 158.764 93.3961 158.712 93.6149 158.607C93.8336 158.499 94.0041 158.351 94.1262 158.163C94.2512 157.973 94.3137 157.754 94.3137 157.507C94.3137 157.254 94.2498 157.031 94.122 156.838C93.9941 156.642 93.8208 156.489 93.6021 156.378C93.3833 156.264 93.1319 156.207 92.8478 156.207C92.5666 156.207 92.3152 156.264 92.0936 156.378C91.872 156.489 91.6973 156.642 91.5694 156.838C91.4444 157.031 91.3819 157.254 91.3819 157.507C91.3819 157.754 91.443 157.973 91.5652 158.163C91.6873 158.351 91.8592 158.499 92.0808 158.607C92.3024 158.712 92.5581 158.764 92.8478 158.764ZM92.8478 154.865C93.0922 154.865 93.3095 154.815 93.4998 154.716C93.6902 154.616 93.8393 154.479 93.9473 154.303C94.0552 154.126 94.1092 153.923 94.1092 153.693C94.1092 153.466 94.0552 153.267 93.9473 153.097C93.8393 152.923 93.6916 152.788 93.5041 152.692C93.3166 152.592 93.0978 152.543 92.8478 152.543C92.6007 152.543 92.3819 152.592 92.1916 152.692C92.0012 152.788 91.8521 152.923 91.7441 153.097C91.639 153.267 91.5865 153.466 91.5865 153.693C91.5865 153.923 91.6404 154.126 91.7484 154.303C91.8564 154.479 92.0055 154.616 92.1958 154.716C92.3862 154.815 92.6035 154.865 92.8478 154.865Z" fill="black"/>
<path d="M100.875 160.119C100.426 160.116 99.9931 160.041 99.5755 159.893C99.1607 159.746 98.7885 159.506 98.459 159.173C98.1294 158.841 97.8681 158.401 97.6749 157.852C97.4846 157.304 97.3894 156.631 97.3894 155.832C97.3922 155.099 97.476 154.445 97.6408 153.868C97.8084 153.288 98.0471 152.797 98.3567 152.393C98.6692 151.99 99.0428 151.683 99.4775 151.473C99.9121 151.26 100.399 151.153 100.939 151.153C101.521 151.153 102.036 151.267 102.482 151.494C102.928 151.719 103.286 152.024 103.556 152.411C103.828 152.797 103.993 153.23 104.05 153.71H102.23C102.159 153.406 102.01 153.168 101.783 152.994C101.556 152.821 101.274 152.734 100.939 152.734C100.371 152.734 99.9391 152.982 99.6436 153.476C99.351 153.97 99.2019 154.642 99.1962 155.491H99.2559C99.3865 155.233 99.5627 155.013 99.7843 154.831C100.009 154.646 100.263 154.506 100.547 154.409C100.834 154.31 101.137 154.26 101.455 154.26C101.972 154.26 102.432 154.382 102.835 154.626C103.239 154.868 103.557 155.2 103.79 155.624C104.023 156.047 104.139 156.531 104.139 157.077C104.139 157.668 104.002 158.193 103.726 158.653C103.453 159.114 103.071 159.474 102.58 159.736C102.091 159.994 101.523 160.122 100.875 160.119ZM100.867 158.67C101.151 158.67 101.405 158.602 101.629 158.466C101.854 158.33 102.03 158.145 102.158 157.912C102.286 157.679 102.35 157.418 102.35 157.128C102.35 156.838 102.286 156.578 102.158 156.348C102.033 156.118 101.86 155.935 101.638 155.798C101.416 155.662 101.164 155.594 100.879 155.594C100.666 155.594 100.469 155.634 100.287 155.713C100.108 155.793 99.9505 155.903 99.8141 156.045C99.6806 156.188 99.5755 156.352 99.4988 156.54C99.4221 156.724 99.3837 156.922 99.3837 157.132C99.3837 157.413 99.4476 157.67 99.5755 157.903C99.7061 158.136 99.8823 158.322 100.104 158.462C100.328 158.601 100.583 158.67 100.867 158.67Z" fill="black"/>
<path fill-rule="evenodd" clip-rule="evenodd" d="M94.6066 133.515L85.0607 143.061C84.4749 143.646 83.5251 143.646 82.9394 143.061L73.3934 133.515C72.8076 132.929 72.8076 131.979 73.3934 131.393C73.9792 130.808 74.929 130.808 75.5147 131.393L82.5 138.379L82.5 105C82.5 104.172 83.1716 103.5 84 103.5C84.8284 103.5 85.5 104.172 85.5 105L85.5 138.379L92.4853 131.393C93.0711 130.808 94.0208 130.808 94.6066 131.393C95.1924 131.979 95.1924 132.929 94.6066 133.515Z" fill="black"/>
<path d="M13 51C13 47.6863 15.6863 45 19 45H119C122.314 45 125 47.6863 125 51C125 54.3137 122.314 57 119 57H19C15.6863 57 13 54.3137 13 51Z" fill="black" fill-opacity="0.1"/>
<path d="M13 17C13 13.6863 15.6863 11 19 11H119C122.314 11 125 13.6863 125 17C125 20.3137 122.314 23 119 23H19C15.6863 23 13 20.3137 13 17Z" fill="black" fill-opacity="0.1"/>
<path d="M13 95C13 91.6863 15.6863 89 19 89H191C194.314 89 197 91.6863 197 95C197 98.3137 194.314 101 191 101H19C15.6863 101 13 98.3137 13 95Z" fill="black" fill-opacity="0.1"/>
<path d="M13 117C13 113.686 15.6863 111 19 111H191C194.314 111 197 113.686 197 117C197 120.314 194.314 123 191 123H19C15.6863 123 13 120.314 13 117Z" fill="black" fill-opacity="0.1"/>
<path d="M13 73C13 69.6863 15.6863 67 19 67H91C94.3137 67 97 69.6863 97 73C97 76.3137 94.3137 79 91 79H19C15.6863 79 13 76.3137 13 73Z" fill="black" fill-opacity="0.1"/>
<path d="M13 156C13 152.686 15.6863 150 19 150H42C45.3137 150 48 152.686 48 156C48 159.314 45.3137 162 42 162H19C15.6863 162 13 159.314 13 156Z" fill="black" fill-opacity="0.1"/>
<path d="M197 51C197 47.6863 199.686 45 203 45H257C260.314 45 263 47.6863 263 51C263 54.3137 260.314 57 257 57H203C199.686 57 197 54.3137 197 51Z" fill="black" fill-opacity="0.1"/>
<path d="M197 17C197 13.6863 199.686 11 203 11H257C260.314 11 263 13.6863 263 17C263 20.3137 260.314 23 257 23H203C199.686 23 197 20.3137 197 17Z" fill="black" fill-opacity="0.1"/>
</svg>
