<svg fill="none" height="255" viewBox="0 0 422 255" width="422" xmlns="http://www.w3.org/2000/svg" xmlns:xlink="http://www.w3.org/1999/xlink"><clipPath id="a"><path d="m0 0h422v255h-422z"/></clipPath><g clip-path="url(#a)"><path d="m0 8c0-4.41828 3.58172-8 8-8h406c4.418 0 8 3.58172 8 8v239c0 4.418-3.582 8-8 8h-406.00001c-4.41828 0-7.99999-3.582-7.99999-8z" fill="#d26339"/><path d="m0 56h422v143h-422z" fill="#f8f4d2"/><path d="m24 31c0-3.3137 2.6863-6 6-6h71c3.314 0 6 2.6863 6 6s-2.686 6-6 6h-71c-3.3137 0-6-2.6863-6-6z" fill="#000" fill-opacity=".1"/><path d="m122 31c0-3.3137 2.686-6 6-6h114c3.314 0 6 2.6863 6 6s-2.686 6-6 6h-114c-3.314 0-6-2.6863-6-6z" fill="#000" fill-opacity=".1"/><path d="m159 77c0-2.7614 2.239-5 5-5h79c2.761 0 5 2.2386 5 5s-2.239 5-5 5h-79c-2.761 0-5-2.2386-5-5z" fill="#000" fill-opacity=".1"/><path d="m24 77c0-2.7614 2.2386-5 5-5h79c2.761 0 5 2.2386 5 5s-2.239 5-5 5h-79c-2.7614 0-5-2.2386-5-5z" fill="#000" fill-opacity=".1"/><path d="m159 150c0-2.761 2.239-5 5-5h79c2.761 0 5 2.239 5 5s-2.239 5-5 5h-79c-2.761 0-5-2.239-5-5z" fill="#000" fill-opacity=".1"/><path d="m24 150c0-2.761 2.2386-5 5-5h79c2.761 0 5 2.239 5 5s-2.239 5-5 5h-79c-2.7614 0-5-2.239-5-5z" fill="#000" fill-opacity=".1"/><path d="m159 95c0-4.4183 3.582-8 8-8h73c4.418 0 8 3.5817 8 8v13c0 4.418-3.582 8-8 8h-73c-4.418 0-8-3.582-8-8z" fill="#000" fill-opacity=".1"/><path d="m24 95c0-4.4183 3.5817-8 8-8h73c4.418 0 8 3.5817 8 8v13c0 4.418-3.582 8-8 8h-73c-4.4183 0-8-3.582-8-8z" fill="#000" fill-opacity=".1"/><path d="m159 136c0-2.761 2.239-5 5-5h79c2.761 0 5 2.239 5 5s-2.239 5-5 5h-79c-2.761 0-5-2.239-5-5z" fill="#000" fill-opacity=".1"/><path d="m24 136c0-2.761 2.2386-5 5-5h79c2.761 0 5 2.239 5 5s-2.239 5-5 5h-79c-2.7614 0-5-2.239-5-5z" fill="#000" fill-opacity=".1"/><path d="m159 175c0-2.761 2.239-5 5-5h79c2.761 0 5 2.239 5 5s-2.239 5-5 5h-79c-2.761 0-5-2.239-5-5z" fill="#000" fill-opacity=".1"/><path d="m24 227c0-2.761 2.2386-5 5-5h86c2.761 0 5 2.239 5 5s-2.239 5-5 5h-86c-2.7614 0-5-2.239-5-5z" fill="#000" fill-opacity=".1"/><path d="m188 227c0-2.761 2.239-5 5-5h173c2.761 0 5 2.239 5 5s-2.239 5-5 5h-173c-2.761 0-5-2.239-5-5z" fill="#000" fill-opacity=".1"/><path d="m24 175c0-2.761 2.2386-5 5-5h79c2.761 0 5 2.239 5 5s-2.239 5-5 5h-79c-2.7614 0-5-2.239-5-5z" fill="#000" fill-opacity=".1"/><path d="m372.273 82h-83.546c-2.611 0-4.727 2.1165-4.727 4.7273v80.5457c0 2.611 2.116 4.727 4.727 4.727h83.546c2.611 0 4.727-2.116 4.727-4.727v-80.5457c0-2.6108-2.116-4.7273-4.727-4.7273z" fill="#fff"/><path d="m285.562 33.7273 1.74 2.8444h.057l1.74-2.8444h1.272l-2.266 3.6363 2.28 3.6364h-1.279l-1.747-2.8054h-.057l-1.747 2.8054h-1.278l2.319-3.6364-2.305-3.6363z" fill="#000"/><path d="m290.898 33.7273h1.246l1.9 3.3061h.078l1.9-3.3061h1.247l-2.639 4.4176v2.8551h-1.094v-2.8551z" fill="#000"/><path d="m303.974 36.0923h-1.108c-.042-.2367-.122-.445-.238-.625-.116-.1799-.258-.3326-.426-.4581-.168-.1254-.356-.2201-.565-.2841-.205-.0639-.424-.0958-.656-.0958-.42 0-.795.1053-1.126.316-.329.2107-.59.5197-.781.9269-.19.4072-.285.9043-.285 1.4914 0 .5919.095 1.0914.285 1.4986.191.4072.453.715.784.9233.332.2083.705.3125 1.119.3125.23 0 .447-.0308.653-.0923.209-.0639.397-.1575.565-.2806s.31-.2734.426-.451c.119-.1799.2-.3858.245-.6179l1.108.0036c-.059.3575-.174.6866-.344.9872-.168.2983-.385.5564-.65.7742-.263.2154-.564.3823-.902.5007-.339.1183-.708.1775-1.108.1775-.63 0-1.191-.1491-1.683-.4474-.493-.3007-.881-.7304-1.165-1.2891-.282-.5587-.423-1.2251-.423-1.9993 0-.7765.142-1.4429.426-1.9993.284-.5587.673-.9872 1.165-1.2855.493-.3006 1.052-.451 1.68-.451.386 0 .746.0557 1.079.1669.337.1089.638.2699.906.483.267.2107.489.4687.664.7741.175.3031.294.6499.355 1.0405z" fill="#000"/><path d="m305.963 33.7273 1.74 2.8444h.057l1.74-2.8444h1.271l-2.266 3.6363 2.28 3.6364h-1.278l-1.747-2.8054h-.057l-1.747 2.8054h-1.279l2.319-3.6364-2.305-3.6363z" fill="#000"/><path d="m312.623 33.7273 1.74 2.8444h.057l1.74-2.8444h1.271l-2.265 3.6363 2.279 3.6364h-1.278l-1.747-2.8054h-.057l-1.747 2.8054h-1.279l2.319-3.6364-2.304-3.6363z" fill="#000"/><path d="m319.283 33.7273 1.74 2.8444h.057l1.74-2.8444h1.271l-2.265 3.6363 2.28 3.6364h-1.279l-1.747-2.8054h-.057l-1.747 2.8054h-1.278l2.318-3.6364-2.304-3.6363z" fill="#000"/><path d="m325.943 33.7273 1.74 2.8444h.057l1.74-2.8444h1.271l-2.265 3.6363 2.28 3.6364h-1.279l-1.747-2.8054h-.057l-1.747 2.8054h-1.278l2.319-3.6364-2.305-3.6363z" fill="#000"/><path d="m332.603 33.7273 1.74 2.8444h.057l1.74-2.8444h1.272l-2.266 3.6363 2.28 3.6364h-1.279l-1.747-2.8054h-.057l-1.747 2.8054h-1.278l2.319-3.6364-2.305-3.6363z" fill="#000"/><path d="m339.264 33.7273 1.74 2.8444h.056l1.74-2.8444h1.272l-2.266 3.6363 2.28 3.6364h-1.278l-1.748-2.8054h-.056l-1.748 2.8054h-1.278l2.319-3.6364-2.305-3.6363z" fill="#000"/><path d="m289.476 15.7273h1.101v4.7834c0 .5089-.12.9599-.359 1.3529-.239.3907-.575.6984-1.008.9233-.434.2226-.941.3338-1.524.3338-.58 0-1.087-.1112-1.52-.3338-.433-.2249-.769-.5326-1.008-.9233-.239-.393-.359-.844-.359-1.3529v-4.7834h1.097v4.6946c0 .329.073.6214.217.8771.147.2557.354.4569.621.6037.268.1444.585.2166.952.2166.369 0 .688-.0722.955-.2166.27-.1468.476-.348.618-.6037.145-.2557.217-.5481.217-.8771z" fill="#000"/><path d="m291.813 16.6719v-.9446h5.629v.9446h-2.269v6.3281h-1.094v-6.3281z" fill="#000"/><path d="m304.556 15.7273v7.2727h-1.009l-3.696-5.3338h-.068v5.3338h-1.097v-7.2727h1.015l3.701 5.3409h.067v-5.3409z" fill="#000"/><path d="m309.78 19.7614v3.2386h-1.062v-5.4545h1.019v.8877h.067c.126-.2888.322-.5208.59-.696.27-.1752.609-.2628 1.019-.2628.372 0 .697.0782.977.2344.279.1539.496.3835.649.6889.154.3054.231.683.231 1.1328v3.4695h-1.061v-3.3416c0-.3954-.103-.7043-.309-.9269-.206-.2249-.489-.3373-.849-.3373-.246 0-.465.0532-.657.1598-.19.1065-.34.2628-.451.4687-.109.2036-.163.4498-.163.7387z" fill="#000"/><path d="m316.992 23.1101c-.511 0-.958-.1172-1.339-.3516s-.677-.5622-.888-.9836c-.21-.4214-.316-.9139-.316-1.4773 0-.5658.106-1.0606.316-1.4844.211-.4238.507-.7528.888-.9872s.828-.3516 1.339-.3516.958.1172 1.339.3516.677.5634.887.9872c.211.4238.317.9186.317 1.4844 0 .5634-.106 1.0559-.317 1.4773-.21.4214-.506.7492-.887.9836s-.828.3516-1.339.3516zm.003-.8914c.332 0 .607-.0875.824-.2627.218-.1752.379-.4084.483-.6996.107-.2912.16-.612.16-.9624 0-.348-.053-.6676-.16-.9588-.104-.2935-.265-.5291-.483-.7066-.217-.1776-.492-.2664-.824-.2664-.333 0-.61.0888-.831.2664-.217.1775-.379.4131-.486.7066-.104.2912-.156.6108-.156.9588 0 .3504.052.6712.156.9624.107.2912.269.5244.486.6996.221.1752.498.2627.831.2627z" fill="#000"/><path d="m321.419 23.0675c-.194 0-.361-.0687-.5-.206-.14-.1397-.21-.3078-.21-.5043 0-.1941.07-.3598.21-.4971.139-.1397.306-.2095.5-.2095s.361.0698.501.2095c.14.1373.21.303.21.4971 0 .1303-.034.2498-.1.3587-.064.1065-.149.1918-.256.2557-.106.0639-.225.0959-.355.0959z" fill="#000"/><path clip-rule="evenodd" d="m383.485 38.6066-9.546-9.5459c-.585-.5858-.585-1.5356 0-2.1214l9.546-9.5459c.586-.5858 1.536-.5858 2.122 0 .585.5858.585 1.5355 0 2.1213l-6.986 6.9853h33.379v3h-33.379l6.986 6.9853c.585.5858.585 1.5355 0 2.1213-.586.5858-1.536.5858-2.122 0z" fill="#000" fill-rule="evenodd"/><g fill="#050505"><path d="m299.769 97.7416h8.654v8.7274h-8.654z"/><path clip-rule="evenodd" d="m310.962 95.1005h-13.962v14.0095h13.962zm-16.962-2.9857v19.9812h19.962v-19.9812z" fill-rule="evenodd"/><path d="m299.769 148.957h8.654v8.727h-8.654z"/><path clip-rule="evenodd" d="m310.962 146.316h-13.962v14.009h13.962zm-16.962-2.986v19.981h19.962v-19.981z" fill-rule="evenodd"/><path d="m351.231 97.7416h8.654v8.7274h-8.654z"/><path clip-rule="evenodd" d="m362.423 95.1005h-13.961v14.0095h13.961zm-16.961-2.9857v19.9812h19.961v-19.9812z" fill-rule="evenodd"/><path d="m294 114.852h3v2.985h-3z"/><path d="m316.962 92.1148h3v2.9857h-3z"/><path d="m297 123.349h3v2.986h-3z"/><path d="m351.231 114.852h3v2.985h-3z"/><path d="m342.462 114.852h6v2.985h-6z"/><path d="m339.462 117.837h6v2.986h-6z"/><path d="m339.462 140h6v2.986h-6z"/><path d="m334.038 120.823h6v2.986h-6z"/><path d="m334.038 142.986h6v2.985h-6z"/><path d="m359.885 126.45h3v2.985h-3z"/><path d="m356.885 120.364h3v2.985h-3z"/><path d="m359.885 117.378h3v2.986h-3z"/><path d="m362.885 114.852h3v11.483h-3z"/><path d="m316.962 110.258h3v2.986h-3z"/><path d="m319.962 107.273h3v2.985h-3z"/><path d="m322.962 104.746h3v11.484h-3z"/><path d="m322.731 95.1005v2.9856h-3v-2.9856z"/><path d="m325.731 98.0861v2.9859h-3v-2.9859z"/><path d="m328.269 101.072v2.985h-11.538v-2.985z"/><path d="m356.885 145.971h3v2.986h-3z"/><path d="m362.885 143.33h3v2.986h-3z"/><path d="m345.462 143.33h3v2.986h-3z"/><path d="m342.462 161.014h3v2.986h-3z"/><path d="m348.231 161.014h3v2.986h-3z"/><path d="m342.462 148.957h3v5.856h-3z"/><path d="m331.269 148.842h5.423v5.857h-5.423z"/><path d="m319.846 148.842h5.423v5.857h-5.423z"/><path d="m345.462 120.823h3v19.866h-3z"/><path d="m348.231 117.837h3v8.613h-3z"/><path d="m299.769 129.091h3v2.986h-3z"/><path d="m305.308 137.818h3v2.986h-3z"/><path d="m337.154 129.435h3v2.986h-3z"/><path d="m348.462 148.842h3v2.986h-3z"/><path d="m348.462 131.732h3v2.986h-3z"/><path d="m311.308 137.703h3v2.986h-3z"/><path d="m311.308 120.364h3v2.985h-3z"/><path d="m316.962 120.364h3v2.985h-3z"/><path d="m353.885 127.024h3v2.986h-3z"/><path d="m322.962 123.349h3v2.986h-3z"/><path d="m319.962 126.335h3v2.986h-3z"/><path d="m322.962 129.091h6.115v2.986h-6.115z"/><path d="m359.885 135.751h6.115v2.986h-6.115z"/><path d="m331.154 100.612h6.115v2.986h-6.115z"/><path d="m328.269 92h6.116v2.9856h-6.116z"/><path d="m316.962 129.435h3v8.268h-3z"/><path d="m353.885 136.096h3v8.268h-3z"/><path d="m331.269 129.435h3v8.268h-3z"/><path d="m322.269 141.837h3v8.268h-3z"/><path d="m359.885 151.139h3v8.268h-3z"/><path d="m325.269 145.971h3v5.972h-3z"/><path d="m362.885 155.273h3v8.153h-3z"/><path d="m328.269 143.33h3v5.971h-3z"/><path d="m328.5 123.809h3v8.268h-3z"/><path d="m308.308 115.081h3v8.268h-3z"/><path d="m334.038 109.225h3v11.598h-3z"/><path d="m328.269 100.612h3v17.225h-3z"/><path d="m339.808 101.761h3v10.335h-3z"/><path d="m322.615 129.091h3v8.268h-3z"/><path d="m339.808 92.1148h3v8.4972h-3z"/><path d="m302.423 120.364h3v8.268h-3z"/><path d="m325.5 134.947h3v5.742h-3z"/><path d="m316.962 140.689h3v13.895h-3z"/><path d="m353.885 150.105h3v13.895h-3z"/><path d="m345.462 154.699v2.985h-25.5v-2.985z"/><path d="m340.154 126.45h3v2.985h-3z"/><path d="m311.308 130.01h3v2.985h-3z"/><path d="m342.462 161.014v2.986h-25.5v-2.986z"/><path d="m346.962 137.703h6.115v2.986h-6.115z"/><path d="m332.769 134.718h6.116v2.985h-6.116z"/><path d="m359.885 129.435h6.115v2.986h-6.115z"/></g></g></svg>