<svg width="20" height="22" viewBox="0 0 20 22" fill="none" xmlns="http://www.w3.org/2000/svg">
<path fill-rule="evenodd" clip-rule="evenodd" d="M18 14.7367V6.93821C17.5407 7.13891 17.0333 7.25024 16.5 7.25024C16.3218 7.25024 16.1466 7.23782 15.975 7.21378V9.57884H2.025V5.15783H13.1353C12.8886 4.65803 12.75 4.09532 12.75 3.50024C12.75 3.4206 12.7525 3.34153 12.7574 3.26312H2.24091C2.62788 2.4565 3.49382 1.89471 4.5 1.89471H13.1101C13.4613 1.15456 14.0477 0.547715 14.7728 0.170796C14.3692 0.0596429 13.9421 0 13.5 0H4.5C2.01472 0 0 1.88509 0 4.21048V14.7367C0 16.2825 0.890383 17.6338 2.21748 18.3661L1.29856 20.7284C1.10731 21.22 1.37824 21.7637 1.9037 21.9426C2.42917 22.1216 3.01019 21.8681 3.20144 21.3764L4.15126 18.9347C4.26635 18.9429 4.38265 18.9471 4.5 18.9471H13.5C13.6272 18.9471 13.7531 18.9422 13.8776 18.9325L14.8282 21.3764C15.0195 21.8681 15.6005 22.1216 16.126 21.9426C16.6514 21.7637 16.9224 21.22 16.7311 20.7284L15.8069 18.3525C17.1205 17.6173 18 16.2731 18 14.7367ZM2.025 11.4735V13.7893H4.5C5.05919 13.7893 5.5125 14.2135 5.5125 14.7367C5.5125 15.2599 5.05919 15.684 4.5 15.684H2.24091C2.62788 16.4907 3.49382 17.0524 4.5 17.0524H13.5C14.5062 17.0524 15.3721 16.4907 15.7591 15.684L13.5 15.684C12.9408 15.684 12.4875 15.2599 12.4875 14.7367C12.4875 14.2135 12.9408 13.7893 13.5 13.7893H15.975V11.4735H2.025Z" fill="black"/>
<path d="M19.2668 3.58545L19.5613 3.0718C19.8505 2.56743 19.4213 2.06045 18.9437 2.06045H15.0563C14.5787 2.06045 14.1495 2.56743 14.4387 3.0718L14.7332 3.58545L14.4387 4.0991C14.1495 4.60347 14.5787 5.11045 15.0563 5.11045H18.9437C19.4213 5.11045 19.8505 4.60347 19.5613 4.0991L19.2668 3.58545Z" fill="black"/>
</svg>
