<svg width="19" height="22" viewBox="0 0 19 22" fill="none" xmlns="http://www.w3.org/2000/svg">
<path fill-rule="evenodd" clip-rule="evenodd" d="M18 6.93772V14.7362C18 16.2726 17.1205 17.6168 15.8069 18.352L16.7311 20.7279C16.9224 21.2195 16.6514 21.7632 16.126 21.9421C15.6005 22.1211 15.0195 21.8676 14.8282 21.3759L13.8776 18.932C13.7531 18.9417 13.6272 18.9467 13.5 18.9467H4.5C4.38265 18.9467 4.26635 18.9425 4.15126 18.9342L3.20144 21.3759C3.01019 21.8676 2.42917 22.1211 1.9037 21.9421C1.37824 21.7632 1.10731 21.2195 1.29856 20.7279L2.21748 18.3656C0.890383 17.6334 0 16.2821 0 14.7362V4.20999C0 1.88461 2.01472 -0.000488281 4.5 -0.000488281H13.5C13.9421 -0.000488281 14.3692 0.0591546 14.7728 0.170308C14.0477 0.547227 13.4613 1.15407 13.1101 1.89423H4.5C3.49382 1.89423 2.62788 2.45601 2.24091 3.26263H12.7574C12.7525 3.34104 12.75 3.42011 12.75 3.49976C12.75 4.09483 12.8886 4.65754 13.1353 5.15735H2.025V9.57835H15.975V7.2133C16.1466 7.23733 16.3218 7.24976 16.5 7.24976C17.0333 7.24976 17.5407 7.13842 18 6.93772ZM2.025 13.7888V11.4731H15.975V13.7888H13.5C12.9408 13.7888 12.4875 14.213 12.4875 14.7362C12.4875 15.2594 12.9408 15.6835 13.5 15.6835L15.7591 15.6835C15.3721 16.4902 14.5062 17.0519 13.5 17.0519H4.5C3.49382 17.0519 2.62788 16.4902 2.24091 15.6835H4.5C5.05919 15.6835 5.5125 15.2594 5.5125 14.7362C5.5125 14.213 5.05919 13.7888 4.5 13.7888H2.025Z" fill="black"/>
<path d="M18.3536 1.64645C18.5488 1.84171 18.5488 2.15829 18.3536 2.35355L17.2071 3.5L18.3536 4.64645C18.5488 4.84171 18.5488 5.15829 18.3536 5.35355C18.1583 5.54882 17.8417 5.54882 17.6464 5.35355L16.5 4.20711L15.3536 5.35355C15.1583 5.54882 14.8417 5.54882 14.6464 5.35355C14.4512 5.15829 14.4512 4.84171 14.6464 4.64645L15.7929 3.5L14.6464 2.35355C14.4512 2.15829 14.4512 1.84171 14.6464 1.64645C14.8417 1.45118 15.1583 1.45118 15.3536 1.64645L16.5 2.79289L17.6464 1.64645C17.8417 1.45118 18.1583 1.45118 18.3536 1.64645Z" fill="black"/>
</svg>
